<?xml version="1.0" encoding="UTF-8"?><svg id="Layer_2" xmlns="http://www.w3.org/2000/svg" viewBox="0 0 91.3 91.26"><g id="Layer_1-2"><path d="M91.3,45.78c-.04,24.16-19.2,45.38-45.46,45.48C19.42,91.35-.3,70.12,0,45.1,.3,20.2,20.12-.13,45.83,0c26.53,.14,45.56,21.59,45.47,45.78Zm-54.02,19.78c0,4.05,.06,8.1-.03,12.14-.03,1.48,.37,2.06,1.93,2,2.75-.11,5.5-.03,8.25-.03,1.98,0,1.99-.01,1.99-2.02,0-8.19,.04-16.39-.03-24.58-.01-1.53,.5-2.03,1.99-1.96,1.94,.1,3.9,0,5.85,.03,.96,.02,1.43-.31,1.57-1.34,.35-2.67,.73-5.35,1.27-7.99,.32-1.55-.29-1.82-1.61-1.79-2.25,.06-4.5,.02-6.75,.01q-2.28,0-2.29-2.21c0-2,0-4,0-6,0-3.54,2.13-5.77,5.72-5.94,1.45-.07,2.9-.06,4.35-.03,.95,.02,1.36-.36,1.35-1.33-.03-2.25-.03-4.5,0-6.75,.01-.96-.4-1.32-1.34-1.35-2.35-.07-4.7-.12-7.04-.31-9.29-.76-14.24,5-15.05,13.04-.3,2.92-.1,5.89-.12,8.84-.02,1.9-.11,2.01-2.06,2.02-2.3,.02-4.6,.03-6.9,0-1.04-.02-1.57,.29-1.54,1.45,.05,2.75,.05,5.5,0,8.24-.02,1.03,.36,1.44,1.4,1.42,2.3-.04,4.6-.01,6.9,0,2.19,0,2.2,.01,2.2,2.14,0,4.1,0,8.19,0,12.29Z"/></g></svg>