<?xml version="1.0" encoding="UTF-8"?><svg id="Layer_2" xmlns="http://www.w3.org/2000/svg" viewBox="0 0 91.34 91.26"><g id="Layer_1-2"><g><path d="M0,45.55C.16,20.64,19.92-.06,45.73,0c26.03,.06,45.95,20.92,45.6,46.24-.35,24.94-20.14,45.08-45.77,45.02C19.52,91.19,.06,70.26,0,45.55Zm74.55,.13c0-4.3,0-8.6,0-12.89-.02-9.17-6.63-15.81-15.79-15.83-8.7-.02-17.41,.19-26.1-.06-8.16-.23-15.97,6.46-15.89,15.97,.07,8.5,0,16.99,.02,25.49,.02,9.13,6.54,15.94,15.66,16.09,8.85,.14,17.7,.14,26.55,0,8.95-.13,15.52-6.96,15.55-15.88,.01-4.3,0-8.6,0-12.89Z"/><path d="M69.85,45.67c0,4.3,.01,8.6,0,12.89-.02,6.29-4.8,11.17-11.08,11.2-8.65,.05-17.3,.05-25.95,0-6.57-.03-11.33-4.85-11.35-11.43-.03-8.45-.03-16.89,0-25.34,.02-6.71,4.84-11.51,11.58-11.53,8.4-.03,16.8-.02,25.2,0,6.86,.02,11.6,4.77,11.61,11.6,0,4.2,0,8.4,0,12.59Zm-39.67-.04c-.01,8.65,6.9,15.66,15.42,15.65,8.7-.02,15.74-6.95,15.77-15.54,.03-8.53-7.11-15.76-15.59-15.78-8.63-.01-15.59,6.97-15.6,15.66Zm34.19-15.55c-.03-1.74-1.44-3.13-3.16-3.11-1.73,.02-3.1,1.44-3.07,3.18,.03,1.87,1.26,3.05,3.15,3.03,1.87-.02,3.11-1.27,3.08-3.1Z"/><path d="M45.79,35.16c5.74,.02,10.55,4.82,10.53,10.5-.03,5.83-4.94,10.7-10.75,10.65-5.69-.04-10.6-5.03-10.55-10.73,.05-5.78,4.87-10.44,10.77-10.42Z"/></g></g></svg>