<?xml version="1.0" encoding="UTF-8"?><svg id="Layer_2" xmlns="http://www.w3.org/2000/svg" viewBox="0 0 91.3 91.26"><g id="Layer_1-2"><path d="M0,45.42C.1,21.03,19.53-.11,45.83,0c26.33,.11,45.88,21.38,45.47,46.36-.4,24.52-19.81,44.86-45.59,44.9C19.32,91.29-.11,69.99,0,45.42Zm36.78,8.17c0,5.15,.03,10.29-.02,15.44-.01,1.22,.37,1.71,1.63,1.66,2-.07,4-.02,6-.02,2.18,0,2.19,0,2.19-2.14,0-5.25-.05-10.49,.02-15.74,.06-4.35,3.34-7.6,7.48-7.61,3.88-.01,6.69,2.98,6.92,7.38,.03,.5,.01,1,.01,1.5,0,4.95,.04,9.9-.02,14.84-.02,1.4,.48,1.84,1.83,1.79,2.15-.08,4.3-.07,6.45,0,1.17,.03,1.57-.4,1.56-1.57-.04-7.15,.02-14.29-.05-21.44-.02-2.6-.97-4.93-2.52-7.08-4.19-5.81-15.4-5.42-19.31-1.53-.62,.62-1.26,1.9-1.96,1.62-.91-.37-.39-1.7-.4-2.61-.01-1.09-.39-1.52-1.5-1.49-2.15,.06-4.3,.08-6.45,0-1.42-.06-1.93,.4-1.9,1.86,.08,5.05,.03,10.09,.03,15.14Zm-16.23,0c0,5.15,.03,10.29-.02,15.44-.01,1.21,.36,1.71,1.62,1.67,2.25-.07,4.5-.05,6.75,0,1.09,.02,1.51-.41,1.5-1.5-.02-10.39-.02-20.78,0-31.18,0-1.02-.38-1.43-1.41-1.41-2.25,.05-4.5,.08-6.75-.01-1.32-.05-1.73,.4-1.72,1.71,.06,5.1,.03,10.19,.03,15.29Zm-.96-28.32c0,3.45,2.54,6.08,5.87,6.05,3.27-.02,6-2.77,6.02-6.04,.01-3.25-2.73-6.03-6-6.07-3.32-.04-5.88,2.6-5.89,6.06Z"/></g></svg>