<svg xmlns="http://www.w3.org/2000/svg" viewBox="0 0 14.4 23.55"><defs><style>.cls-1{fill:#fff;fill-rule:evenodd;}</style></defs><title>Phone_Icon</title><g id="Layer_2" data-name="Layer 2"><g id="Layer_1-2" data-name="Layer 1"><path class="cls-1" d="M7.2,19.81a1.34,1.34,0,1,1-1.33,1.33A1.33,1.33,0,0,1,7.2,19.81M1.35,3.61h11.7V19.14H1.35Zm2.57-2h6.56a.17.17,0,0,1,.17.17v.43a.18.18,0,0,1-.17.17H3.92a.18.18,0,0,1-.17-.17V1.74A.17.17,0,0,1,3.92,1.57ZM2.25,0h9.9A2.25,2.25,0,0,1,14.4,2.25V21.3a2.25,2.25,0,0,1-2.25,2.25H2.25A2.25,2.25,0,0,1,0,21.3v-19A2.25,2.25,0,0,1,2.25,0Z"/></g></g></svg>