<?xml version="1.0" encoding="UTF-8"?><svg id="Layer_2" xmlns="http://www.w3.org/2000/svg" viewBox="0 0 91.3 91.26"><g id="Layer_1-2"><g><path d="M91.3,45.68c-.03,24.29-19.23,45.57-45.67,45.58C19.57,91.28-.15,70.34,0,45.35,.15,20.65,19.77-.13,45.88,0c26.32,.14,45.47,21.44,45.42,45.68Zm-73.33-.15c.02,3.45,.07,6.89,.37,10.33,.46,5.32,2.37,7.47,7.66,8.35,.34,.06,.69,.1,1.04,.13,10.42,1.1,20.86,1.07,31.3,.53,2.59-.13,5.19-.29,7.75-.79,4.37-.84,6.2-2.74,6.76-7.19,.94-7.47,.94-14.95,.02-22.42-.58-4.77-2.56-6.75-7.29-7.54-3.17-.53-6.37-.6-9.56-.78-6.84-.38-13.69-.4-20.52,0-3.34,.19-6.69,.24-10,.82-4.22,.74-6.18,2.55-6.91,6.75-.68,3.9-.61,7.86-.62,11.81Z"/><path d="M39.86,45.55c0-2.34,.01-4.69,0-7.03,0-1.06,.25-1.57,1.38-.91,4.15,2.4,8.3,4.78,12.46,7.16,.9,.52,1.06,.97,.06,1.56-4.23,2.45-8.46,4.91-12.68,7.37-1.01,.59-1.21,.08-1.21-.81,0-2.44,0-4.89,0-7.33Z"/></g></g></svg>