<?xml version="1.0" encoding="UTF-8"?><svg id="Layer_2" xmlns="http://www.w3.org/2000/svg" viewBox="0 0 312.01 252.85"><defs><style>.cls-1{stroke:#fff;stroke-linecap:round;stroke-linejoin:round;stroke-width:.5px;}.cls-1,.cls-2{fill:none;}.cls-3{fill:#fff;}.cls-2{stroke:#68dbff;stroke-miterlimit:10;}.cls-4{fill:#68dbff;}</style></defs><g id="Layer_1-2"><path class="cls-4" d="M213.71,41.81v-5.82h2.13c.41,0,.75.07,1.03.2.27.14.47.32.61.55.13.23.2.49.2.78,0,.24-.04.45-.13.61s-.21.3-.36.4c-.15.1-.31.17-.49.22v.06c.19,0,.38.07.57.19.18.11.34.28.46.49.12.21.18.47.18.77s-.07.56-.21.8c-.14.24-.35.42-.64.56s-.66.21-1.11.21h-2.23ZM214.58,38.51h1.18c.2,0,.38-.04.53-.11.16-.08.28-.18.38-.32s.14-.3.14-.49c0-.24-.08-.44-.25-.61-.17-.16-.43-.24-.78-.24h-1.2v1.77ZM214.58,41.05h1.27c.42,0,.72-.08.9-.24s.27-.37.27-.61c0-.18-.05-.35-.14-.5s-.22-.28-.4-.37c-.17-.09-.37-.14-.61-.14h-1.3v1.86Z"/><path class="cls-4" d="M221.64,40v-2.55h.85v4.36h-.84v-.76h-.04c-.1.23-.26.43-.48.58s-.5.23-.82.23c-.28,0-.53-.06-.74-.19s-.38-.31-.51-.55-.18-.55-.18-.91v-2.78h.85v2.67c0,.3.08.53.25.71.17.18.38.26.64.26.16,0,.32-.04.48-.12.16-.08.29-.2.39-.36.11-.16.16-.37.16-.61Z"/><path class="cls-4" d="M226.9,38.51l-.77.14c-.03-.1-.08-.19-.15-.28-.07-.09-.16-.16-.28-.22s-.26-.08-.44-.08c-.24,0-.44.05-.6.16-.16.11-.24.25-.24.41,0,.15.05.26.16.35.11.09.28.16.52.22l.69.16c.4.09.7.24.9.43.2.19.3.44.3.75,0,.26-.08.49-.23.7-.15.2-.36.36-.63.48-.27.12-.58.17-.93.17-.49,0-.89-.1-1.2-.31-.31-.21-.5-.51-.57-.89l.82-.12c.05.21.16.38.32.48.16.11.37.16.62.16.28,0,.5-.06.67-.17.17-.12.25-.26.25-.43,0-.14-.05-.25-.15-.34s-.26-.16-.46-.21l-.74-.16c-.41-.09-.71-.24-.9-.44-.19-.2-.29-.46-.29-.77,0-.26.07-.48.22-.68.14-.19.34-.34.6-.45.25-.11.54-.16.87-.16.47,0,.84.1,1.11.31.27.2.45.48.54.82Z"/><path class="cls-4" d="M231.18,38.51l-.77.14c-.03-.1-.08-.19-.15-.28-.07-.09-.16-.16-.28-.22s-.26-.08-.44-.08c-.24,0-.44.05-.6.16-.16.11-.24.25-.24.41,0,.15.05.26.16.35.11.09.28.16.52.22l.69.16c.4.09.7.24.9.43.2.19.29.44.29.75,0,.26-.08.49-.23.7-.15.2-.36.36-.63.48-.27.12-.58.17-.93.17-.49,0-.89-.1-1.2-.31-.31-.21-.5-.51-.57-.89l.82-.12c.05.21.16.38.32.48.16.11.37.16.62.16.28,0,.5-.06.67-.17.17-.12.25-.26.25-.43,0-.14-.05-.25-.15-.34-.1-.09-.26-.16-.46-.21l-.74-.16c-.41-.09-.71-.24-.9-.44-.19-.2-.29-.46-.29-.77,0-.26.07-.48.22-.68.14-.19.34-.34.6-.45.25-.11.54-.16.87-.16.47,0,.84.1,1.11.31.27.2.45.48.54.82Z"/><path class="cls-4" d="M232.63,36.77c-.15,0-.27-.05-.38-.15-.11-.1-.16-.22-.16-.36s.05-.26.16-.36c.1-.1.23-.15.38-.15s.27.05.38.15c.11.1.16.22.16.36s-.05.26-.16.36c-.1.1-.23.15-.38.15ZM232.2,41.81v-4.36h.85v4.36h-.85Z"/><path class="cls-4" d="M235.04,39.22v2.59h-.85v-4.36h.82v.71h.05c.1-.23.26-.42.47-.56.21-.14.49-.21.81-.21.3,0,.56.06.78.19s.4.31.52.55.18.55.18.91v2.78h-.85v-2.67c0-.32-.08-.56-.25-.74-.16-.18-.39-.27-.68-.27-.2,0-.37.04-.52.13s-.27.21-.36.37c-.09.16-.13.36-.13.59Z"/><path class="cls-4" d="M240.85,41.89c-.43,0-.8-.09-1.11-.28-.31-.19-.55-.45-.72-.78-.17-.34-.25-.73-.25-1.18s.08-.84.25-1.18c.17-.34.4-.61.71-.8s.66-.29,1.06-.29c.25,0,.49.04.72.12.23.08.44.21.62.38.18.17.33.4.43.68.11.28.16.61.16,1.01v.3h-3.47v-.64h2.64c0-.22-.04-.42-.14-.59-.09-.17-.22-.31-.38-.41-.16-.1-.36-.15-.58-.15-.24,0-.45.06-.62.17-.18.12-.31.27-.41.45s-.14.39-.14.61v.5c0,.29.05.54.15.74.1.2.25.36.43.47.19.11.4.16.65.16.16,0,.31-.02.44-.07.13-.05.25-.12.34-.21s.17-.21.22-.34l.8.14c-.06.24-.18.44-.34.62-.17.18-.37.31-.62.41s-.53.15-.85.15Z"/><path class="cls-4" d="M246.94,38.51l-.77.14c-.03-.1-.08-.19-.15-.28s-.16-.16-.28-.22c-.12-.06-.26-.08-.44-.08-.24,0-.44.05-.6.16-.16.11-.24.25-.24.41,0,.15.05.26.16.35.11.09.28.16.52.22l.69.16c.4.09.7.24.9.43.2.19.29.44.29.75,0,.26-.08.49-.23.7-.15.2-.36.36-.63.48-.27.12-.58.17-.93.17-.49,0-.89-.1-1.2-.31-.31-.21-.5-.51-.57-.89l.82-.12c.05.21.16.38.32.48.16.11.37.16.62.16.28,0,.5-.06.67-.17.17-.12.25-.26.25-.43,0-.14-.05-.25-.15-.34-.1-.09-.26-.16-.46-.21l-.74-.16c-.41-.09-.71-.24-.9-.44-.19-.2-.29-.46-.29-.77,0-.26.07-.48.22-.68s.34-.34.6-.45c.25-.11.54-.16.87-.16.47,0,.84.1,1.11.31.27.2.45.48.54.82Z"/><path class="cls-4" d="M251.23,38.51l-.77.14c-.03-.1-.08-.19-.15-.28s-.16-.16-.28-.22c-.12-.06-.26-.08-.44-.08-.24,0-.44.05-.6.16-.16.11-.24.25-.24.41,0,.15.05.26.16.35.11.09.28.16.52.22l.69.16c.4.09.7.24.9.43.2.19.29.44.29.75,0,.26-.08.49-.23.7-.15.2-.36.36-.63.48-.27.12-.58.17-.93.17-.49,0-.89-.1-1.2-.31-.31-.21-.5-.51-.57-.89l.82-.12c.05.21.16.38.32.48.16.11.37.16.62.16.28,0,.5-.06.67-.17.17-.12.25-.26.25-.43,0-.14-.05-.25-.15-.34-.1-.09-.26-.16-.46-.21l-.74-.16c-.41-.09-.71-.24-.9-.44-.19-.2-.29-.46-.29-.77,0-.26.07-.48.22-.68s.34-.34.6-.45c.25-.11.54-.16.87-.16.47,0,.84.1,1.11.31.27.2.45.48.54.82Z"/><path class="cls-4" d="M259.26,37.88h-.89c-.03-.19-.1-.36-.19-.5-.09-.14-.21-.27-.34-.37-.13-.1-.28-.18-.45-.23-.17-.05-.34-.08-.53-.08-.34,0-.64.08-.9.25-.26.17-.47.42-.62.74-.15.33-.23.72-.23,1.19s.08.87.23,1.2c.15.33.36.57.63.74.27.17.56.25.9.25.18,0,.36-.03.52-.08.17-.05.32-.12.45-.22.13-.1.25-.22.34-.36.09-.14.16-.31.19-.49h.89c-.05.29-.14.55-.27.79-.13.24-.31.45-.52.62-.21.17-.45.31-.72.4-.27.09-.57.14-.89.14-.5,0-.95-.12-1.35-.36-.39-.24-.7-.58-.93-1.03s-.34-.98-.34-1.6.11-1.15.34-1.6c.23-.45.54-.79.93-1.03.39-.24.84-.36,1.34-.36.31,0,.6.04.87.13.27.09.51.22.72.39.21.17.39.38.53.62s.23.52.28.83Z"/><path class="cls-4" d="M260.25,41.81v-4.36h.82v.69h.05c.08-.23.22-.42.42-.55.2-.14.43-.2.69-.2.05,0,.12,0,.19,0,.07,0,.13,0,.17.01v.81s-.09-.02-.18-.03c-.09-.01-.17-.02-.26-.02-.2,0-.38.04-.54.13s-.28.2-.37.35-.14.32-.14.51v2.67h-.85Z"/><path class="cls-4" d="M265.04,41.89c-.43,0-.8-.09-1.11-.28-.31-.19-.55-.45-.72-.78-.17-.34-.25-.73-.25-1.18s.08-.84.25-1.18c.17-.34.4-.61.71-.8s.66-.29,1.06-.29c.25,0,.49.04.72.12.23.08.44.21.62.38.18.17.33.4.43.68.11.28.16.61.16,1.01v.3h-3.47v-.64h2.64c0-.22-.04-.42-.14-.59-.09-.17-.22-.31-.38-.41-.16-.1-.36-.15-.58-.15-.24,0-.45.06-.62.17-.18.12-.31.27-.41.45s-.14.39-.14.61v.5c0,.29.05.54.15.74.1.2.25.36.43.47.19.11.4.16.65.16.16,0,.31-.02.44-.07.13-.05.25-.12.34-.21s.17-.21.22-.34l.8.14c-.06.24-.18.44-.34.62-.17.18-.37.31-.62.41s-.53.15-.85.15Z"/><path class="cls-4" d="M269.13,41.9c-.28,0-.53-.05-.75-.16-.22-.1-.4-.25-.53-.45-.13-.2-.2-.44-.2-.72,0-.25.05-.45.14-.61s.22-.29.38-.38c.16-.09.34-.16.54-.21.2-.05.4-.08.61-.11.26-.03.47-.06.64-.08.16-.02.28-.05.36-.1.07-.05.11-.12.11-.22v-.02c0-.25-.07-.44-.21-.58-.14-.14-.35-.21-.62-.21s-.51.06-.67.19-.28.27-.34.42l-.8-.18c.09-.27.23-.48.42-.64s.39-.28.63-.36c.24-.07.49-.11.75-.11.17,0,.36.02.56.06s.38.12.55.22c.17.11.31.26.42.46.11.2.17.46.17.78v2.9h-.83v-.6h-.03c-.05.11-.14.22-.25.32-.11.11-.25.19-.42.26-.17.07-.38.11-.62.11ZM269.31,41.22c.24,0,.44-.05.6-.14.17-.09.3-.21.38-.37.09-.15.13-.31.13-.48v-.56s-.09.06-.17.08c-.09.03-.18.05-.29.07-.11.02-.22.03-.32.05-.1.01-.19.03-.26.04-.17.02-.31.06-.45.11-.14.05-.24.12-.32.21-.08.09-.12.21-.12.37,0,.21.08.37.23.48.16.11.35.16.59.16Z"/><path class="cls-4" d="M274.45,37.44v.68h-2.38v-.68h2.38ZM272.71,36.4h.85v4.13c0,.17.02.29.07.37.05.08.11.14.19.17.08.03.16.04.26.04.07,0,.13,0,.18-.01.05,0,.09-.02.12-.02l.15.7s-.12.04-.21.06c-.09.02-.21.03-.34.03-.22,0-.43-.04-.62-.12-.19-.08-.35-.21-.47-.39-.12-.17-.18-.39-.18-.66v-4.3Z"/><path class="cls-4" d="M275.82,36.77c-.15,0-.27-.05-.38-.15-.11-.1-.16-.22-.16-.36s.05-.26.16-.36c.1-.1.23-.15.38-.15s.27.05.38.15c.11.1.16.22.16.36s-.05.26-.16.36c-.1.1-.23.15-.38.15ZM275.39,41.81v-4.36h.85v4.36h-.85Z"/><path class="cls-4" d="M279.22,41.89c-.41,0-.77-.09-1.07-.28s-.54-.45-.71-.79c-.17-.34-.25-.73-.25-1.18s.08-.85.25-1.19.41-.6.71-.79.66-.28,1.07-.28.77.09,1.07.28c.3.19.54.45.71.79s.25.74.25,1.19-.08.84-.25,1.18c-.17.34-.41.6-.71.79-.31.19-.66.28-1.07.28ZM279.22,41.18c.26,0,.48-.07.66-.21.17-.14.3-.33.39-.56.08-.23.13-.49.13-.77s-.04-.53-.13-.77c-.08-.23-.21-.42-.39-.56-.17-.14-.39-.21-.66-.21s-.49.07-.66.21c-.18.14-.31.33-.39.56-.08.23-.13.49-.13.77s.04.54.13.77c.08.23.21.42.39.56.17.14.4.21.66.21Z"/><path class="cls-4" d="M283.05,39.22v2.59h-.85v-4.36h.82v.71h.05c.1-.23.26-.42.47-.56.21-.14.49-.21.81-.21.3,0,.56.06.78.19s.4.31.52.55.18.55.18.91v2.78h-.85v-2.67c0-.32-.08-.56-.25-.74-.16-.18-.39-.27-.68-.27-.2,0-.37.04-.52.13s-.27.21-.36.37c-.09.16-.13.36-.13.59Z"/><path class="cls-4" d="M289.65,41.81h-.93l2.09-5.82h1.01l2.09,5.82h-.93l-1.64-4.76h-.05l-1.65,4.76ZM289.81,39.53h3.02v.74h-3.02v-.74Z"/><path class="cls-4" d="M295.09,41.81l-1.28-4.36h.88l.86,3.2h.04l.86-3.2h.88l.85,3.19h.04l.85-3.19h.88l-1.28,4.36h-.87l-.89-3.15h-.07l-.89,3.15h-.86Z"/><path class="cls-4" d="M302.02,41.9c-.28,0-.53-.05-.75-.16-.22-.1-.4-.25-.53-.45-.13-.2-.2-.44-.2-.72,0-.25.05-.45.14-.61s.22-.29.38-.38c.16-.09.34-.16.54-.21.2-.05.4-.08.61-.11.26-.03.47-.06.64-.08.16-.02.28-.05.36-.1.07-.05.11-.12.11-.22v-.02c0-.25-.07-.44-.21-.58-.14-.14-.35-.21-.62-.21s-.51.06-.67.19-.28.27-.34.42l-.8-.18c.09-.27.23-.48.42-.64s.39-.28.63-.36c.24-.07.49-.11.75-.11.17,0,.36.02.56.06s.38.12.55.22c.17.11.31.26.42.46.11.2.17.46.17.78v2.9h-.83v-.6h-.03c-.05.11-.14.22-.25.32-.11.11-.25.19-.42.26-.17.07-.38.11-.62.11ZM302.2,41.22c.24,0,.44-.05.6-.14.17-.09.3-.21.38-.37.09-.15.13-.31.13-.48v-.56s-.09.06-.17.08c-.09.03-.18.05-.29.07-.11.02-.22.03-.32.05-.1.01-.19.03-.26.04-.17.02-.31.06-.45.11-.14.05-.24.12-.32.21-.08.09-.12.21-.12.37,0,.21.08.37.23.48.16.11.35.16.59.16Z"/><path class="cls-4" d="M305.3,41.81v-4.36h.82v.69h.05c.08-.23.22-.42.42-.55.2-.14.43-.2.69-.2.05,0,.12,0,.19,0,.07,0,.13,0,.17.01v.81s-.09-.02-.18-.03c-.09-.01-.17-.02-.26-.02-.2,0-.38.04-.54.13s-.28.2-.37.35-.14.32-.14.51v2.67h-.85Z"/><path class="cls-4" d="M309.85,41.89c-.35,0-.67-.09-.94-.27-.28-.18-.49-.44-.65-.78-.16-.34-.23-.74-.23-1.21s.08-.88.24-1.21c.16-.33.38-.59.65-.77.28-.18.59-.27.94-.27.27,0,.49.05.66.14s.29.19.39.31c.09.12.16.22.21.32h.05v-2.16h.85v5.82h-.83v-.68h-.07c-.05.09-.12.2-.22.32-.1.12-.23.22-.39.31-.17.09-.38.13-.65.13ZM310.04,41.17c.25,0,.45-.06.62-.19.17-.13.3-.31.39-.54s.13-.5.13-.81-.04-.57-.13-.8c-.09-.23-.21-.4-.38-.53-.17-.13-.38-.19-.62-.19s-.47.07-.64.2c-.17.13-.3.31-.38.54-.09.23-.13.49-.13.78s.04.55.13.79c.09.23.22.42.39.55.17.14.38.2.63.2Z"/><path class="cls-3" d="M253.53,46.08v-.36h3.16v.36h-1.38v4.01h-.4v-4.01h-1.38Z"/><path class="cls-3" d="M257.17,50.08v-3.27h.37v.5h.03c.06-.17.18-.3.34-.4.16-.1.35-.15.55-.15.03,0,.07,0,.1,0,.04,0,.07,0,.1,0v.39s-.05,0-.09-.01c-.04,0-.09,0-.14,0-.17,0-.32.04-.46.11-.13.07-.24.17-.31.3-.08.13-.12.27-.12.43v2.11h-.38Z"/><path class="cls-3" d="M260.48,50.15c-.28,0-.53-.07-.75-.22-.22-.14-.39-.34-.51-.59-.12-.25-.18-.55-.18-.88s.06-.63.18-.89.29-.45.51-.6c.22-.14.47-.21.75-.21s.53.07.75.21.39.34.51.6c.12.25.18.55.18.88s-.06.62-.18.88c-.12.25-.29.45-.51.59-.22.14-.47.22-.75.22ZM260.48,49.8c.23,0,.42-.06.58-.18.16-.12.28-.29.36-.49.08-.2.12-.43.12-.67s-.04-.47-.12-.67c-.08-.2-.2-.37-.36-.49-.16-.12-.35-.19-.58-.19s-.42.06-.58.19c-.16.12-.28.29-.36.49-.08.21-.12.43-.12.67s.04.47.12.67c.08.2.2.37.36.49.16.12.35.18.58.18Z"/><path class="cls-3" d="M262.75,51.31v-4.5h.37v.62h.04c.05-.1.11-.2.19-.3.08-.1.18-.19.32-.26s.3-.11.5-.11c.27,0,.51.07.71.21s.36.34.47.59c.11.25.17.55.17.88s-.06.63-.17.89c-.11.25-.27.45-.47.59-.2.14-.44.21-.7.21-.2,0-.36-.04-.5-.11-.13-.07-.24-.16-.32-.26s-.14-.21-.19-.31h-.03v1.83h-.38ZM263.13,48.45c0,.26.04.5.12.7.08.2.19.36.34.48.15.12.33.17.54.17s.4-.06.55-.18.26-.28.34-.49c.08-.2.12-.43.12-.69s-.04-.48-.12-.68c-.08-.2-.19-.36-.34-.48-.15-.12-.33-.18-.55-.18s-.39.06-.54.17c-.15.11-.26.27-.34.47-.08.2-.12.43-.12.69Z"/><path class="cls-3" d="M266.73,48.04v2.05h-.38v-4.36h.38v1.6h.03c.08-.17.2-.3.36-.41.16-.1.37-.15.61-.15.22,0,.42.05.58.14.17.09.3.22.39.4s.14.4.14.66v2.12h-.38v-2.1c0-.27-.07-.48-.22-.64-.15-.16-.35-.23-.61-.23-.17,0-.33.04-.47.11-.14.07-.24.18-.32.32-.08.14-.12.3-.12.49Z"/><path class="cls-3" d="M270,51.31c-.08,0-.15,0-.21-.02-.07-.01-.12-.03-.16-.05l.1-.33c.13.04.24.05.34.04s.19-.06.27-.14c.08-.08.15-.2.21-.37l.12-.33-1.2-3.3h.41l.97,2.77h.03l.97-2.77h.41l-1.38,3.79c-.06.16-.13.29-.22.4-.08.11-.18.18-.29.24s-.24.08-.37.08Z"/><path class="cls-4" d="M215.17,5.82V0h2.07c.45,0,.83.08,1.12.25.3.17.52.39.67.67s.22.61.22.96-.07.68-.22.96c-.15.28-.37.51-.67.68-.3.17-.67.25-1.12.25h-1.43v-.74h1.35c.29,0,.52-.05.7-.15.18-.1.31-.24.39-.41.08-.17.12-.37.12-.59s-.04-.42-.12-.58c-.08-.17-.21-.3-.39-.4-.18-.1-.41-.14-.71-.14h-1.1v5.07h-.88Z"/><path class="cls-4" d="M221.45,5.92c-.28,0-.53-.05-.75-.16-.22-.1-.4-.25-.53-.45-.13-.2-.19-.44-.19-.72,0-.25.05-.45.14-.61s.22-.29.38-.38.34-.16.54-.21c.2-.05.4-.08.61-.11.26-.03.47-.06.64-.08s.28-.05.36-.1c.07-.05.11-.12.11-.22v-.02c0-.25-.07-.44-.21-.58-.14-.14-.35-.21-.62-.21s-.51.06-.67.19-.28.27-.34.42l-.8-.18c.09-.27.23-.48.42-.64s.39-.28.63-.36c.24-.07.49-.11.75-.11.17,0,.36.02.56.06s.38.12.55.22c.17.11.31.26.42.46.11.2.17.46.17.78v2.9h-.83v-.6h-.03c-.06.11-.14.22-.25.32-.11.11-.25.19-.42.26-.17.07-.38.11-.62.11ZM221.63,5.23c.23,0,.44-.05.6-.14s.3-.21.38-.37c.09-.15.13-.31.13-.48v-.56s-.09.06-.17.08-.18.05-.29.07c-.11.02-.22.03-.32.05-.1.01-.19.03-.26.04-.17.02-.32.06-.45.11-.14.05-.24.12-.32.21s-.12.21-.12.37c0,.21.08.37.23.48.16.11.35.16.59.16Z"/><path class="cls-4" d="M225.11,7.46c-.13,0-.24-.01-.35-.03s-.18-.04-.23-.06l.21-.7c.16.04.29.06.42.05.12,0,.23-.05.32-.14.09-.09.18-.22.25-.42l.11-.29-1.6-4.42h.91l1.11,3.39h.04l1.11-3.39h.91l-1.8,4.95c-.08.23-.19.42-.32.58s-.28.28-.46.36c-.18.08-.38.12-.62.12Z"/><path class="cls-4" d="M229.1,5.82V1.46h.82v.71h.05c.09-.24.24-.43.45-.56.21-.13.45-.2.74-.2s.54.07.73.21.34.32.44.56h.05c.1-.23.27-.42.5-.56.23-.14.5-.21.81-.21.4,0,.72.12.97.37.25.25.38.62.38,1.12v2.93h-.85v-2.85c0-.29-.08-.51-.24-.64-.16-.13-.35-.2-.58-.2-.28,0-.49.08-.64.25-.15.17-.23.39-.23.65v2.78h-.85v-2.9c0-.24-.07-.43-.22-.57-.15-.14-.34-.22-.58-.22-.16,0-.31.04-.44.13-.14.08-.25.2-.33.35s-.12.32-.12.52v2.69h-.85Z"/><path class="cls-4" d="M238.05,5.91c-.43,0-.8-.09-1.11-.28-.31-.19-.55-.45-.72-.78-.17-.34-.25-.73-.25-1.18s.08-.84.25-1.18c.17-.34.4-.61.71-.8s.66-.29,1.06-.29c.25,0,.49.04.72.12.23.08.44.21.62.38.18.17.33.4.43.68.11.28.16.61.16,1.01v.3h-3.47v-.64h2.64c0-.22-.04-.42-.14-.59-.09-.17-.22-.31-.38-.41-.16-.1-.36-.15-.58-.15-.24,0-.45.06-.62.17-.18.12-.31.27-.41.45s-.14.39-.14.61v.5c0,.29.05.54.15.74.1.2.25.36.43.47.19.11.4.16.65.16.16,0,.31-.02.44-.07.13-.05.25-.12.34-.21s.17-.21.22-.34l.8.14c-.06.24-.18.44-.34.62-.17.18-.37.31-.62.41s-.53.15-.85.15Z"/><path class="cls-4" d="M241.72,3.23v2.59h-.85V1.46h.82v.71h.05c.1-.23.26-.42.47-.56.21-.14.49-.21.81-.21.3,0,.56.06.78.19s.4.31.52.55.18.55.18.91v2.78h-.85v-2.67c0-.32-.08-.56-.25-.74-.16-.18-.39-.27-.68-.27-.2,0-.37.04-.52.13s-.27.21-.36.37c-.09.16-.13.36-.13.59Z"/><path class="cls-4" d="M247.68,1.46v.68h-2.38v-.68h2.38ZM245.94.41h.85v4.13c0,.17.02.29.07.37.05.08.11.14.19.17.08.03.16.04.26.04.07,0,.13,0,.18-.01.05,0,.09-.02.12-.02l.15.7s-.12.04-.21.06c-.09.02-.21.03-.34.03-.22,0-.43-.04-.62-.12-.19-.08-.35-.21-.47-.39-.12-.17-.18-.39-.18-.66V.41Z"/><path class="cls-4" d="M250.81,0h1.06l1.85,4.52h.07l1.85-4.52h1.07v5.82h-.84V1.61h-.05l-1.72,4.2h-.69l-1.72-4.2h-.05v4.21h-.83V0Z"/><path class="cls-4" d="M259.8,5.91c-.43,0-.8-.09-1.11-.28-.31-.19-.55-.45-.72-.78-.17-.34-.25-.73-.25-1.18s.08-.84.25-1.18c.17-.34.4-.61.71-.8s.66-.29,1.06-.29c.25,0,.49.04.72.12.23.08.44.21.62.38.18.17.33.4.43.68.11.28.16.61.16,1.01v.3h-3.47v-.64h2.64c0-.22-.04-.42-.14-.59-.09-.17-.22-.31-.38-.41-.16-.1-.36-.15-.58-.15-.24,0-.45.06-.62.17-.18.12-.31.27-.41.45s-.14.39-.14.61v.5c0,.29.05.54.15.74.1.2.25.36.43.47.19.11.4.16.65.16.16,0,.31-.02.44-.07.13-.05.25-.12.34-.21s.17-.21.22-.34l.8.14c-.06.24-.18.44-.34.62-.17.18-.37.31-.62.41s-.53.15-.85.15Z"/><path class="cls-4" d="M264.66,1.46v.68h-2.38v-.68h2.38ZM262.91.41h.85v4.13c0,.17.02.29.07.37.05.08.11.14.19.17.08.03.16.04.26.04.07,0,.13,0,.18-.01.05,0,.09-.02.12-.02l.15.7s-.12.04-.21.06c-.09.02-.21.03-.34.03-.22,0-.43-.04-.62-.12-.19-.08-.35-.21-.47-.39-.12-.17-.18-.39-.18-.66V.41Z"/><path class="cls-4" d="M266.54,3.23v2.59h-.85V0h.84v2.17h.05c.1-.24.26-.42.47-.56.21-.14.49-.21.82-.21.3,0,.56.06.79.19.22.12.4.31.52.55.12.24.19.55.19.91v2.78h-.85v-2.67c0-.32-.08-.57-.25-.75s-.39-.27-.69-.27c-.2,0-.38.04-.54.13s-.28.21-.37.37c-.09.16-.13.36-.13.59Z"/><path class="cls-4" d="M272.34,5.91c-.41,0-.77-.09-1.07-.28s-.54-.45-.71-.79c-.17-.34-.25-.73-.25-1.18s.08-.85.25-1.19.41-.6.71-.79.66-.28,1.07-.28.77.09,1.07.28c.3.19.54.45.71.79s.25.74.25,1.19-.08.84-.25,1.18c-.17.34-.41.6-.71.79-.31.19-.66.28-1.07.28ZM272.34,5.19c.26,0,.48-.07.66-.21.17-.14.3-.33.39-.56.08-.23.13-.49.13-.77s-.04-.53-.13-.77c-.08-.23-.21-.42-.39-.56-.17-.14-.39-.21-.66-.21s-.49.07-.66.21c-.18.14-.31.33-.39.56-.08.23-.13.49-.13.77s.04.54.13.77c.08.23.21.42.39.56.17.14.4.21.66.21Z"/><path class="cls-4" d="M276.95,5.9c-.35,0-.67-.09-.94-.27-.28-.18-.49-.44-.65-.78-.16-.34-.23-.74-.23-1.21s.08-.88.24-1.21c.16-.33.38-.59.65-.77.28-.18.59-.27.94-.27.27,0,.49.05.66.14s.29.19.39.31c.09.12.16.22.21.32h.05V0h.85v5.82h-.83v-.68h-.07c-.05.09-.12.2-.22.32-.1.12-.23.22-.39.31-.17.09-.38.13-.65.13ZM277.14,5.18c.25,0,.45-.06.62-.19.17-.13.3-.31.39-.54s.13-.5.13-.81-.04-.57-.13-.8c-.09-.23-.21-.4-.38-.53-.17-.13-.38-.19-.62-.19s-.47.07-.64.2c-.17.13-.3.31-.38.54-.09.23-.13.49-.13.78s.04.55.13.79c.09.23.22.42.39.55.17.14.38.2.63.2Z"/><path class="cls-4" d="M283.59,2.52l-.77.14c-.03-.1-.08-.19-.15-.28s-.16-.16-.28-.22c-.12-.06-.26-.08-.44-.08-.24,0-.44.05-.6.16-.16.11-.24.25-.24.41,0,.15.05.26.16.35.11.09.28.16.52.22l.69.16c.4.09.7.24.9.43.2.19.29.44.29.75,0,.26-.08.49-.23.7-.15.2-.36.36-.63.48-.27.12-.58.17-.93.17-.49,0-.89-.1-1.2-.31-.31-.21-.5-.51-.57-.89l.82-.12c.05.21.16.38.32.48.16.11.37.16.62.16.28,0,.5-.06.67-.17.17-.12.25-.26.25-.43,0-.14-.05-.25-.15-.34-.1-.09-.26-.16-.46-.21l-.74-.16c-.41-.09-.71-.24-.9-.44-.19-.2-.29-.46-.29-.77,0-.26.07-.48.22-.68s.34-.34.6-.45c.25-.11.54-.16.87-.16.47,0,.84.1,1.11.31.27.2.45.48.54.82Z"/><path class="cls-4" d="M287.29,5.82h-.93l2.09-5.82h1.01l2.09,5.82h-.93l-1.64-4.76h-.05l-1.65,4.76ZM287.45,3.54h3.02v.74h-3.02v-.74Z"/><path class="cls-4" d="M292.73,5.82l-1.28-4.36h.88l.86,3.2h.04l.86-3.2h.88l.85,3.19h.04l.85-3.19h.88l-1.28,4.36h-.87l-.89-3.15h-.07l-.89,3.15h-.86Z"/><path class="cls-4" d="M299.65,5.92c-.28,0-.53-.05-.75-.16-.22-.1-.4-.25-.53-.45-.13-.2-.2-.44-.2-.72,0-.25.05-.45.14-.61s.22-.29.38-.38c.16-.09.34-.16.54-.21.2-.05.4-.08.61-.11.26-.03.47-.06.64-.08.16-.02.28-.05.36-.1.07-.05.11-.12.11-.22v-.02c0-.25-.07-.44-.21-.58-.14-.14-.35-.21-.62-.21s-.51.06-.67.19-.28.27-.34.42l-.8-.18c.09-.27.23-.48.42-.64s.39-.28.63-.36c.24-.07.49-.11.75-.11.17,0,.36.02.56.06s.38.12.55.22c.17.11.31.26.42.46.11.2.17.46.17.78v2.9h-.83v-.6h-.03c-.05.11-.14.22-.25.32-.11.11-.25.19-.42.26-.17.07-.38.11-.62.11ZM299.84,5.23c.24,0,.44-.05.6-.14.17-.09.3-.21.38-.37.09-.15.13-.31.13-.48v-.56s-.09.06-.17.08c-.09.03-.18.05-.29.07-.11.02-.22.03-.32.05-.1.01-.19.03-.26.04-.17.02-.31.06-.45.11-.14.05-.24.12-.32.21-.08.09-.12.21-.12.37,0,.21.08.37.23.48.16.11.35.16.59.16Z"/><path class="cls-4" d="M302.94,5.82V1.46h.82v.69h.05c.08-.23.22-.42.42-.55.2-.14.43-.2.69-.2.05,0,.12,0,.19,0,.07,0,.13,0,.17.01v.81s-.09-.02-.18-.03c-.09-.01-.17-.02-.26-.02-.2,0-.38.04-.54.13s-.28.2-.37.35-.14.32-.14.51v2.67h-.85Z"/><path class="cls-4" d="M307.49,5.9c-.35,0-.67-.09-.94-.27-.28-.18-.49-.44-.65-.78-.16-.34-.23-.74-.23-1.21s.08-.88.24-1.21c.16-.33.38-.59.65-.77.28-.18.59-.27.94-.27.27,0,.49.05.66.14s.29.19.39.31c.09.12.16.22.21.32h.05V0h.85v5.82h-.83v-.68h-.07c-.05.09-.12.2-.22.32-.1.12-.23.22-.39.31-.17.09-.38.13-.65.13ZM307.67,5.18c.25,0,.45-.06.62-.19.17-.13.3-.31.39-.54s.13-.5.13-.81-.04-.57-.13-.8c-.09-.23-.21-.4-.38-.53-.17-.13-.38-.19-.62-.19s-.47.07-.64.2c-.17.13-.3.31-.38.54-.09.23-.13.49-.13.78s.04.55.13.79c.09.23.22.42.39.55.17.14.38.2.63.2Z"/><path class="cls-3" d="M253.08,10.09v-.36h3.16v.36h-1.38v4.01h-.4v-4.01h-1.38Z"/><path class="cls-3" d="M256.72,14.09v-3.27h.37v.5h.03c.06-.17.18-.3.34-.4.16-.1.35-.15.55-.15.03,0,.07,0,.1,0,.04,0,.07,0,.1,0v.39s-.05,0-.09-.01c-.04,0-.09,0-.14,0-.17,0-.32.04-.46.11-.13.07-.24.17-.31.3-.08.13-.12.27-.12.43v2.11h-.38Z"/><path class="cls-3" d="M260.03,14.16c-.28,0-.53-.07-.75-.22-.22-.14-.39-.34-.51-.59-.12-.25-.18-.55-.18-.88s.06-.63.18-.89.29-.45.51-.6c.22-.14.47-.21.75-.21s.53.07.75.21.39.34.51.6c.12.25.18.55.18.88s-.06.62-.18.88c-.12.25-.29.45-.51.59-.22.14-.47.22-.75.22ZM260.03,13.82c.23,0,.42-.06.58-.18.16-.12.28-.29.36-.49.08-.2.12-.43.12-.67s-.04-.47-.12-.67c-.08-.2-.2-.37-.36-.49-.16-.12-.35-.19-.58-.19s-.42.06-.58.19c-.16.12-.28.29-.36.49-.08.21-.12.43-.12.67s.04.47.12.67c.08.2.2.37.36.49.16.12.35.18.58.18Z"/><path class="cls-3" d="M262.3,15.32v-4.5h.37v.62h.04c.05-.1.11-.2.19-.3.08-.1.18-.19.32-.26s.3-.11.5-.11c.27,0,.51.07.71.21s.36.34.47.59c.11.25.17.55.17.88s-.06.63-.17.89c-.11.25-.27.45-.47.59-.2.14-.44.21-.7.21-.2,0-.36-.04-.5-.11-.13-.07-.24-.16-.32-.26s-.14-.21-.19-.31h-.03v1.83h-.38ZM262.68,12.46c0,.26.04.5.12.7.08.2.19.36.34.48.15.12.33.17.54.17s.4-.06.55-.18.26-.28.34-.49c.08-.2.12-.43.12-.69s-.04-.48-.12-.68c-.08-.2-.19-.36-.34-.48-.15-.12-.33-.18-.55-.18s-.39.06-.54.17c-.15.11-.26.27-.34.47-.08.2-.12.43-.12.69Z"/><path class="cls-3" d="M266.28,12.05v2.05h-.38v-4.36h.38v1.6h.03c.08-.17.2-.3.36-.41.16-.1.37-.15.61-.15.22,0,.42.05.58.14.17.09.3.22.39.4s.14.4.14.66v2.12h-.38v-2.1c0-.27-.07-.48-.22-.64-.15-.16-.35-.23-.61-.23-.17,0-.33.04-.47.11-.14.07-.24.18-.32.32-.08.14-.12.3-.12.49Z"/><path class="cls-3" d="M269.55,15.32c-.08,0-.15,0-.21-.02-.07-.01-.12-.03-.16-.05l.1-.33c.13.04.24.05.34.04s.19-.06.27-.14c.08-.08.15-.2.21-.37l.12-.33-1.2-3.3h.41l.97,2.77h.03l.97-2.77h.41l-1.38,3.79c-.06.16-.13.29-.22.4-.08.11-.18.18-.29.24s-.24.08-.37.08Z"/><polyline class="cls-2" points="209.86 39.17 193.39 39.17 193.39 64.84"/><path class="cls-4" d="M193.39,64.64c.52-.52,1.56-.77,2.27-.79-.96.72-1.8,1.65-2.27,2.77-.45-1.13-1.34-2.02-2.27-2.77.77.06,1.7.25,2.27.79Z"/><polyline class="cls-2" points="210.24 3.26 159.95 3.26 159.95 39.85"/><path class="cls-4" d="M159.95,39.65c.52-.52,1.56-.77,2.27-.79-.96.72-1.8,1.65-2.27,2.77-.45-1.13-1.34-2.02-2.27-2.77.77.06,1.7.25,2.27.79Z"/><path class="cls-4" d="M0,168.14v-5.82h2.13c.41,0,.75.07,1.03.2.27.14.47.32.61.55.13.23.2.49.2.78,0,.24-.04.45-.13.61-.09.17-.21.3-.36.4-.15.1-.31.17-.49.22v.06c.19,0,.38.07.57.19.18.11.34.28.46.49.12.21.18.47.18.77s-.07.56-.21.8-.35.42-.64.56-.66.21-1.11.21H0ZM.88,164.84h1.18c.2,0,.38-.04.53-.11.16-.08.28-.18.38-.32s.14-.3.14-.49c0-.24-.08-.44-.25-.61-.17-.16-.43-.24-.78-.24H.88v1.77ZM.88,167.39h1.27c.42,0,.72-.08.9-.24s.27-.37.27-.61c0-.18-.05-.35-.14-.5s-.22-.28-.4-.37c-.17-.09-.37-.14-.61-.14H.88v1.86Z"/><path class="cls-4" d="M7.93,166.33v-2.55h.85v4.36h-.83v-.76h-.05c-.1.23-.26.43-.48.58s-.5.23-.82.23c-.28,0-.53-.06-.74-.19s-.38-.31-.51-.55-.18-.55-.18-.91v-2.78h.85v2.67c0,.3.08.53.25.71.16.18.38.26.64.26.16,0,.32-.04.48-.12.16-.08.29-.2.4-.36.1-.16.16-.37.15-.61Z"/><path class="cls-4" d="M13.19,164.84l-.77.14c-.03-.1-.08-.19-.15-.28s-.16-.16-.28-.22c-.12-.06-.26-.08-.44-.08-.24,0-.44.05-.6.16-.16.11-.24.25-.24.41,0,.15.05.26.16.35.11.09.28.16.52.22l.69.16c.4.09.7.24.9.43.2.19.29.44.29.75,0,.26-.08.49-.23.7-.15.2-.36.36-.63.48-.27.12-.58.17-.93.17-.49,0-.89-.1-1.2-.31-.31-.21-.5-.51-.57-.89l.82-.12c.05.21.16.38.32.48.16.11.37.16.62.16.28,0,.5-.06.67-.17.17-.12.25-.26.25-.43,0-.14-.05-.25-.15-.34-.1-.09-.26-.16-.46-.21l-.74-.16c-.41-.09-.71-.24-.9-.44-.19-.2-.29-.46-.29-.77,0-.26.07-.48.22-.68s.34-.34.6-.45c.25-.11.54-.16.87-.16.47,0,.84.1,1.11.31.27.2.45.48.54.82Z"/><path class="cls-4" d="M17.48,164.84l-.77.14c-.03-.1-.08-.19-.15-.28s-.16-.16-.28-.22c-.12-.06-.26-.08-.44-.08-.24,0-.44.05-.6.16-.16.11-.24.25-.24.41,0,.15.05.26.16.35.11.09.28.16.52.22l.69.16c.4.09.7.24.9.43.2.19.29.44.29.75,0,.26-.08.49-.23.7-.15.2-.36.36-.63.48-.27.12-.58.17-.93.17-.49,0-.89-.1-1.2-.31-.31-.21-.5-.51-.57-.89l.82-.12c.05.21.16.38.32.48.16.11.37.16.62.16.28,0,.5-.06.67-.17.17-.12.25-.26.25-.43,0-.14-.05-.25-.15-.34-.1-.09-.26-.16-.46-.21l-.74-.16c-.41-.09-.71-.24-.9-.44-.19-.2-.29-.46-.29-.77,0-.26.07-.48.22-.68s.34-.34.6-.45c.25-.11.54-.16.87-.16.47,0,.84.1,1.11.31.27.2.45.48.54.82Z"/><path class="cls-4" d="M18.92,163.11c-.15,0-.27-.05-.38-.15-.11-.1-.16-.22-.16-.36s.05-.26.16-.36c.1-.1.23-.15.38-.15s.27.05.38.15c.11.1.16.22.16.36s-.05.26-.16.36c-.1.1-.23.15-.38.15ZM18.49,168.14v-4.36h.85v4.36h-.85Z"/><path class="cls-4" d="M21.33,165.55v2.59h-.85v-4.36h.82v.71h.05c.1-.23.26-.42.47-.56.21-.14.49-.21.81-.21.3,0,.56.06.78.19s.4.31.52.55.18.55.18.91v2.78h-.85v-2.67c0-.32-.08-.56-.25-.74-.16-.18-.39-.27-.68-.27-.2,0-.37.04-.52.13s-.27.21-.36.37c-.09.16-.13.36-.13.59Z"/><path class="cls-4" d="M27.15,168.23c-.43,0-.8-.09-1.11-.28-.31-.19-.55-.45-.72-.78-.17-.34-.25-.73-.25-1.18s.08-.84.25-1.18c.17-.34.4-.61.71-.8s.66-.29,1.06-.29c.25,0,.49.04.72.12.23.08.44.21.62.38.18.17.33.4.43.68.11.28.16.61.16,1.01v.3h-3.47v-.64h2.64c0-.22-.04-.42-.14-.59-.09-.17-.22-.31-.38-.41-.16-.1-.36-.15-.58-.15-.24,0-.45.06-.62.17-.18.12-.31.27-.41.45s-.14.39-.14.61v.5c0,.29.05.54.15.74.1.2.25.36.43.47.19.11.4.16.65.16.16,0,.31-.02.44-.07.13-.05.25-.12.34-.21s.17-.21.22-.34l.8.14c-.06.24-.18.44-.34.62-.17.18-.37.31-.62.41s-.53.15-.85.15Z"/><path class="cls-4" d="M33.23,164.84l-.77.14c-.03-.1-.08-.19-.15-.28s-.16-.16-.28-.22c-.12-.06-.26-.08-.44-.08-.24,0-.44.05-.6.16-.16.11-.24.25-.24.41,0,.15.05.26.16.35.11.09.28.16.52.22l.69.16c.4.09.7.24.9.43.2.19.29.44.29.75,0,.26-.08.49-.23.7-.15.2-.36.36-.63.48-.27.12-.58.17-.93.17-.49,0-.89-.1-1.2-.31-.31-.21-.5-.51-.57-.89l.82-.12c.05.21.16.38.32.48.16.11.37.16.62.16.28,0,.5-.06.67-.17.17-.12.25-.26.25-.43,0-.14-.05-.25-.15-.34-.1-.09-.26-.16-.46-.21l-.74-.16c-.41-.09-.71-.24-.9-.44-.19-.2-.29-.46-.29-.77,0-.26.07-.48.22-.68s.34-.34.6-.45c.25-.11.54-.16.87-.16.47,0,.84.1,1.11.31.27.2.45.48.54.82Z"/><path class="cls-4" d="M37.52,164.84l-.77.14c-.03-.1-.08-.19-.15-.28s-.16-.16-.28-.22c-.12-.06-.26-.08-.44-.08-.24,0-.44.05-.6.16-.16.11-.24.25-.24.41,0,.15.05.26.16.35.11.09.28.16.52.22l.69.16c.4.09.7.24.9.43.2.19.29.44.29.75,0,.26-.08.49-.23.7-.15.2-.36.36-.63.48-.27.12-.58.17-.93.17-.49,0-.89-.1-1.2-.31-.31-.21-.5-.51-.57-.89l.82-.12c.05.21.16.38.32.48.16.11.37.16.62.16.28,0,.5-.06.67-.17.17-.12.25-.26.25-.43,0-.14-.05-.25-.15-.34-.1-.09-.26-.16-.46-.21l-.74-.16c-.41-.09-.71-.24-.9-.44-.19-.2-.29-.46-.29-.77,0-.26.07-.48.22-.68s.34-.34.6-.45c.25-.11.54-.16.87-.16.47,0,.84.1,1.11.31.27.2.45.48.54.82Z"/><path class="cls-4" d="M45.56,164.22h-.89c-.03-.19-.1-.36-.19-.5-.09-.14-.21-.27-.34-.37-.13-.1-.28-.18-.45-.23-.17-.05-.34-.08-.53-.08-.34,0-.64.08-.9.25-.26.17-.47.42-.62.74-.15.33-.23.72-.23,1.19s.08.87.23,1.2c.15.33.36.57.63.74.27.17.56.25.9.25.18,0,.36-.03.52-.08.17-.05.32-.12.45-.22.13-.1.25-.22.34-.36.09-.14.16-.31.19-.49h.89c-.05.29-.14.55-.27.79-.13.24-.31.45-.52.62-.21.17-.45.31-.72.4-.27.09-.57.14-.89.14-.5,0-.95-.12-1.35-.36-.39-.24-.7-.58-.93-1.03s-.34-.98-.34-1.6.11-1.15.34-1.6c.23-.45.54-.79.93-1.03.39-.24.84-.36,1.34-.36.31,0,.6.04.87.13.27.09.51.22.72.39.21.17.39.38.53.62s.23.52.28.83Z"/><path class="cls-4" d="M46.54,168.14v-4.36h.82v.69h.05c.08-.23.22-.42.42-.55.2-.14.43-.2.69-.2.05,0,.12,0,.19,0,.07,0,.13,0,.17.01v.81s-.09-.02-.18-.03c-.09-.01-.17-.02-.26-.02-.2,0-.38.04-.54.13s-.28.2-.37.35-.14.32-.14.51v2.67h-.85Z"/><path class="cls-4" d="M51.33,168.23c-.43,0-.8-.09-1.11-.28-.31-.19-.55-.45-.72-.78-.17-.34-.25-.73-.25-1.18s.08-.84.25-1.18c.17-.34.4-.61.71-.8s.66-.29,1.06-.29c.25,0,.49.04.72.12.23.08.44.21.62.38.18.17.33.4.43.68.11.28.16.61.16,1.01v.3h-3.47v-.64h2.64c0-.22-.04-.42-.14-.59-.09-.17-.22-.31-.38-.41-.16-.1-.36-.15-.58-.15-.24,0-.45.06-.62.17-.18.12-.31.27-.41.45s-.14.39-.14.61v.5c0,.29.05.54.15.74.1.2.25.36.43.47.19.11.4.16.65.16.16,0,.31-.02.44-.07.13-.05.25-.12.34-.21s.17-.21.22-.34l.8.14c-.06.24-.18.44-.34.62-.17.18-.37.31-.62.41s-.53.15-.85.15Z"/><path class="cls-4" d="M55.42,168.24c-.28,0-.53-.05-.75-.16-.22-.1-.4-.25-.53-.45-.13-.2-.2-.44-.2-.72,0-.25.05-.45.14-.61s.22-.29.38-.38c.16-.09.34-.16.54-.21.2-.05.4-.08.61-.11.26-.03.47-.06.64-.08.16-.02.28-.05.36-.1.07-.05.11-.12.11-.22v-.02c0-.25-.07-.44-.21-.58-.14-.14-.35-.21-.62-.21s-.51.06-.67.19-.28.27-.34.42l-.8-.18c.09-.27.23-.48.42-.64s.39-.28.63-.36c.24-.07.49-.11.75-.11.17,0,.36.02.56.06s.38.12.55.22c.17.11.31.26.42.46.11.2.17.46.17.78v2.9h-.83v-.6h-.03c-.05.11-.14.22-.25.32-.11.11-.25.19-.42.26-.17.07-.38.11-.62.11ZM55.61,167.56c.24,0,.44-.05.6-.14.17-.09.3-.21.38-.37.09-.15.13-.31.13-.48v-.56s-.09.06-.17.08c-.09.03-.18.05-.29.07-.11.02-.22.03-.32.05-.1.01-.19.03-.26.04-.17.02-.31.06-.45.11-.14.05-.24.12-.32.21-.08.09-.12.21-.12.37,0,.21.08.37.23.48.16.11.35.16.59.16Z"/><path class="cls-4" d="M60.74,163.78v.68h-2.38v-.68h2.38ZM59,162.73h.85v4.13c0,.17.02.29.07.37.05.08.11.14.19.17.08.03.16.04.26.04.07,0,.13,0,.18-.01.05,0,.09-.02.12-.02l.15.7s-.12.04-.21.06c-.09.02-.21.03-.34.03-.22,0-.43-.04-.62-.12-.19-.08-.35-.21-.47-.39-.12-.17-.18-.39-.18-.66v-4.3Z"/><path class="cls-4" d="M62.11,163.11c-.15,0-.27-.05-.38-.15-.11-.1-.16-.22-.16-.36s.05-.26.16-.36c.1-.1.23-.15.38-.15s.27.05.38.15c.11.1.16.22.16.36s-.05.26-.16.36c-.1.1-.23.15-.38.15ZM61.68,168.14v-4.36h.85v4.36h-.85Z"/><path class="cls-4" d="M65.51,168.23c-.41,0-.77-.09-1.07-.28s-.54-.45-.71-.79c-.17-.34-.25-.73-.25-1.18s.08-.85.25-1.19.41-.6.71-.79.66-.28,1.07-.28.77.09,1.07.28c.3.19.54.45.71.79s.25.74.25,1.19-.08.84-.25,1.18c-.17.34-.41.6-.71.79-.31.19-.66.28-1.07.28ZM65.51,167.52c.26,0,.48-.07.66-.21.17-.14.3-.33.39-.56.08-.23.13-.49.13-.77s-.04-.53-.13-.77c-.08-.23-.21-.42-.39-.56-.17-.14-.39-.21-.66-.21s-.49.07-.66.21c-.18.14-.31.33-.39.56-.08.23-.13.49-.13.77s.04.54.13.77c.08.23.21.42.39.56.17.14.4.21.66.21Z"/><path class="cls-4" d="M69.34,165.55v2.59h-.85v-4.36h.82v.71h.05c.1-.23.26-.42.47-.56.21-.14.49-.21.81-.21.3,0,.56.06.78.19s.4.31.52.55.18.55.18.91v2.78h-.85v-2.67c0-.32-.08-.56-.25-.74-.16-.18-.39-.27-.68-.27-.2,0-.37.04-.52.13s-.27.21-.36.37c-.09.16-.13.36-.13.59Z"/><path class="cls-4" d="M25.1,177.74h-.93l2.09-5.82h1.01l2.09,5.82h-.93l-1.64-4.76h-.05l-1.65,4.76ZM25.25,175.46h3.02v.74h-3.02v-.74Z"/><path class="cls-4" d="M30.54,177.74l-1.28-4.36h.88l.86,3.2h.04l.86-3.2h.88l.85,3.19h.04l.85-3.19h.88l-1.28,4.36h-.87l-.89-3.15h-.07l-.89,3.15h-.86Z"/><path class="cls-4" d="M37.46,177.84c-.28,0-.53-.05-.75-.16-.22-.1-.4-.25-.53-.45-.13-.2-.2-.44-.2-.72,0-.25.05-.45.14-.61s.22-.29.38-.38c.16-.09.34-.16.54-.21.2-.05.4-.08.61-.11.26-.03.47-.06.64-.08.16-.02.28-.05.36-.1.07-.05.11-.12.11-.22v-.02c0-.25-.07-.44-.21-.58-.14-.14-.35-.21-.62-.21s-.51.06-.67.19-.28.27-.34.42l-.8-.18c.09-.27.23-.48.42-.64s.39-.28.63-.36c.24-.07.49-.11.75-.11.17,0,.36.02.56.06s.38.12.55.22c.17.11.31.26.42.46.11.2.17.46.17.78v2.9h-.83v-.6h-.03c-.05.11-.14.22-.25.32-.11.11-.25.19-.42.26-.17.07-.38.11-.62.11ZM37.64,177.16c.24,0,.44-.05.6-.14.17-.09.3-.21.38-.37.09-.15.13-.31.13-.48v-.56s-.09.06-.17.08c-.09.03-.18.05-.29.07-.11.02-.22.03-.32.05-.1.01-.19.03-.26.04-.17.02-.31.06-.45.11-.14.05-.24.12-.32.21-.08.09-.12.21-.12.37,0,.21.08.37.23.48.16.11.35.16.59.16Z"/><path class="cls-4" d="M40.74,177.74v-4.36h.82v.69h.05c.08-.23.22-.42.42-.55.2-.14.43-.2.69-.2.05,0,.12,0,.19,0,.07,0,.13,0,.17.01v.81s-.09-.02-.18-.03c-.09-.01-.17-.02-.26-.02-.2,0-.38.04-.54.13s-.28.2-.37.35-.14.32-.14.51v2.67h-.85Z"/><path class="cls-4" d="M45.29,177.83c-.35,0-.67-.09-.94-.27-.28-.18-.49-.44-.65-.78-.16-.34-.23-.74-.23-1.21s.08-.88.24-1.21c.16-.33.38-.59.65-.77.28-.18.59-.27.94-.27.27,0,.49.05.66.14s.29.19.39.31c.09.12.16.22.21.32h.05v-2.16h.85v5.82h-.83v-.68h-.07c-.05.09-.12.2-.22.32-.1.12-.23.22-.39.31-.17.09-.38.13-.65.13ZM45.48,177.1c.25,0,.45-.06.62-.19.17-.13.3-.31.39-.54s.13-.5.13-.81-.04-.57-.13-.8c-.09-.23-.21-.4-.38-.53-.17-.13-.38-.19-.62-.19s-.47.07-.64.2c-.17.13-.3.31-.38.54-.09.23-.13.49-.13.78s.04.55.13.79c.09.23.22.42.39.55.17.14.38.2.63.2Z"/><path class="cls-3" d="M26.7,182.96v-.36h3.16v.36h-1.38v4.01h-.4v-4.01h-1.38Z"/><path class="cls-3" d="M30.34,186.97v-3.27h.37v.5h.03c.06-.17.18-.3.34-.4.16-.1.35-.15.55-.15.03,0,.07,0,.1,0,.04,0,.07,0,.1,0v.39s-.05,0-.09-.01c-.04,0-.09,0-.14,0-.17,0-.32.04-.46.11-.13.07-.24.17-.31.3-.08.13-.12.27-.12.43v2.11h-.38Z"/><path class="cls-3" d="M33.65,187.04c-.28,0-.53-.07-.75-.22-.22-.14-.39-.34-.51-.59-.12-.25-.18-.55-.18-.88s.06-.63.18-.89.29-.45.51-.6c.22-.14.47-.21.75-.21s.53.07.75.21.39.34.51.6c.12.25.18.55.18.88s-.06.62-.18.88c-.12.25-.29.45-.51.59-.22.14-.47.22-.75.22ZM33.65,186.69c.23,0,.42-.06.58-.18.16-.12.28-.29.36-.49.08-.2.12-.43.12-.67s-.04-.47-.12-.67c-.08-.2-.2-.37-.36-.49-.16-.12-.35-.19-.58-.19s-.42.06-.58.19c-.16.12-.28.29-.36.49-.08.21-.12.43-.12.67s.04.47.12.67c.08.2.2.37.36.49.16.12.35.18.58.18Z"/><path class="cls-3" d="M35.92,188.2v-4.5h.37v.62h.04c.05-.1.11-.2.19-.3.08-.1.18-.19.32-.26s.3-.11.5-.11c.27,0,.51.07.71.21s.36.34.47.59c.11.25.17.55.17.88s-.06.63-.17.89c-.11.25-.27.45-.47.59-.2.14-.44.21-.7.21-.2,0-.36-.04-.5-.11-.13-.07-.24-.16-.32-.26s-.14-.21-.19-.31h-.03v1.83h-.38ZM36.3,185.34c0,.26.04.5.12.7.08.2.19.36.34.48.15.12.33.17.54.17s.4-.06.55-.18.26-.28.34-.49c.08-.2.12-.43.12-.69s-.04-.48-.12-.68c-.08-.2-.19-.36-.34-.48-.15-.12-.33-.18-.55-.18s-.39.06-.54.17c-.15.11-.26.27-.34.47-.08.2-.12.43-.12.69Z"/><path class="cls-3" d="M39.9,184.92v2.05h-.38v-4.36h.38v1.6h.03c.08-.17.2-.3.36-.41.16-.1.37-.15.61-.15.22,0,.42.05.58.14.17.09.3.22.39.4s.14.4.14.66v2.12h-.38v-2.1c0-.27-.07-.48-.22-.64-.15-.16-.35-.23-.61-.23-.17,0-.33.04-.47.11-.14.07-.24.18-.32.32-.08.14-.12.3-.12.49Z"/><path class="cls-3" d="M43.17,188.2c-.08,0-.15,0-.21-.02-.07-.01-.12-.03-.16-.05l.1-.33c.13.04.24.05.34.04s.19-.06.27-.14c.08-.08.15-.2.21-.37l.12-.33-1.2-3.3h.41l.97,2.77h.03l.97-2.77h.41l-1.38,3.79c-.06.16-.13.29-.22.4-.08.11-.18.18-.29.24s-.24.08-.37.08Z"/><path class="cls-4" d="M.04,200.77h1.07l1.85,4.52h.07l1.85-4.52h1.07v5.82h-.83v-4.21h-.05l-1.72,4.2h-.69l-1.72-4.2h-.05v4.21H.04v-5.82Z"/><path class="cls-4" d="M9.91,204.77v-2.55h.85v4.36h-.84v-.76h-.04c-.1.23-.26.43-.48.58s-.5.23-.82.23c-.28,0-.53-.06-.74-.19s-.38-.31-.51-.55-.18-.55-.18-.91v-2.78h.85v2.67c0,.3.08.53.25.71.17.18.38.26.64.26.16,0,.32-.04.48-.12.16-.08.29-.2.39-.36.11-.16.16-.37.16-.61Z"/><path class="cls-4" d="M15.18,203.29l-.77.14c-.03-.1-.08-.19-.15-.28s-.16-.16-.28-.22c-.12-.06-.26-.08-.44-.08-.24,0-.44.05-.6.16-.16.11-.24.25-.24.41,0,.15.05.26.16.35.11.09.28.16.52.22l.69.16c.4.09.7.24.9.43.2.19.29.44.29.75,0,.26-.08.49-.23.7-.15.2-.36.36-.63.48-.27.12-.58.17-.93.17-.49,0-.89-.1-1.2-.31-.31-.21-.5-.51-.57-.89l.82-.12c.05.21.16.38.32.48.16.11.37.16.62.16.28,0,.5-.06.67-.17s.25-.26.25-.43c0-.14-.05-.25-.15-.34-.1-.09-.26-.16-.46-.21l-.74-.16c-.41-.09-.71-.24-.9-.44-.19-.2-.29-.46-.29-.77,0-.26.07-.48.22-.68.14-.19.34-.34.6-.45.25-.11.54-.16.87-.16.47,0,.84.1,1.11.31.27.2.45.48.54.82Z"/><path class="cls-4" d="M16.62,201.55c-.15,0-.27-.05-.38-.15-.11-.1-.16-.22-.16-.36s.05-.26.16-.36c.11-.1.23-.15.38-.15s.28.05.38.15c.11.1.16.22.16.36s-.05.26-.16.36c-.1.1-.23.15-.38.15ZM16.19,206.58v-4.36h.85v4.36h-.85Z"/><path class="cls-4" d="M20.02,206.67c-.42,0-.79-.1-1.09-.29-.3-.19-.54-.46-.7-.8s-.24-.73-.24-1.17.08-.83.25-1.17.4-.61.7-.8c.3-.19.66-.29,1.07-.29.33,0,.63.06.89.18s.47.29.63.51.26.48.29.77h-.83c-.05-.21-.15-.38-.31-.53-.16-.15-.38-.22-.65-.22-.24,0-.44.06-.62.19s-.31.3-.41.53-.15.5-.15.81.05.59.14.82c.1.23.23.41.41.54.18.13.39.19.63.19.16,0,.31-.03.44-.09.13-.06.24-.15.33-.26.09-.11.15-.25.19-.4h.83c-.03.28-.12.53-.28.76s-.36.4-.61.52c-.26.13-.56.19-.9.19Z"/><path class="cls-4" d="M29.75,202.66h-.89c-.03-.19-.1-.36-.19-.5-.09-.14-.21-.27-.34-.37-.13-.1-.28-.18-.45-.23-.17-.05-.34-.08-.53-.08-.34,0-.64.08-.9.25-.26.17-.47.42-.62.74-.15.33-.23.72-.23,1.19s.08.87.23,1.2c.15.33.36.57.63.74.27.17.56.25.9.25.18,0,.36-.03.52-.08.17-.05.32-.12.45-.22.13-.1.25-.22.34-.36.09-.14.16-.31.19-.49h.89c-.05.29-.14.55-.27.79-.13.24-.31.45-.52.62-.21.17-.45.31-.72.4-.27.09-.57.14-.89.14-.5,0-.95-.12-1.35-.36-.39-.24-.7-.58-.93-1.03s-.34-.98-.34-1.6.11-1.15.34-1.6c.23-.45.54-.79.93-1.03.39-.24.84-.36,1.34-.36.31,0,.6.04.87.13.27.09.51.22.72.39.21.17.39.38.53.62s.23.52.28.83Z"/><path class="cls-4" d="M32.57,206.67c-.41,0-.77-.09-1.07-.28s-.54-.45-.71-.79c-.17-.34-.25-.73-.25-1.18s.08-.85.25-1.19.41-.6.71-.79.66-.28,1.07-.28.77.09,1.07.28c.3.19.54.45.71.79s.25.74.25,1.19-.08.84-.25,1.18c-.17.34-.41.6-.71.79-.31.19-.66.28-1.07.28ZM32.57,205.96c.26,0,.48-.07.66-.21.17-.14.3-.33.39-.56.08-.23.13-.49.13-.77s-.04-.53-.13-.77c-.08-.23-.21-.42-.39-.56-.17-.14-.39-.21-.66-.21s-.49.07-.66.21c-.18.14-.31.33-.39.56-.08.23-.13.49-.13.77s.04.54.13.77c.08.23.21.42.39.56.17.14.4.21.66.21Z"/><path class="cls-4" d="M35.55,206.58v-4.36h.82v.71h.05c.09-.24.24-.43.45-.56.21-.13.45-.2.74-.2s.54.07.73.21.34.32.44.56h.05c.1-.23.27-.42.5-.56.23-.14.5-.21.81-.21.4,0,.72.12.97.37.25.25.38.62.38,1.12v2.93h-.85v-2.85c0-.29-.08-.51-.24-.64-.16-.13-.35-.2-.58-.2-.28,0-.49.08-.64.25-.15.17-.23.39-.23.65v2.78h-.85v-2.9c0-.24-.07-.43-.22-.57-.15-.14-.34-.22-.58-.22-.16,0-.31.04-.44.13-.14.08-.25.2-.33.35s-.12.32-.12.52v2.69h-.85Z"/><path class="cls-4" d="M42.62,208.22v-6h.83v.71h.07c.05-.09.12-.2.21-.32s.22-.22.39-.31c.16-.09.38-.14.65-.14.35,0,.67.09.94.27.28.18.49.43.65.77.16.34.24.74.24,1.21s-.08.88-.24,1.21c-.16.34-.37.59-.65.78-.27.18-.59.27-.94.27-.27,0-.48-.04-.65-.13-.17-.09-.3-.19-.39-.31-.09-.12-.17-.23-.22-.32h-.05v2.32h-.85ZM43.45,204.4c0,.31.04.58.13.81s.22.41.39.54c.17.13.38.19.62.19s.47-.07.64-.2c.17-.13.3-.32.39-.55.09-.23.13-.5.13-.79s-.04-.55-.13-.78c-.09-.23-.21-.41-.39-.54-.17-.13-.39-.2-.64-.2s-.45.06-.62.19c-.17.13-.3.3-.38.53-.09.23-.13.49-.13.8Z"/><path class="cls-4" d="M49.39,206.67c-.41,0-.77-.09-1.07-.28s-.54-.45-.71-.79c-.17-.34-.25-.73-.25-1.18s.08-.85.25-1.19.41-.6.71-.79.66-.28,1.07-.28.77.09,1.07.28c.3.19.54.45.71.79s.25.74.25,1.19-.08.84-.25,1.18c-.17.34-.41.6-.71.79-.31.19-.66.28-1.07.28ZM49.39,205.96c.26,0,.48-.07.66-.21.17-.14.3-.33.39-.56.08-.23.13-.49.13-.77s-.04-.53-.13-.77c-.08-.23-.21-.42-.39-.56-.17-.14-.39-.21-.66-.21s-.49.07-.66.21c-.18.14-.31.33-.39.56-.08.23-.13.49-.13.77s.04.54.13.77c.08.23.21.42.39.56.17.14.4.21.66.21Z"/><path class="cls-4" d="M55.64,203.29l-.77.14c-.03-.1-.08-.19-.15-.28s-.16-.16-.28-.22c-.12-.06-.26-.08-.44-.08-.24,0-.44.05-.6.16-.16.11-.24.25-.24.41,0,.15.05.26.16.35.11.09.28.16.52.22l.69.16c.4.09.7.24.9.43.2.19.29.44.29.75,0,.26-.08.49-.23.7-.15.2-.36.36-.63.48-.27.12-.58.17-.93.17-.49,0-.89-.1-1.2-.31-.31-.21-.5-.51-.57-.89l.82-.12c.05.21.16.38.32.48.16.11.37.16.62.16.28,0,.5-.06.67-.17.17-.12.25-.26.25-.43,0-.14-.05-.25-.15-.34-.1-.09-.26-.16-.46-.21l-.74-.16c-.41-.09-.71-.24-.9-.44-.19-.2-.29-.46-.29-.77,0-.26.07-.48.22-.68s.34-.34.6-.45c.25-.11.54-.16.87-.16.47,0,.84.1,1.11.31.27.2.45.48.54.82Z"/><path class="cls-4" d="M57.09,201.55c-.15,0-.27-.05-.38-.15-.11-.1-.16-.22-.16-.36s.05-.26.16-.36c.1-.1.23-.15.38-.15s.27.05.38.15c.11.1.16.22.16.36s-.05.26-.16.36c-.1.1-.23.15-.38.15ZM56.66,206.58v-4.36h.85v4.36h-.85Z"/><path class="cls-4" d="M60.69,202.22v.68h-2.38v-.68h2.38ZM58.94,201.17h.85v4.13c0,.17.02.29.07.37.05.08.11.14.19.17.08.03.16.04.26.04.07,0,.13,0,.18-.01.05,0,.09-.02.12-.02l.15.7s-.12.04-.21.06c-.09.02-.21.03-.34.03-.22,0-.43-.04-.62-.12-.19-.08-.35-.21-.47-.39-.12-.17-.18-.39-.18-.66v-4.3Z"/><path class="cls-4" d="M62.05,201.55c-.15,0-.27-.05-.38-.15-.11-.1-.16-.22-.16-.36s.05-.26.16-.36c.1-.1.23-.15.38-.15s.27.05.38.15c.11.1.16.22.16.36s-.05.26-.16.36c-.1.1-.23.15-.38.15ZM61.62,206.58v-4.36h.85v4.36h-.85Z"/><path class="cls-4" d="M65.45,206.67c-.41,0-.77-.09-1.07-.28s-.54-.45-.71-.79c-.17-.34-.25-.73-.25-1.18s.08-.85.25-1.19.41-.6.71-.79.66-.28,1.07-.28.77.09,1.07.28c.3.19.54.45.71.79s.25.74.25,1.19-.08.84-.25,1.18c-.17.34-.41.6-.71.79-.31.19-.66.28-1.07.28ZM65.46,205.96c.26,0,.48-.07.66-.21.17-.14.3-.33.39-.56.08-.23.13-.49.13-.77s-.04-.53-.13-.77c-.08-.23-.21-.42-.39-.56-.17-.14-.39-.21-.66-.21s-.49.07-.66.21c-.18.14-.31.33-.39.56-.08.23-.13.49-.13.77s.04.54.13.77c.08.23.21.42.39.56.17.14.4.21.66.21Z"/><path class="cls-4" d="M69.28,203.99v2.59h-.85v-4.36h.82v.71h.05c.1-.23.26-.42.47-.56.21-.14.49-.21.81-.21.3,0,.56.06.78.19s.4.31.52.55.18.55.18.91v2.78h-.85v-2.67c0-.32-.08-.56-.25-.74-.16-.18-.39-.27-.68-.27-.2,0-.37.04-.52.13s-.27.21-.36.37c-.09.16-.13.36-.13.59Z"/><path class="cls-4" d="M75.89,206.58h-.93l2.09-5.82h1.01l2.09,5.82h-.93l-1.64-4.76h-.05l-1.65,4.76ZM76.05,204.31h3.02v.74h-3.02v-.74Z"/><path class="cls-4" d="M81.33,206.58l-1.28-4.36h.88l.86,3.2h.04l.86-3.2h.88l.85,3.19h.04l.85-3.19h.88l-1.28,4.36h-.87l-.89-3.15h-.07l-.89,3.15h-.86Z"/><path class="cls-4" d="M88.25,206.68c-.28,0-.53-.05-.75-.16-.22-.1-.4-.25-.53-.45-.13-.2-.2-.44-.2-.72,0-.25.05-.45.14-.61s.22-.29.38-.38c.16-.09.34-.16.54-.21.2-.05.4-.08.61-.11.26-.03.47-.06.64-.08.16-.02.28-.05.36-.1.07-.05.11-.12.11-.22v-.02c0-.25-.07-.44-.21-.58-.14-.14-.35-.21-.62-.21s-.51.06-.67.19-.28.27-.34.42l-.8-.18c.09-.27.23-.48.42-.64s.39-.28.63-.36c.24-.07.49-.11.75-.11.17,0,.36.02.56.06s.38.12.55.22c.17.11.31.26.42.46.11.2.17.46.17.78v2.9h-.83v-.6h-.03c-.05.11-.14.22-.25.32-.11.11-.25.19-.42.26-.17.07-.38.11-.62.11ZM88.44,206c.24,0,.44-.05.6-.14.17-.09.3-.21.38-.37.09-.15.13-.31.13-.48v-.56s-.09.06-.17.08c-.09.03-.18.05-.29.07-.11.02-.22.03-.32.05-.1.01-.19.03-.26.04-.17.02-.31.06-.45.11-.14.05-.24.12-.32.21-.08.09-.12.21-.12.37,0,.21.08.37.23.48.16.11.35.16.59.16Z"/><path class="cls-4" d="M91.54,206.58v-4.36h.82v.69h.05c.08-.23.22-.42.42-.55.2-.14.43-.2.69-.2.05,0,.12,0,.19,0,.07,0,.13,0,.17.01v.81s-.09-.02-.18-.03c-.09-.01-.17-.02-.26-.02-.2,0-.38.04-.54.13s-.28.2-.37.35-.14.32-.14.51v2.67h-.85Z"/><path class="cls-4" d="M96.09,206.67c-.35,0-.67-.09-.94-.27-.28-.18-.49-.44-.65-.78-.16-.34-.23-.74-.23-1.21s.08-.88.24-1.21c.16-.33.38-.59.65-.77.28-.18.59-.27.94-.27.27,0,.49.05.66.14s.29.19.39.31c.09.12.16.22.21.32h.05v-2.16h.85v5.82h-.83v-.68h-.07c-.05.09-.12.2-.22.32-.1.12-.23.22-.39.31-.17.09-.38.13-.65.13ZM96.27,205.94c.25,0,.45-.06.62-.19.17-.13.3-.31.39-.54s.13-.5.13-.81-.04-.57-.13-.8c-.09-.23-.21-.4-.38-.53-.17-.13-.38-.19-.62-.19s-.47.07-.64.2c-.17.13-.3.31-.38.54-.09.23-.13.49-.13.78s.04.55.13.79c.09.23.22.42.39.55.17.14.38.2.63.2Z"/><path class="cls-3" d="M39.81,210.85v-.36h3.16v.36h-1.38v4.01h-.4v-4.01h-1.38Z"/><path class="cls-3" d="M43.45,214.86v-3.27h.37v.5h.03c.06-.17.18-.3.34-.4.16-.1.35-.15.55-.15.03,0,.07,0,.1,0,.04,0,.07,0,.1,0v.39s-.05,0-.09-.01c-.04,0-.09,0-.14,0-.17,0-.32.04-.46.11-.13.07-.24.17-.31.3-.08.13-.12.27-.12.43v2.11h-.38Z"/><path class="cls-3" d="M46.76,214.93c-.28,0-.53-.07-.75-.22-.22-.14-.39-.34-.51-.59-.12-.25-.18-.55-.18-.88s.06-.63.18-.89.29-.45.51-.6c.22-.14.47-.21.75-.21s.53.07.75.21.39.34.51.6c.12.25.18.55.18.88s-.06.62-.18.88c-.12.25-.29.45-.51.59-.22.14-.47.22-.75.22ZM46.76,214.58c.23,0,.42-.06.58-.18.16-.12.28-.29.36-.49.08-.2.12-.43.12-.67s-.04-.47-.12-.67c-.08-.2-.2-.37-.36-.49-.16-.12-.35-.19-.58-.19s-.42.06-.58.19c-.16.12-.28.29-.36.49-.08.21-.12.43-.12.67s.04.47.12.67c.08.2.2.37.36.49.16.12.35.18.58.18Z"/><path class="cls-3" d="M49.03,216.09v-4.5h.37v.62h.04c.05-.1.11-.2.19-.3.08-.1.18-.19.32-.26s.3-.11.5-.11c.27,0,.51.07.71.21s.36.34.47.59c.11.25.17.55.17.88s-.06.63-.17.89c-.11.25-.27.45-.47.59-.2.14-.44.21-.7.21-.2,0-.36-.04-.5-.11-.13-.07-.24-.16-.32-.26s-.14-.21-.19-.31h-.03v1.83h-.38ZM49.41,213.23c0,.26.04.5.12.7.08.2.19.36.34.48.15.12.33.17.54.17s.4-.06.55-.18.26-.28.34-.49c.08-.2.12-.43.12-.69s-.04-.48-.12-.68c-.08-.2-.19-.36-.34-.48-.15-.12-.33-.18-.55-.18s-.39.06-.54.17c-.15.11-.26.27-.34.47-.08.2-.12.43-.12.69Z"/><path class="cls-3" d="M53.01,212.81v2.05h-.38v-4.36h.38v1.6h.03c.08-.17.2-.3.36-.41.16-.1.37-.15.61-.15.22,0,.42.05.58.14.17.09.3.22.39.4s.14.4.14.66v2.12h-.38v-2.1c0-.27-.07-.48-.22-.64-.15-.16-.35-.23-.61-.23-.17,0-.33.04-.47.11-.14.07-.24.18-.32.32-.08.14-.12.3-.12.49Z"/><path class="cls-3" d="M56.28,216.09c-.08,0-.15,0-.21-.02-.07-.01-.12-.03-.16-.05l.1-.33c.13.04.24.05.34.04s.19-.06.27-.14c.08-.08.15-.2.21-.37l.12-.33-1.2-3.3h.41l.97,2.77h.03l.97-2.77h.41l-1.38,3.79c-.06.16-.13.29-.22.4-.08.11-.18.18-.29.24s-.24.08-.37.08Z"/><polyline class="cls-2" points="14.74 152.92 14.74 26.47 71.19 26.47"/><path class="cls-4" d="M70.99,26.47c-.52-.52-.77-1.56-.79-2.27.72.96,1.65,1.8,2.77,2.27-1.13.45-2.02,1.34-2.77,2.27.06-.77.25-1.7.79-2.27Z"/><polyline class="cls-2" points="102.93 205 119.02 205 119.02 92.54"/><path class="cls-4" d="M119.02,92.74c-.52.52-1.56.77-2.27.79.96-.72,1.8-1.65,2.27-2.77.45,1.13,1.34,2.02,2.27,2.77-.77-.06-1.7-.25-2.27-.79Z"/><path class="cls-4" d="M220.95,74.26c-.03-.27-.16-.48-.38-.63s-.5-.22-.83-.22c-.24,0-.44.04-.62.11-.17.08-.31.18-.4.31-.1.13-.14.28-.14.44,0,.14.03.26.1.36.07.1.15.18.26.25.11.07.22.12.34.17.12.04.24.08.36.11l.57.15c.19.04.38.11.57.18.2.08.38.18.54.31s.3.28.41.47c.1.19.15.41.15.67,0,.33-.08.62-.25.88-.17.26-.42.46-.74.61-.32.15-.71.22-1.16.22s-.81-.07-1.13-.21c-.32-.14-.57-.33-.75-.59s-.28-.56-.3-.91h.88c.02.21.09.39.21.52.12.14.28.24.46.31s.39.1.62.1c.25,0,.47-.04.66-.12.19-.08.35-.19.46-.33.11-.14.17-.31.17-.5,0-.17-.05-.31-.15-.42-.1-.11-.23-.2-.39-.27-.17-.07-.35-.14-.56-.19l-.69-.19c-.47-.13-.83-.31-1.11-.56s-.41-.57-.41-.98c0-.33.09-.63.27-.88s.43-.44.74-.58c.31-.14.66-.21,1.05-.21s.74.07,1.04.21c.3.14.54.33.71.57.17.24.27.52.27.83h-.85Z"/><path class="cls-4" d="M224.89,74.19v.68h-2.38v-.68h2.38ZM223.15,73.14h.85v4.13c0,.17.02.29.07.37.05.08.11.14.19.17.08.03.16.04.26.04.07,0,.13,0,.18-.01.05,0,.09-.02.12-.02l.15.7s-.12.04-.21.06c-.09.02-.2.03-.34.03-.22,0-.43-.04-.62-.12-.19-.08-.35-.21-.47-.39-.12-.17-.18-.39-.18-.66v-4.3Z"/><path class="cls-4" d="M227.62,78.64c-.41,0-.77-.09-1.07-.28-.3-.19-.54-.45-.71-.79-.17-.34-.25-.73-.25-1.18s.08-.85.25-1.19c.17-.34.41-.6.71-.79.31-.19.66-.28,1.07-.28s.77.09,1.07.28.54.45.71.79c.17.34.25.74.25,1.19s-.08.84-.25,1.18c-.17.34-.41.6-.71.79s-.66.28-1.07.28ZM227.63,77.93c.27,0,.49-.07.66-.21.17-.14.3-.33.39-.56.08-.23.13-.49.13-.77s-.04-.53-.13-.77c-.08-.23-.21-.42-.39-.56-.17-.14-.39-.21-.66-.21s-.49.07-.66.21c-.18.14-.3.33-.39.56-.08.23-.13.49-.13.77s.04.54.13.77c.08.23.21.42.39.56.17.14.4.21.66.21Z"/><path class="cls-4" d="M230.6,78.55v-4.36h.82v.69h.04c.08-.23.22-.42.42-.55.2-.14.43-.2.69-.2.05,0,.12,0,.19,0,.07,0,.13,0,.17.01v.81s-.09-.02-.18-.03c-.09-.01-.17-.02-.26-.02-.2,0-.38.04-.54.13s-.28.2-.37.35c-.09.15-.14.32-.14.51v2.67h-.85Z"/><path class="cls-4" d="M234.35,80.19c-.13,0-.24-.01-.35-.03-.1-.02-.18-.04-.23-.06l.21-.7c.16.04.29.06.41.05s.23-.05.32-.14c.09-.09.18-.22.25-.42l.11-.29-1.6-4.42h.91l1.1,3.39h.05l1.1-3.39h.91l-1.8,4.95c-.08.23-.19.42-.32.58s-.28.28-.46.36c-.18.08-.38.12-.62.12Z"/><path class="cls-4" d="M240.38,74.19v.68h-2.38v-.68h2.38ZM238.64,73.14h.85v4.13c0,.17.02.29.07.37.05.08.11.14.19.17.08.03.16.04.26.04.07,0,.13,0,.18-.01.05,0,.09-.02.12-.02l.15.7s-.12.04-.21.06c-.09.02-.21.03-.34.03-.22,0-.43-.04-.62-.12-.19-.08-.35-.21-.47-.39-.12-.17-.18-.39-.18-.66v-4.3Z"/><path class="cls-4" d="M243.16,78.64c-.43,0-.8-.09-1.11-.28-.31-.19-.55-.45-.72-.78-.17-.34-.25-.73-.25-1.18s.08-.84.25-1.18c.17-.34.4-.61.71-.8s.66-.29,1.06-.29c.25,0,.49.04.72.12.23.08.44.21.62.38.18.17.33.4.43.68.11.28.16.61.16,1.01v.3h-3.47v-.64h2.64c0-.22-.04-.42-.14-.59-.09-.17-.22-.31-.38-.41-.16-.1-.36-.15-.58-.15-.24,0-.45.06-.62.17-.18.12-.31.27-.41.45s-.14.39-.14.61v.5c0,.29.05.54.15.74.1.2.25.36.43.47.19.11.4.16.65.16.16,0,.31-.02.44-.07.13-.05.25-.12.34-.21s.17-.21.22-.34l.8.14c-.06.24-.18.44-.34.62-.17.18-.37.31-.62.41s-.53.15-.85.15Z"/><path class="cls-4" d="M246.82,72.73v5.82h-.85v-5.82h.85Z"/><path class="cls-4" d="M248.81,72.73v5.82h-.85v-5.82h.85Z"/><path class="cls-4" d="M250.38,73.51c-.15,0-.27-.05-.38-.15-.11-.1-.16-.22-.16-.36s.05-.26.16-.36c.1-.1.23-.15.38-.15s.27.05.38.15c.11.1.16.22.16.36s-.05.26-.16.36c-.1.1-.23.15-.38.15ZM249.96,78.55v-4.36h.85v4.36h-.85Z"/><path class="cls-4" d="M252.8,75.96v2.59h-.85v-4.36h.82v.71h.05c.1-.23.26-.42.47-.56.21-.14.49-.21.81-.21.3,0,.56.06.78.19s.4.31.52.55.18.55.18.91v2.78h-.85v-2.67c0-.32-.08-.56-.25-.74-.16-.18-.39-.27-.68-.27-.2,0-.37.04-.52.13s-.27.21-.36.37c-.09.16-.13.36-.13.59Z"/><path class="cls-4" d="M258.55,80.28c-.35,0-.64-.05-.89-.14s-.45-.21-.61-.36c-.16-.15-.27-.31-.35-.49l.73-.3c.05.08.12.17.21.27s.2.17.35.24.34.1.58.1c.32,0,.59-.08.8-.23.21-.16.32-.41.32-.75v-.86h-.05c-.05.09-.12.2-.22.31-.1.11-.23.21-.39.29-.17.08-.38.12-.65.12-.34,0-.65-.08-.93-.24-.28-.16-.49-.4-.65-.72-.16-.32-.24-.71-.24-1.17s.08-.86.24-1.19c.16-.33.38-.59.65-.76.28-.18.59-.27.94-.27.27,0,.49.05.66.14.17.09.3.19.39.31s.17.22.22.32h.06v-.71h.83v4.46c0,.38-.09.68-.26.92-.17.24-.41.42-.71.53-.3.12-.63.17-1,.17ZM258.55,77.78c.25,0,.45-.06.62-.17.17-.12.3-.28.39-.5.09-.21.13-.47.13-.77s-.04-.55-.13-.78c-.09-.22-.21-.4-.38-.52-.17-.13-.38-.19-.62-.19s-.47.07-.64.2c-.17.13-.3.31-.38.54-.09.23-.13.48-.13.76s.04.54.13.75.22.38.39.5c.17.12.38.18.63.18Z"/><path class="cls-4" d="M267.02,74.26c-.03-.27-.16-.48-.38-.63s-.5-.22-.83-.22c-.24,0-.45.04-.62.11-.17.08-.31.18-.4.31-.1.13-.14.28-.14.44,0,.14.03.26.1.36.07.1.15.18.26.25s.22.12.34.17c.12.04.24.08.36.11l.57.15c.19.04.38.11.57.18.19.08.38.18.54.31.17.13.3.28.41.47s.15.41.15.67c0,.33-.08.62-.25.88-.17.26-.42.46-.74.61-.32.15-.71.22-1.16.22s-.81-.07-1.13-.21c-.32-.14-.57-.33-.75-.59-.18-.25-.28-.56-.3-.91h.88c.02.21.08.39.21.52.12.14.27.24.46.31s.4.1.62.1c.25,0,.47-.04.66-.12.19-.08.35-.19.46-.33.11-.14.17-.31.17-.5,0-.17-.05-.31-.15-.42-.1-.11-.23-.2-.39-.27s-.35-.14-.56-.19l-.69-.19c-.47-.13-.83-.31-1.11-.56-.27-.25-.41-.57-.41-.98,0-.33.09-.63.27-.88s.43-.44.74-.58c.31-.14.66-.21,1.05-.21s.74.07,1.04.21c.3.14.54.33.71.57.17.24.26.52.27.83h-.85Z"/><path class="cls-4" d="M270.77,78.64c-.42,0-.79-.1-1.09-.29-.3-.19-.54-.46-.7-.8s-.24-.73-.24-1.17.08-.83.25-1.17.4-.61.7-.8c.3-.19.66-.29,1.07-.29.33,0,.63.06.89.18s.47.29.63.51.26.48.29.77h-.83c-.05-.21-.15-.38-.31-.53-.16-.15-.38-.22-.65-.22-.24,0-.44.06-.62.19s-.31.3-.41.53-.15.5-.15.81.05.59.14.82c.1.23.23.41.41.54.18.13.39.19.63.19.16,0,.31-.03.44-.09.13-.06.24-.15.33-.26.09-.11.15-.25.19-.4h.83c-.03.28-.12.53-.28.76s-.36.4-.61.52c-.26.13-.56.19-.9.19Z"/><path class="cls-4" d="M273.47,78.55v-4.36h.82v.69h.05c.08-.23.22-.42.42-.55.2-.14.43-.2.69-.2.05,0,.12,0,.19,0,.07,0,.13,0,.17.01v.81s-.09-.02-.18-.03c-.09-.01-.17-.02-.26-.02-.2,0-.38.04-.54.13s-.28.2-.37.35-.14.32-.14.51v2.67h-.85Z"/><path class="cls-4" d="M276.98,73.51c-.15,0-.27-.05-.38-.15-.11-.1-.16-.22-.16-.36s.05-.26.16-.36c.1-.1.23-.15.38-.15s.27.05.38.15c.11.1.16.22.16.36s-.05.26-.16.36c-.1.1-.23.15-.38.15ZM276.55,78.55v-4.36h.85v4.36h-.85Z"/><path class="cls-4" d="M278.54,80.19v-6h.83v.71h.07c.05-.09.12-.2.21-.32s.22-.22.39-.31c.16-.09.38-.14.65-.14.35,0,.67.09.94.27.28.18.49.43.65.77.16.34.24.74.24,1.21s-.08.88-.24,1.21c-.16.34-.37.59-.65.78-.27.18-.59.27-.94.27-.27,0-.48-.04-.65-.13-.17-.09-.3-.19-.39-.31-.09-.12-.17-.23-.22-.32h-.05v2.32h-.85ZM279.37,76.37c0,.31.04.58.13.81s.22.41.39.54c.17.13.38.19.62.19s.47-.07.64-.2c.17-.13.3-.32.39-.55.09-.23.13-.5.13-.79s-.04-.55-.13-.78c-.09-.23-.21-.41-.39-.54-.17-.13-.39-.2-.64-.2s-.45.06-.62.19c-.17.13-.3.3-.38.53-.09.23-.13.49-.13.8Z"/><path class="cls-4" d="M285.51,74.19v.68h-2.38v-.68h2.38ZM283.77,73.14h.85v4.13c0,.17.02.29.07.37.05.08.11.14.19.17.08.03.16.04.26.04.07,0,.13,0,.18-.01.05,0,.09-.02.12-.02l.15.7s-.12.04-.21.06c-.09.02-.21.03-.34.03-.22,0-.43-.04-.62-.12-.19-.08-.35-.21-.47-.39-.12-.17-.18-.39-.18-.66v-4.3Z"/><path class="cls-4" d="M289.13,78.55h-.93l2.09-5.82h1.01l2.09,5.82h-.93l-1.64-4.76h-.05l-1.65,4.76ZM289.29,76.27h3.02v.74h-3.02v-.74Z"/><path class="cls-4" d="M294.57,78.55l-1.28-4.36h.88l.86,3.2h.04l.86-3.2h.88l.85,3.19h.04l.85-3.19h.88l-1.28,4.36h-.87l-.89-3.15h-.07l-.89,3.15h-.86Z"/><path class="cls-4" d="M301.49,78.65c-.28,0-.53-.05-.75-.16-.22-.1-.4-.25-.53-.45-.13-.2-.2-.44-.2-.72,0-.25.05-.45.14-.61s.22-.29.38-.38c.16-.09.34-.16.54-.21.2-.05.4-.08.61-.11.26-.03.47-.06.64-.08.16-.02.28-.05.36-.1.07-.05.11-.12.11-.22v-.02c0-.25-.07-.44-.21-.58-.14-.14-.35-.21-.62-.21s-.51.06-.67.19-.28.27-.34.42l-.8-.18c.09-.27.23-.48.42-.64s.39-.28.63-.36c.24-.07.49-.11.75-.11.17,0,.36.02.56.06s.38.12.55.22c.17.11.31.26.42.46.11.2.17.46.17.78v2.9h-.83v-.6h-.03c-.05.11-.14.22-.25.32-.11.11-.25.19-.42.26-.17.07-.38.11-.62.11ZM301.68,77.97c.24,0,.44-.05.6-.14.17-.09.3-.21.38-.37.09-.15.13-.31.13-.48v-.56s-.09.06-.17.08c-.09.03-.18.05-.29.07-.11.02-.22.03-.32.05-.1.01-.19.03-.26.04-.17.02-.31.06-.45.11-.14.05-.24.12-.32.21-.08.09-.12.21-.12.37,0,.21.08.37.23.48.16.11.35.16.59.16Z"/><path class="cls-4" d="M304.78,78.55v-4.36h.82v.69h.05c.08-.23.22-.42.42-.55.2-.14.43-.2.69-.2.05,0,.12,0,.19,0,.07,0,.13,0,.17.01v.81s-.09-.02-.18-.03c-.09-.01-.17-.02-.26-.02-.2,0-.38.04-.54.13s-.28.2-.37.35-.14.32-.14.51v2.67h-.85Z"/><path class="cls-4" d="M309.32,78.64c-.35,0-.67-.09-.94-.27-.28-.18-.49-.44-.65-.78-.16-.34-.23-.74-.23-1.21s.08-.88.24-1.21c.16-.33.38-.59.65-.77.28-.18.59-.27.94-.27.27,0,.49.05.66.14s.29.19.39.31c.09.12.16.22.21.32h.05v-2.16h.85v5.82h-.83v-.68h-.07c-.05.09-.12.2-.22.32-.1.12-.23.22-.39.31-.17.09-.38.13-.65.13ZM309.51,77.91c.25,0,.45-.06.62-.19.17-.13.3-.31.39-.54s.13-.5.13-.81-.04-.57-.13-.8c-.09-.23-.21-.4-.38-.53-.17-.13-.38-.19-.62-.19s-.47.07-.64.2c-.17.13-.3.31-.38.54-.09.23-.13.49-.13.78s.04.55.13.79c.09.23.22.42.39.55.17.14.38.2.63.2Z"/><path class="cls-3" d="M255.3,82.82v-.36h3.16v.36h-1.38v4.01h-.4v-4.01h-1.38Z"/><path class="cls-3" d="M258.94,86.83v-3.27h.37v.5h.03c.06-.17.18-.3.34-.4.16-.1.35-.15.55-.15.03,0,.07,0,.1,0,.04,0,.07,0,.1,0v.39s-.05,0-.09-.01c-.04,0-.09,0-.14,0-.17,0-.32.04-.46.11-.13.07-.24.17-.31.3-.08.13-.12.27-.12.43v2.11h-.38Z"/><path class="cls-3" d="M262.25,86.9c-.28,0-.53-.07-.75-.22-.22-.14-.39-.34-.51-.59-.12-.25-.18-.55-.18-.88s.06-.63.18-.89.29-.45.51-.6c.22-.14.47-.21.75-.21s.53.07.75.21.39.34.51.6c.12.25.18.55.18.88s-.06.62-.18.88c-.12.25-.29.45-.51.59-.22.14-.47.22-.75.22ZM262.25,86.55c.23,0,.42-.06.58-.18.16-.12.28-.29.36-.49.08-.2.12-.43.12-.67s-.04-.47-.12-.67c-.08-.2-.2-.37-.36-.49-.16-.12-.35-.19-.58-.19s-.42.06-.58.19c-.16.12-.28.29-.36.49-.08.21-.12.43-.12.67s.04.47.12.67c.08.2.2.37.36.49.16.12.35.18.58.18Z"/><path class="cls-3" d="M264.52,88.05v-4.5h.37v.62h.04c.05-.1.11-.2.19-.3.08-.1.18-.19.32-.26s.3-.11.5-.11c.27,0,.51.07.71.21s.36.34.47.59c.11.25.17.55.17.88s-.06.63-.17.89c-.11.25-.27.45-.47.59-.2.14-.44.21-.7.21-.2,0-.36-.04-.5-.11-.13-.07-.24-.16-.32-.26s-.14-.21-.19-.31h-.03v1.83h-.38ZM264.9,85.19c0,.26.04.5.12.7.08.2.19.36.34.48.15.12.33.17.54.17s.4-.06.55-.18.26-.28.34-.49c.08-.2.12-.43.12-.69s-.04-.48-.12-.68c-.08-.2-.19-.36-.34-.48-.15-.12-.33-.18-.55-.18s-.39.06-.54.17c-.15.11-.26.27-.34.47-.08.2-.12.43-.12.69Z"/><path class="cls-3" d="M268.5,84.78v2.05h-.38v-4.36h.38v1.6h.03c.08-.17.2-.3.36-.41.16-.1.37-.15.61-.15.22,0,.42.05.58.14.17.09.3.22.39.4s.14.4.14.66v2.12h-.38v-2.1c0-.27-.07-.48-.22-.64-.15-.16-.35-.23-.61-.23-.17,0-.33.04-.47.11-.14.07-.24.18-.32.32-.08.14-.12.3-.12.49Z"/><path class="cls-3" d="M271.77,88.05c-.08,0-.15,0-.21-.02-.07-.01-.12-.03-.16-.05l.1-.33c.13.04.24.05.34.04s.19-.06.27-.14c.08-.08.15-.2.21-.37l.12-.33-1.2-3.3h.41l.97,2.77h.03l.97-2.77h.41l-1.38,3.79c-.06.16-.13.29-.22.4-.08.11-.18.18-.29.24s-.24.08-.37.08Z"/><polyline class="cls-2" points="264.04 92.78 264.04 123.05 245.35 123.05"/><path class="cls-4" d="M245.55,123.05c.52.52.77,1.56.79,2.27-.72-.96-1.65-1.8-2.77-2.27,1.13-.45,2.02-1.34,2.77-2.27-.06.77-.25,1.7-.79,2.27Z"/><path class="cls-1" d="M197.05,118.6l1.83-33.76"/><path class="cls-1" d="M198.85,90.97l4.9,20.94"/><path class="cls-1" d="M197.63,107.98l-.57,10.62"/><path class="cls-1" d="M198.6,89.93l.24,1.03"/><path class="cls-1" d="M193.95,70.03l-7.57,1.94.87,4.76-1.17,8.14-3.51,24.43,1.4,7.69,13.1,1.61"/><path class="cls-1" d="M218.68,200.11L45.88,100.34"/><path class="cls-1" d="M265.25,178.93l-33.02,19.06"/><path class="cls-1" d="M232.23,208.41l36.9-21.3"/><path class="cls-1" d="M42.12,107.97l176.56,101.94"/><path class="cls-1" d="M81.3,86.87v26.44l5.63,3.25,7.91-4.57v-17.3"/><path class="cls-1" d="M50.03,102.73v-10.89"/><path class="cls-1" d="M36.51,61.01h-.01v78.17l5.63,3.25,7.91-4.57v-25.33"/><path class="cls-1" d="M263.5,146.83v33.12"/><path class="cls-1" d="M263.5,190.36v28.14l5.63,3.25,7.91-4.57v-78.16h0"/><path class="cls-1" d="M218.7,166.2h-.01v43.71"/><path class="cls-1" d="M218.68,209.9v34.46l5.63,3.25,7.91-4.57v-78.16h0"/><path class="cls-1" d="M186.26,83.55l-18.33-10.58"/><path class="cls-1" d="M79.75,32.99l-43.25,24.97v3.04l187.82,108.44,52.71-30.43v-3.04l-40.69-23.49"/><path class="cls-1" d="M87.43,52.44l2.23.82,6.94-34.34"/><path class="cls-1" d="M85.21,51.62l-2.82-2.56-6.94-42.36"/><path class="cls-1" d="M145.81,48.28l.34.79"/><path class="cls-1" d="M147.04,47.57l.3.7"/><path class="cls-1" d="M146.34,46.5l.7,1.07"/><path class="cls-1" d="M145.54,45.59l.8.91"/><path class="cls-1" d="M144.68,44.94l.85.65"/><path class="cls-1" d="M143.83,44.65l.85.29"/><path class="cls-1" d="M143.08,44.75l.75-.1"/><path class="cls-1" d="M141.65,50.56l-.07-1.04"/><path class="cls-1" d="M141.85,51.64l-.2-1.08"/><path class="cls-1" d="M142.17,52.76l-.33-1.12"/><path class="cls-1" d="M145.99,49.22l-.18-.44"/><path class="cls-1" d="M162.51,74.36l.23-.76"/><path class="cls-1" d="M162.87,75.46l-.36-1.1"/><path class="cls-1" d="M163.67,76.27l-.8-.81"/><path class="cls-1" d="M166.73,60.52l.26,1.08"/><path class="cls-1" d="M166.91,59.95l-.19.57"/><path class="cls-1" d="M163.36,72.47l1.93-.12"/><path class="cls-1" d="M164.45,76.28l-.78-.02"/><path class="cls-1" d="M155.64,74.71l.76.12-2.67-.43,1.91.31Z"/><path class="cls-1" d="M151.9,85.25l-1.94,2.01.79-.79,1.15-1.22Z"/><path class="cls-1" d="M169.29,54.48l.07-.82-.07.82Z"/><path class="cls-1" d="M169.73,59.46l.23-4.47-.44-2.76-.69-1.36-.6-.78-.96-.98-1.22-.84-1.52-.75-.61-.29-1.71-.55-1.94-.44-3.18-.31-3.05.15-3.44.72-2.73,1.13-1.65,1.08-.97.91-.83,1.11-.79,1.99-.1,1.24.14,5.84.21,1.45,1.32,4.92,1.85,3.26,1.61,1.62,2.63,1.96,2.44,1.09"/><path class="cls-1" d="M162.14,73.33l3.11-2.38,2.63-3.85,1.54-5.41.04-.21"/><path class="cls-1" d="M117.71,70.31l-.32.53"/><path class="cls-1" d="M117.77,68.82l.09.42"/><path class="cls-1" d="M117.61,68.38l.15.43"/><path class="cls-1" d="M117.4,67.94l.22.44"/><path class="cls-1" d="M116.84,67.12l.53.79"/><path class="cls-1" d="M116.24,66.45l.6.66"/><path class="cls-1" d="M115.59,65.91l.61.51"/><path class="cls-1" d="M114.9,65.5l.68.41"/><path class="cls-1" d="M114.23,65.3l.67.2"/><path class="cls-1" d="M113.67,65.38l.56-.08"/><path class="cls-1" d="M113.28,65.71l.39-.34"/><path class="cls-1" d="M113.02,66.28l.26-.56"/><path class="cls-1" d="M112.9,67.01l.12-.74"/><path class="cls-1" d="M112.93,67.83l-.03-.82"/><path class="cls-1" d="M113.09,68.68l-.16-.85"/><path class="cls-1" d="M118.21,73.99l-.65-.16"/><path class="cls-1" d="M118.82,74.01l-.61-.02"/><path class="cls-1" d="M119.38,73.87l-.56.14"/><path class="cls-1" d="M125.27,70.47l-5.41,3.12-.48.28"/><path class="cls-1" d="M119.81,73.62l4.98-2.87.44-.26"/><path class="cls-1" d="M120.25,73.19l-.39.4"/><path class="cls-1" d="M125.64,70.09l-.37.38"/><path class="cls-1" d="M126.19,68.19l-.05.75"/><path class="cls-1" d="M120.73,70.43v1.69"/><path class="cls-1" d="M126.03,66.52l.11.85"/><path class="cls-1" d="M116.97,71.19l.42-.35"/><path class="cls-1" d="M116.43,71.34l.54-.15"/><path class="cls-1" d="M115.9,71.34h.53"/><path class="cls-1" d="M116.53,71.94l-.63-.6"/><path class="cls-1" d="M117.19,72.34l-.66-.4"/><path class="cls-1" d="M117.87,72.55l-.68-.22"/><path class="cls-1" d="M118.89,72.17l-.46.31"/><path class="cls-1" d="M119.19,71.67l-.3.5"/><path class="cls-1" d="M119.36,70.99l-.15.66"/><path class="cls-1" d="M119.4,70.25l-.04.74"/><path class="cls-1" d="M119.29,68.59l.11,1.67"/><path class="cls-1" d="M114.48,58.67l-.29-.65"/><path class="cls-1" d="M114.96,59.52l-.48-.85"/><path class="cls-1" d="M116.15,59.93l.36.63"/><path class="cls-1" d="M115.9,59.27l.25.66"/><path class="cls-1" d="M115.74,58.62l.16.65"/><path class="cls-1" d="M115.67,58l.07.62"/><path class="cls-1" d="M115.69,57.44v.56"/><path class="cls-1" d="M115.79,56.92l-.1.51"/><path class="cls-1" d="M115.98,56.5l-.2.42"/><path class="cls-1" d="M116.29,56.18l-.31.32"/><path class="cls-1" d="M116.67,56.01l-.38.17"/><path class="cls-1" d="M113.71,54.94l-.04.98"/><path class="cls-1" d="M113.83,54.41l-.12.53"/><path class="cls-1" d="M120.58,43.88l-.17.78"/><path class="cls-1" d="M115.11,36.37l.38-.86"/><path class="cls-1" d="M114.76,40.8l-.05-1.96"/><path class="cls-1" d="M120.55,72.67l-.3.52"/><path class="cls-1" d="M118.55,43.02l.34-.78"/><path class="cls-1" d="M118.12,43.63l.43-.61"/><path class="cls-1" d="M119.1,41.38l-.21.86"/><path class="cls-1" d="M119.2,40.43l-.1.95"/><path class="cls-1" d="M119.18,39.4l.02,1.03"/><path class="cls-1" d="M119.08,38.8l.1.6"/><path class="cls-1" d="M116.82,38.17l.45-.66"/><path class="cls-1" d="M117.3,37.47l.57-.42"/><path class="cls-1" d="M117.93,37.01l.7.47"/><path class="cls-1" d="M116.47,38.88l.35-.71"/><path class="cls-1" d="M116.11,40.47l.12-.74"/><path class="cls-1" d="M116.04,41.6l.04-.97"/><path class="cls-1" d="M116.36,44.82l-.31-3.14"/><path class="cls-1" d="M116.36,44.82l-.32-3.22"/><path class="cls-1" d="M121.03,61.51v-.92"/><path class="cls-1" d="M120.88,62.33l.14-.77"/><path class="cls-1" d="M120.61,63.01l.27-.68"/><path class="cls-1" d="M120.19,63.56l.42-.55"/><path class="cls-1" d="M120.79,59.6l.22.99"/><path class="cls-1" d="M120.36,58.6l.44,1.01"/><path class="cls-1" d="M119.75,57.65l.6.94"/><path class="cls-1" d="M119.05,56.87l.71.78"/><path class="cls-1" d="M117.11,55.96l-.44.05"/><path class="cls-1" d="M125.08,51.16l-.99-.8"/><path class="cls-1" d="M119.67,54.28l-.99-.8"/><path class="cls-1" d="M126.01,52.16l-.92-1"/><path class="cls-1" d="M120.6,55.28l-.92-1"/><path class="cls-1" d="M126.82,53.3l-.81-1.14"/><path class="cls-1" d="M121.41,56.42l-.81-1.14"/><path class="cls-1" d="M127.49,54.54l-.67-1.24"/><path class="cls-1" d="M122.08,57.67l-.67-1.24"/><path class="cls-1" d="M127.98,55.86l-.49-1.32"/><path class="cls-1" d="M122.57,58.98l-.49-1.32"/><path class="cls-1" d="M128.25,57.13l-.27-1.27"/><path class="cls-1" d="M122.84,60.26l-.27-1.27"/><path class="cls-1" d="M128.33,58.34l-.08-1.21"/><path class="cls-1" d="M128.23,59.45l.1-1.11"/><path class="cls-1" d="M127.96,60.42l.25-.89"/><path class="cls-1" d="M122.55,63.54l.32-1.23"/><path class="cls-1" d="M127.52,61.21l.44-.78"/><path class="cls-1" d="M126.9,61.79l.62-.58"/><path class="cls-1" d="M121.49,64.91l.62-.58"/><path class="cls-1" d="M120.74,65.26l.75-.35"/><path class="cls-1" d="M119.9,65.38l.84-.12"/><path class="cls-1" d="M114.7,39.33l.09,1.86"/><path class="cls-1" d="M114.83,37.51l-.13,1.82"/><path class="cls-1" d="M115.27,35.97l-.44,1.51"/><path class="cls-1" d="M116.03,34.73l-.76,1.23"/><path class="cls-1" d="M116.03,34.73l1.16-.64,5.41-3.12"/><path class="cls-1" d="M124.15,31.89l-1.55-.92"/><path class="cls-1" d="M118.74,35.01l-1.55-.92"/><path class="cls-1" d="M125.3,33.85l-1.15-1.96"/><path class="cls-1" d="M119.89,36.98l-1.15-1.96"/><path class="cls-1" d="M120.49,39.18l-.6-2.2"/><path class="cls-1" d="M120.71,41.04l-.22-1.86"/><path class="cls-1" d="M126.1,39.85l.02-1.93"/><path class="cls-1" d="M120.69,42.97l.02-1.93"/><path class="cls-1" d="M125.82,41.52l.28-1.68"/><path class="cls-1" d="M120.41,44.65l.28-1.68"/><path class="cls-1" d="M125.24,42.97l.57-1.45"/><path class="cls-1" d="M119.84,46.1l.57-1.45"/><path class="cls-1" d="M124.44,44.16l.81-1.18"/><path class="cls-1" d="M119.03,47.28l.81-1.18"/><path class="cls-1" d="M114.32,62.05l2.21,1.98"/><path class="cls-1" d="M110.31,51.13v2.69"/><path class="cls-1" d="M111.05,48.91l-.75,2.23"/><path class="cls-1" d="M112.21,47.39l-1.15,1.51"/><path class="cls-1" d="M113.68,46.18l-1.48,1.22"/><path class="cls-1" d="M115.28,45.29l-.52-4.49"/><path class="cls-1" d="M115.28,45.26l-.49-4.07"/><path class="cls-1" d="M119.62,63.81l.57-.26"/><path class="cls-1" d="M112.96,52.37l.91-1.02"/><path class="cls-1" d="M112.45,53.87l.51-1.5"/><path class="cls-1" d="M112.49,55.73l-.04-1.86"/><path class="cls-1" d="M113.02,57.71l-.53-1.98"/><path class="cls-1" d="M114.04,59.73l-1.01-2.02"/><path class="cls-1" d="M115.35,61.51l-1.32-1.78"/><path class="cls-1" d="M116.93,62.86l-1.57-1.35"/><path class="cls-1" d="M118.52,63.66l-1.59-.8"/><path class="cls-1" d="M125.9,36.05l-.6-2.2"/><path class="cls-1" d="M125.9,36.05l.22,1.86"/><path class="cls-1" d="M125.96,69.55l-.3.52"/><path class="cls-1" d="M125.96,69.55l.18-.6"/><path class="cls-1" d="M117.64,44.08l-1.28.74,1.28-.74Z"/><path class="cls-1" d="M114.02,45.98l-.34.19,1.6-.88"/><path class="cls-1" d="M122.44,45.99l2-1.84"/><path class="cls-1" d="M117.03,49.12l2-1.84"/><path class="cls-1" d="M123.09,49.79l1.01.57"/><path class="cls-1" d="M123.09,49.79l-.65-3.8"/><path class="cls-1" d="M117.68,52.91l1.01.57"/><path class="cls-1" d="M219.66,133.26v-8.68s.01.23.01.23"/><path class="cls-1" d="M232.61,121.64l-.57-.23"/><path class="cls-1" d="M233.65,122.27l-1.03-.63"/><path class="cls-1" d="M234.31,127.3l.64-.84"/><path class="cls-1" d="M233.41,128.03l.9-.74"/><path class="cls-1" d="M232.32,128.63l1.09-.6"/><path class="cls-1" d="M231.14,129.07l1.19-.44"/><path class="cls-1" d="M229.74,129.4l1.39-.33"/><path class="cls-1" d="M228.22,129.58l1.52-.17"/><path class="cls-1" d="M226.64,129.57h1.58"/><path class="cls-1" d="M229.59,128.65l1.22-.32"/><path class="cls-1" d="M228.3,128.83l1.29-.17"/><path class="cls-1" d="M232.76,127.32l-.88.56"/><path class="cls-1" d="M233.41,126.69l-.64.62"/><path class="cls-1" d="M233.69,123.84l-.56-.7"/><path class="cls-1" d="M233.99,124.59l-.3-.74"/><path class="cls-1" d="M232.34,122.52l.79.62"/><path class="cls-1" d="M231.37,122.01l.97.51"/><path class="cls-1" d="M230.3,121.64l1.08.37"/><path class="cls-1" d="M230.3,128.13l.53.18"/><path class="cls-1" d="M229.19,121.4l1.11.24"/><path class="cls-1" d="M229.19,127.89l1.11.24"/><path class="cls-1" d="M225.36,127.97l-1.21.32"/><path class="cls-1" d="M225.85,127.9l-.49.07"/><path class="cls-1" d="M227.94,127.77l1.24.12"/><path class="cls-1" d="M227.94,127.77l-1.08.02"/><path class="cls-1" d="M228.65,121.35l.54.05"/><path class="cls-1" d="M234.03,125.34l-.04-.75"/><path class="cls-1" d="M233.81,126.05l-.41.64"/><path class="cls-1" d="M233.81,126.05l.21-.72"/><path class="cls-1" d="M227.01,128.85l1.3-.02"/><path class="cls-1" d="M225.77,128.72l1.18.12"/><path class="cls-1" d="M225.77,128.72l1.24.12"/><path class="cls-1" d="M234.24,122.79l-.59-.53"/><path class="cls-1" d="M234.42,122.95l.57.81"/><path class="cls-1" d="M235.29,124.63l-.3-.88"/><path class="cls-1" d="M235.28,125.55l-.33.9"/><path class="cls-1" d="M235.29,124.84v-.2.91s0,7.76,0,7.76v-.91s0-7.15,0-7.15"/><path class="cls-1" d="M236.78,111.05l-2.6,8.7"/><path class="cls-1" d="M225.55,112.01l2.32-8.96"/><path class="cls-1" d="M228.1,120.41l-1.61-3.28"/><path class="cls-1" d="M223.42,247.51l-.28.86-.1,1.24.24,1.01.55.69,1.75,1.01.8.28.96-.15,1.02-.57.97-.93.82-1.18.57-1.31.27-1.3-.07-1.14-.4-.86-.68-.49-.21-.12"/><path class="cls-1" d="M229.45,244.65v3.95l-2.4,1.39-.2-.12-2.42-2.32"/><path class="cls-1" d="M269.64,224.74l.24,1.01.55.69"/><path class="cls-1" d="M268.26,221.63l-.28.86-.1,1.24.24,1.01.55.69,1.75,1.01.8.28.96-.15,1.02-.57.97-.93.82-1.18.57-1.31.27-1.3-.07-1.14-.4-.86-.68-.49-.22-.13"/><path class="cls-1" d="M274.3,218.76v3.97l-2.41,1.39-.2-.12-2.43-2.33"/><path class="cls-1" d="M41.22,142.26l-.28.86-.1,1.24.24,1.01.55.69,1.75,1.01.8.28.96-.15,1.02-.57.97-.93.82-1.18.57-1.31.27-1.3-.07-1.14-.4-.86-.68-.49-.15-.09"/><path class="cls-1" d="M47.25,139.46v3.89l-2.4,1.39-.2-.12-2.38-2.28"/><path class="cls-1" d="M219.66,125.6l-1.87.64-3.18,2.17-1.79,2.65-.2,2.84h0"/><path class="cls-1" d="M242.43,133.18h0s-.62-2.82-.62-2.82l-2.17-2.55-3.49-2.01-.87-.24"/><path class="cls-1" d="M187.24,76.73l8.1,1-2.85,9.82-8.54,29.45"/><path class="cls-1" d="M195.35,77.73l4.14-4.14"/><path class="cls-1" d="M203.75,111.9l-6.69,6.69"/><path class="cls-1" d="M178.98,116.39l2.87,2.31,4.01,1.65"/><path class="cls-1" d="M185.86,120.36l4.72.81,4.92-.12"/><path class="cls-1" d="M195.51,121.04l4.59-1.04,3.75-1.84"/><path class="cls-1" d="M178.94,116.38l-1.48-2.65.16-2.67,1.84-2.77,3.27-2.27.32-.11"/><path class="cls-1" d="M202.44,106.32l2.15,1.24,2.17,2.55.62,2.82"/><path class="cls-1" d="M92.1,113.57v3.91l-2.41,1.39-.2-.12-2.39-2.29"/><path class="cls-1" d="M86.07,116.38l-.28.86-.1,1.24.24,1.01.55.69,1.75,1.01.8.28.96-.15,1.02-.57.97-.93.82-1.18.57-1.31.27-1.3-.07-1.14-.4-.86-.68-.49-.17-.1"/><path class="cls-1" d="M36.49,61.02l5.63,3.25h.01"/><path class="cls-1" d="M42.12,142.43v-78.16"/><path class="cls-1" d="M269.12,143.58h0s7.91-4.56,7.91-4.56"/><path class="cls-1" d="M269.13,221.74v-78.16"/><path class="cls-1" d="M218.68,166.2l5.63,3.25,7.91-4.57"/><path class="cls-1" d="M235.24,163.14l28.25,16.31"/><path class="cls-1" d="M50.03,102.26l28.96-16.72"/><path class="cls-1" d="M263.5,169.67l-19.78-11.42"/><path class="cls-1" d="M107.19,74.94l2.87,2.31,4.01,1.65"/><path class="cls-1" d="M114.07,78.91l4.72.81,4.92-.12,4.59-1.04,3.75-1.84,2.52-2.44,1.01-2.78"/><path class="cls-1" d="M125.45,63.02l3.87,1.09,3.49,2.01,2.17,2.55.62,2.82v5.12l-1.01,2.78-2.52,2.44"/><path class="cls-1" d="M171.68,92.35v5.12l-1.01,2.78-2.52,2.44"/><path class="cls-1" d="M162.86,86.97l2.61,3.5-.65,1.56-2.24,1.62"/><path class="cls-1" d="M105.78,72.22l.2-2.84,1.79-2.65,3.18-2.17,4.23-1.46.2-.02"/><path class="cls-1" d="M168.01,97.47l2.52-2.44,1.01-2.78"/><path class="cls-1" d="M154.75,100.47l-4.72-.81-4.01-1.65"/><path class="cls-1" d="M157.68,83.39l3.16.23,4.43,1.25,3.49,2.01,2.17,2.55.62,2.82"/><path class="cls-1" d="M141.73,92.98l.2-2.84,1.79-2.65,3.18-2.17,4.23-1.46,4.47-.54"/><path class="cls-1" d="M36.5,57.96l187.82,108.44v3.04"/><path class="cls-1" d="M226.85,106.99l-28.05-16.19"/><path class="cls-1" d="M83.66,14.15l-8.21-7.45"/><path class="cls-1" d="M85.21,51.62l4.45,1.64"/><path class="cls-1" d="M71.18,52.24l1.41,2.72"/><path class="cls-1" d="M72.59,54.96l2.87,2.31,4.01,1.65"/><path class="cls-1" d="M79.47,58.93l4.72.81,4.92-.12"/><path class="cls-1" d="M89.17,59.6l4.53-1.02,3.75-1.84"/><path class="cls-1" d="M71.18,57.38l1.41,2.72"/><path class="cls-1" d="M71.11,52.16l.08,5.2"/><path class="cls-1" d="M72.59,60.11l2.87,2.31,4.01,1.65"/><path class="cls-1" d="M79.47,64.07l4.72.81,4.92-.12"/><path class="cls-1" d="M89.17,64.74l4.53-1.02,3.75-1.84"/><path class="cls-1" d="M105.79,77.43l1.41,2.72"/><path class="cls-1" d="M105.72,72.2l.08,5.2"/><path class="cls-1" d="M107.2,80.15l2.87,2.31,4.01,1.65"/><path class="cls-1" d="M114.08,84.11l4.72.81,4.92-.12"/><path class="cls-1" d="M123.78,84.79l4.53-1.02,3.75-1.84"/><path class="cls-1" d="M141.71,98.3l1.41,2.72"/><path class="cls-1" d="M141.64,93.08l.08,5.2"/><path class="cls-1" d="M143.12,101.03l2.87,2.31,4.01,1.65"/><path class="cls-1" d="M150,104.99l4.72.81,4.92-.12"/><path class="cls-1" d="M159.71,105.66l4.53-1.02,3.75-1.84"/><path class="cls-1" d="M147.53,91.11l.8,1.55"/><path class="cls-1" d="M148.33,92.66l1.63,1.32,2.29.94"/><path class="cls-1" d="M152.25,94.92l2.69.46,2.8-.07"/><path class="cls-1" d="M157.78,95.3l2.58-.58,2.14-1.05"/><path class="cls-1" d="M207.5,112.92v5.12l-1.01,2.78-2.52,2.44"/><path class="cls-1" d="M177.54,118.88l1.41,2.72"/><path class="cls-1" d="M177.55,118.85l-.08-5.2"/><path class="cls-1" d="M178.95,121.6l2.87,2.31,4.01,1.65"/><path class="cls-1" d="M185.83,125.56l4.72.81,4.92-.12"/><path class="cls-1" d="M195.53,126.24l4.53-1.02,3.75-1.84"/><path class="cls-1" d="M242.55,133.41v5.12l-1.01,2.78-2.52,2.44"/><path class="cls-1" d="M212.58,139.36l1.41,2.72"/><path class="cls-1" d="M212.51,134.14l.08,5.2"/><path class="cls-1" d="M213.99,142.09l2.87,2.31,4.01,1.65"/><path class="cls-1" d="M220.87,146.05l4.72.81,4.92-.12"/><path class="cls-1" d="M230.58,146.72l4.53-1.02,3.75-1.84"/><path class="cls-1" d="M91.68,43.27l3.03.85,3.49,2.01,2.17,2.55.62,2.82v5.12l-1.01,2.78-2.52,2.44"/><path class="cls-1" d="M71.18,52.24h0s.2-2.84.2-2.84l1.79-2.65,3.18-2.17,4.23-1.46.83-.1"/><path class="cls-1" d="M141.58,49.37v.03s0-.03,0-.03Z"/><path class="cls-1" d="M141.62,48.46v.09s0-.09,0-.09Z"/><path class="cls-1" d="M141.74,47.66v.09s0-.09,0-.09Z"/><path class="cls-1" d="M143.25,44.72v-.03s0,.03,0,.03Z"/><path class="cls-1" d="M143.88,44.67h.03s-.03,0-.03,0Z"/><path class="cls-1" d="M144.67,44.94h0s0,0,0,0Z"/><path class="cls-1" d="M146.04,46.16l.1.08-.1-.08Z"/><path class="cls-1" d="M146.76,47.15h.02s-.02,0-.02,0Z"/><path class="cls-1" d="M143.62,58.49l-.02-.03-.08.07.09-.05Z"/><path class="cls-1" d="M145.99,49.22h0s-.12-.44-.12-.44l.12.44Z"/><path class="cls-1" d="M141.61,48.51l.14-.92"/><path class="cls-1" d="M141.58,49.51l.04-1"/><path class="cls-1" d="M142.6,53.84l-.42-1.08"/><path class="cls-1" d="M165.85,59.94c1.53-1.39,3.58-.62,3.58-.62,0,0,1.15.51,1.88,1.81s1.63,3.4,1.54,5.98-.78,4.11-3.32,5.24"/><path class="cls-1" d="M165.29,72.35c2.23-.01,4.65-.75,4.65-.75"/><path class="cls-1" d="M167.6,62.71l-1.39.83"/><path class="cls-1" d="M160.32,74.16l-3.04.58-.89.09"/><path class="cls-1" d="M169.29,54.48l-1.18,2.2-1.1,1.05-1.24.9"/><path class="cls-1" d="M161.19,85.23l-1.61-.95-1.7-.31"/><path class="cls-1" d="M159.33,74.35l.63.65.26,1.24-.37,1.07-1.74,3.31-.44,2.81.3.79.25.25"/><path class="cls-1" d="M152.66,60.49l4.02.34"/><path class="cls-1" d="M148.1,58.9l1.66.73,2.91.86"/><path class="cls-1" d="M146.72,58.08l1.54.92"/><path class="cls-1" d="M153.94,74.43l-.43.33-.36.93.09,1.15,1.65,3.18.52,1.6.22,1.96-.29.97"/><path class="cls-1" d="M115.06,65.58l1.34,1.04"/><path class="cls-1" d="M113.22,69.11l.46,1.06.62,1.02-1.08-2.08Z"/><path class="cls-1" d="M115.86,72.88l-1.56-1.69"/><path class="cls-1" d="M119.11,73.96l-1.54-.12-1.72-.96"/><path class="cls-1" d="M119.11,73.96l-.73.05-.81-.17"/><path class="cls-1" d="M114.21,58.08l-.34-1.04-.18-1.05"/><path class="cls-1" d="M116.55,60.62l.89,1.04"/><path class="cls-1" d="M111.05,48.91l1.43-1.79"/><path class="cls-1" d="M124.82,50.94v-.02s0,.02,0,.02Z"/><path class="cls-1" d="M128.03,60.18v.05s0-.05,0-.05Z"/><path class="cls-1" d="M127.77,55.29l.05.08-.05-.08Z"/><path class="cls-1" d="M124.83,50.96v-.03s0,.03,0,.03Z"/><path class="cls-1" d="M127.36,61.35v.03s0-.03,0-.03Z"/><path class="cls-1" d="M126.77,61.86h0s0,0,0,0Z"/><path class="cls-1" d="M126.75,61.88h.02s-.02,0-.02,0Z"/><path class="cls-1" d="M124.87,70.7l-.02.02.02-.02Z"/><path class="cls-1" d="M125.81,69.82v.03s0-.03,0-.03Z"/><path class="cls-1" d="M124.83,70.72h0s0,0,0,0Z"/><path class="cls-1" d="M122.63,30.99v-.02s0,.02,0,.02Z"/><path class="cls-1" d="M120.3,63.42l-.68.39-1.34-7.5"/><path class="cls-1" d="M117.03,49.12l5.41-3.12"/><path class="cls-1" d="M116.3,63.85l-2.64,1.52"/><path class="cls-1" d="M125.46,63.11l.15.86"/><path class="cls-1" d="M118.44,72.49l-.57.07"/><path class="cls-1" d="M118.26,53.21l.58.38"/><path class="cls-1" d="M118.14,43.61l-.51.48"/><path class="cls-1" d="M119.59,46.52l-.76.99"/><path class="cls-1" d="M119.95,45.82l-.36.71"/><path class="cls-1" d="M120.17,45.38l-.22.43"/><path class="cls-1" d="M120.73,42.26l-.15,1.61"/><path class="cls-1" d="M118.56,43.01l-.42.6"/><path class="cls-1" d="M118.9,42.2l-.33.79"/><path class="cls-1" d="M119.12,41.23l-.22.97"/><path class="cls-1" d="M119.21,40.18l-.09,1.04"/><path class="cls-1" d="M119.15,39.19l.05.48"/><path class="cls-1" d="M118.62,37.48l.42,1.26"/><path class="cls-1" d="M120.68,40.66l.05,1.6"/><path class="cls-1" d="M116.15,40.2l.34-1.37"/><path class="cls-1" d="M116.06,40.84l.08-.64"/><path class="cls-1" d="M116.05,41.68l.02-.84"/><path class="cls-1" d="M112.49,47.12l1.69-1.26"/><path class="cls-1" d="M111.71,47.95l.78-.83"/><path class="cls-1" d="M110.3,51.18l.28-1.19"/><path class="cls-1" d="M114.56,60.53l-.55-.84"/><path class="cls-1" d="M115.88,62.04l-.69-.72"/><path class="cls-1" d="M117.22,63.04l-.36-.24"/><path class="cls-1" d="M117.89,63.4l-.67-.36"/><path class="cls-1" d="M119.37,70.86l.02-.89"/><path class="cls-1" d="M116.8,72.12l.43.24"/><path class="cls-1" d="M116.12,71.63l.68.49"/><path class="cls-1" d="M116.51,71.33h-.61"/><path class="cls-1" d="M117.46,70.75l-.31.32"/><path class="cls-1" d="M117.44,68.03l.17.37"/><path class="cls-1" d="M117.23,67.66l.21.37"/><path class="cls-1" d="M116.7,66.95l.28.35"/><path class="cls-1" d="M116.08,66.31l.32.31"/><path class="cls-1" d="M115.4,65.78l.34.25"/><path class="cls-1" d="M112.9,67.08l.04-.44"/><path class="cls-1" d="M112.96,68.06l-.05-.5"/><path class="cls-1" d="M113.22,69.11l-.16-.53"/><path class="cls-1" d="M117.57,73.84l-.43-.17"/><path class="cls-1" d="M114.41,53.39l.43-.4"/><path class="cls-1" d="M113.95,54.1l.4-.65"/><path class="cls-1" d="M113.79,54.52l.15-.42"/><path class="cls-1" d="M113.7,54.98l.09-.46"/><path class="cls-1" d="M115.67,57.91l.03-.56"/><path class="cls-1" d="M115.72,58.48l-.05-.57"/><path class="cls-1" d="M115.84,59.04l-.12-.56"/><path class="cls-1" d="M116,59.56l-.16-.52"/><path class="cls-1" d="M116.2,60.02l-.2-.46"/><path class="cls-1" d="M115.66,60.46l-.7-.94"/><path class="cls-1" d="M116.96,61.89l-1.3-1.43"/><path class="cls-1" d="M121.36,64.99l-.7.29"/><path class="cls-1" d="M121.96,64.5l-.6.49"/><path class="cls-1" d="M122.52,63.6l-.56.9"/><path class="cls-1" d="M120.83,62.5l-.26.59"/><path class="cls-1" d="M121,61.76l-.17.74"/><path class="cls-1" d="M121.04,61.35l-.04.41"/><path class="cls-1" d="M121,60.47l.04.45"/><path class="cls-1" d="M120.77,59.53l.14.47"/><path class="cls-1" d="M122.76,59.79l.1.65"/><path class="cls-1" d="M122.41,58.5l.2.64"/><path class="cls-1" d="M121.88,57.25l.29.62"/><path class="cls-1" d="M121.2,56.09l.36.57"/><path class="cls-1" d="M120.39,55.04l.41.51"/><path class="cls-1" d="M119.5,57.34l.31.39"/><path class="cls-1" d="M119.96,54.57l-.55-.52"/><path class="cls-1" d="M118.84,56.69l.34.3"/><path class="cls-1" d="M116.36,44.82l1.27-.72"/><path class="cls-1" d="M121.49,64.91l5.41-3.12"/><path class="cls-1" d="M119.9,65.38l.15.85"/><path class="cls-1" d="M119.9,65.38l.81,5"/><path class="cls-1" d="M118.78,65.22l.5,3.37"/><path class="cls-1" d="M118.78,65.22l.52,3.54"/><path class="cls-1" d="M112.33,59.42l.83,1.23"/><path class="cls-1" d="M115.28,45.29l-1.1.57"/><path class="cls-1" d="M118.52,63.66l-.63-.25"/><path class="cls-1" d="M118.52,63.66l-1.41-7.69"/><path class="cls-1" d="M116.02,49.83l-2.4,1.75"/><path class="cls-1" d="M116.02,49.83l.37,2.2"/><path class="cls-1" d="M125.38,62.66l.08.45"/><path class="cls-1" d="M235.09,133.82l.08-.11-.08.11Z"/><path class="cls-1" d="M219.81,133.7l-.02.05.02-.05Z"/><path class="cls-1" d="M230.71,128.27l-1.95-.42"/><path class="cls-1" d="M234.18,119.75l-.75,1.05"/><path class="cls-1" d="M233.86,94.05l2.11-.1,1.22,3.09"/><path class="cls-1" d="M225.55,112.01l-.02,1.71"/><path class="cls-1" d="M226.48,117.13l-.74-2.17-.21-1.23"/><path class="cls-1" d="M233.42,120.8l-2.09.68,1.41-.25.67-.43Z"/><path class="cls-1" d="M226.54,128.8l2.14-7.7"/><path class="cls-1" d="M223.61,136.77l1.46.37"/><path class="cls-1" d="M222.34,136.26l1.27.52"/><path class="cls-1" d="M221.3,135.63l1.03.63"/><path class="cls-1" d="M220.53,134.94l.77.69"/><path class="cls-1" d="M219.96,134.14l.57.81"/><path class="cls-1" d="M219.66,133.26l.3.88"/><path class="cls-1" d="M227.54,129.6l-1.6-.09"/><path class="cls-1" d="M228.22,128.83h-1.27"/><path class="cls-1" d="M229.51,128.67l-1.29.16"/><path class="cls-1" d="M229.08,129.5l-1.54.1"/><path class="cls-1" d="M230.5,129.25l-1.41.25"/><path class="cls-1" d="M231.74,128.87l-1.25.38"/><path class="cls-1" d="M232.91,128.34l-1.16.53"/><path class="cls-1" d="M230.75,128.35l-1.24.32"/><path class="cls-1" d="M232.32,127.62l-1.58.73"/><path class="cls-1" d="M233.1,127.02l-.78.6"/><path class="cls-1" d="M233.92,127.66l-1.01.68"/><path class="cls-1" d="M234.49,127.06l-.57.59"/><path class="cls-1" d="M235.17,125.95l-.48.9"/><path class="cls-1" d="M235.32,125.03l-.15.92"/><path class="cls-1" d="M233.64,126.38l-.54.65"/><path class="cls-1" d="M233.94,125.72l-.31.66"/><path class="cls-1" d="M234.04,125.01l-.1.71"/><path class="cls-1" d="M233.89,124.26l.15.75"/><path class="cls-1" d="M233.48,123.52l.42.74"/><path class="cls-1" d="M235.16,124.14l.17.89"/><path class="cls-1" d="M234.72,123.32l.44.82"/><path class="cls-1" d="M234.06,122.6l.66.72"/><path class="cls-1" d="M233.14,121.93l.92.67"/><path class="cls-1" d="M232.8,122.84l.68.68"/><path class="cls-1" d="M231.91,122.27l.89.58"/><path class="cls-1" d="M230.87,121.82l1.04.45"/><path class="cls-1" d="M229.75,121.51l1.12.31"/><path class="cls-1" d="M228.65,121.34l1.1.17"/><path class="cls-1" d="M232.08,121.4l1.07.53"/><path class="cls-1" d="M234.95,134.22l-.64.84"/><path class="cls-1" d="M233.41,135.8l.9-.74"/><path class="cls-1" d="M232.32,136.39l1.09-.6"/><path class="cls-1" d="M231.14,136.84l1.19-.44"/><path class="cls-1" d="M229.74,137.17l1.39-.33"/><path class="cls-1" d="M228.22,137.34l1.52-.17"/><path class="cls-1" d="M226.64,137.33l-1.57-.19"/><path class="cls-1" d="M226.64,137.33h1.58"/><path class="cls-1" d="M225.77,128.72l-1.54-.36"/><path class="cls-1" d="M235.28,133.31l-.33.9"/><path class="cls-1" d="M231.34,121.48l1-.11"/><path class="cls-1" d="M228.62,121.09l2.71.39"/><path class="cls-1" d="M228.72,121.11l-2.13,7.7"/><path class="cls-1" d="M228.67,121.1l-2.14,7.7"/><path class="cls-1" d="M114.93,42.37l-20.66-11.93"/><path class="cls-1" d="M117.86,69.23l-.15,1.08"/><path class="cls-1" d="M166.65,72.23l-1.75-1.01"/><path class="cls-1" d="M143.64,58.94l-21.06-12.16"/><path class="cls-1" d="M162.86,86.97l-1.65-1.69"/><path class="cls-1" d="M224.31,247.62v-78.16"/><path class="cls-1" d="M222.54,246.59l.89.86"/><path class="cls-1" d="M267.46,220.78l.82.79"/><path class="cls-1" d="M269.13,181.01l-36.9,21.3"/><path class="cls-1" d="M223.42,247.51l-1.08-1.03"/><path class="cls-1" d="M268.26,221.63l-1-.96"/><path class="cls-1" d="M41.22,142.26l-.92-.89"/><path class="cls-1" d="M202.44,106.32l-3.63-15.53"/><path class="cls-1" d="M225.57,252.31l-.55-.69-.24-1.01.1-1.24.34-1.04"/><path class="cls-1" d="M227.04,249.99l-2.57-2.47"/><path class="cls-1" d="M271.89,224.11l-2.58-2.47"/><path class="cls-1" d="M269.64,224.74l.1-1.24.34-1.05"/><path class="cls-1" d="M41.24,142.2l-.74-.71"/><path class="cls-1" d="M43.38,147.07l-.55-.69-.24-1.01.1-1.24.34-1.04"/><path class="cls-1" d="M44.85,144.74l-2.54-2.43"/><path class="cls-1" d="M216.91,138.95l-2.87-2.31-1.41-2.72"/><path class="cls-1" d="M242.43,133.18l-1.01,2.78"/><path class="cls-1" d="M241.42,135.96c-2.48,4.05-10.86,5.32-10.86,5.32,0,0-7.15.98-13.66-2.34"/><path class="cls-1" d="M199.49,73.58l-.61,11.25"/><path class="cls-1" d="M199.49,73.58l-5.54-3.55"/><path class="cls-1" d="M207.37,112.94l-1.01,2.78-2.52,2.44"/><path class="cls-1" d="M277.04,135.96l-52.71,30.43"/><path class="cls-1" d="M85.21,51.62l-1.55-37.47"/><path class="cls-1" d="M85.21,51.62l2.22.82"/><path class="cls-1" d="M73.71,82.49l-23.68,13.67"/><path class="cls-1" d="M45.92,100.28l-3.32,1.92"/><path class="cls-1" d="M69.98,80.33l-19.94,11.51"/><path class="cls-1" d="M86.93,116.56v-26.44"/><path class="cls-1" d="M50.03,91.84v-23.03"/><path class="cls-1" d="M89.7,118.87l-2.54-2.44"/><path class="cls-1" d="M88.22,121.19l-.55-.69-.24-1.01"/><path class="cls-1" d="M86.07,116.38l-.85-.82"/><path class="cls-1" d="M86.09,116.32l-.67-.64"/><path class="cls-1" d="M87.44,119.49l.1-1.24.34-1.04"/><path class="cls-1" d="M42.68,102.19l176.01,101.62"/><path class="cls-1" d="M263.5,173.35l-22.97-13.26"/><path class="cls-1" d="M268.88,180.94l-3.64-2.1"/><path class="cls-1" d="M107.19,74.94l-1.41-2.72"/><path class="cls-1" d="M146.01,98.01l-2.87-2.31-1.41-2.72"/><path class="cls-1" d="M164.26,99.32l3.75-1.84"/><path class="cls-1" d="M164.26,99.32l-4.59,1.04-4.92.12"/><path class="cls-1" d="M88.39,11.47l-6.47-2.38"/><path class="cls-1" d="M75.45,6.7l6.47,2.38"/><path class="cls-1" d="M75.45,6.7l12.94,4.77"/><path class="cls-1" d="M79.55,10.42l-4.1-3.73"/><path class="cls-1" d="M96.6,18.92l-12.92-4.73"/><path class="cls-1" d="M92.49,15.19l-4.11-3.73"/><path class="cls-1" d="M96.6,18.92l-8.21-7.45"/><path class="cls-1" d="M96.6,18.92l-4.11-3.73"/><path class="cls-1" d="M100.97,51.51l-1.01,2.78-2.52,2.44"/><path class="cls-1" d="M146.04,49.17l-.11-.4h-.06"/><path class="cls-1" d="M143.56,55.73l-.46-.84"/><path class="cls-1" d="M141.61,50.02l-.03-.62"/><path class="cls-1" d="M141.7,50.83l-.06-.44"/><path class="cls-1" d="M143.65,44.67l-.41.02"/><path class="cls-1" d="M161.66,60.24l4.05-1.57"/><path class="cls-1" d="M147.67,90.98l1.07-2.06"/><path class="cls-1" d="M155.52,83.94l-1.06.13-2.56,1.18"/><path class="cls-1" d="M156.41,60.81h.23s1.85-.06,1.85-.06l3.13-.5"/><path class="cls-1" d="M152.02,60.3l1.45.26"/><path class="cls-1" d="M143.08,44.75l-1.22.71"/><path class="cls-1" d="M141.75,47.59l.22-.82"/><path class="cls-1" d="M143.1,54.89l-.5-1.06"/><path class="cls-1" d="M142,46.71l.35-.84"/><path class="cls-1" d="M141.74,47.75l.18-.73"/><path class="cls-1" d="M141.63,48.55l.11-.8"/><path class="cls-1" d="M141.59,49.4l.04-.86"/><path class="cls-1" d="M144.67,44.93l-.75-.28"/><path class="cls-1" d="M146.78,47.14l-.28-.4"/><path class="cls-1" d="M167.59,62.67l-.6-1.07"/><path class="cls-1" d="M163.43,77.4l1.22-.71"/><path class="cls-1" d="M163.21,77.02l1.22-.71"/><path class="cls-1" d="M160.32,74.16l1.71-.77"/><path class="cls-1" d="M149.96,87.26l-1.23,1.65"/><path class="cls-1" d="M143.97,53.48l.18,1.34.81,1.57,1.16,1.2,1.03.76"/><path class="cls-1" d="M115.28,45.26l-.65.37"/><path class="cls-1" d="M117.68,52.91l-.65-3.8"/><path class="cls-1" d="M117.68,52.91l5.41-3.12"/><path class="cls-1" d="M116.41,52.1l-1.48.85"/><path class="cls-1" d="M119.41,54.04l-.57-.46"/><path class="cls-1" d="M119.39,69.96l-.09-1.21"/><path class="cls-1" d="M122.89,60.48l-.03,1.8"/><path class="cls-1" d="M120.91,60l.09.46"/><path class="cls-1" d="M122.17,57.87l.25.63"/><path class="cls-1" d="M119.17,56.99l.33.35"/><path class="cls-1" d="M120.36,58.6l-.26-.45"/><path class="cls-1" d="M118.78,65.22l-.68-.25"/><path class="cls-1" d="M118.28,56.31l.56.38"/><path class="cls-1" d="M116.02,49.83l-2.15,1.52"/><path class="cls-1" d="M117.03,49.12l1.8-1.6"/><path class="cls-1" d="M117.68,52.91l.58.3"/><path class="cls-1" d="M117.19,61.96l.92-.53"/><path class="cls-1" d="M124.01,50.31l-.34-.23"/><path class="cls-1" d="M127.95,55.77l-.12-.4"/><path class="cls-1" d="M112.33,59.42l-1.31-2.75"/><path class="cls-1" d="M126.6,52.97l-.34-.45"/><path class="cls-1" d="M126.13,67.37l.06.82"/><path class="cls-1" d="M125.9,65.68l.13.84"/><path class="cls-1" d="M125.76,64.82l.14.86"/><path class="cls-1" d="M125.61,63.97l.15.85"/><path class="cls-1" d="M116.97,71.19l2.4-1.38"/><path class="cls-1" d="M120.41,44.65l-.24.73"/><path class="cls-1" d="M119.2,39.67v.51"/><path class="cls-1" d="M116.49,38.83l.27-.56"/><path class="cls-1" d="M115.49,35.52l.45-.68"/><path class="cls-1" d="M114.84,37.43l.27-1.05"/><path class="cls-1" d="M114.71,38.84l.11-1.12"/><path class="cls-1" d="M113.54,58.85l-.39-.83"/><path class="cls-1" d="M114.01,59.7l-.47-.85"/><path class="cls-1" d="M114.28,62.01l-1.12-1.35"/><path class="cls-1" d="M117.41,64.61l-.71-.45"/><path class="cls-1" d="M117.41,64.61l.7.36"/><path class="cls-1" d="M115.19,61.32l-.62-.79"/><path class="cls-1" d="M116.54,62.59l-.66-.55"/><path class="cls-1" d="M116.98,67.3l.25.36"/><path class="cls-1" d="M116.4,66.62l.3.33"/><path class="cls-1" d="M115.75,66.03l.34.28"/><path class="cls-1" d="M112.9,67.55v-.48"/><path class="cls-1" d="M113.06,68.58l-.11-.52"/><path class="cls-1" d="M117.99,73.95l-.42-.11"/><path class="cls-1" d="M120.55,72.67l.17-.55"/><path class="cls-1" d="M121.04,60.91v.44"/><path class="cls-1" d="M120.59,59.06l.19.47"/><path class="cls-1" d="M122.61,59.14l.15.65"/><path class="cls-1" d="M121.55,56.66l.33.59"/><path class="cls-1" d="M120.81,55.55l.39.54"/><path class="cls-1" d="M119.81,57.73l.29.42"/><path class="cls-1" d="M119.96,54.57l.43.47"/><path class="cls-1" d="M116.23,39.73l.23-.85"/><path class="cls-1" d="M120.36,58.6l.23.46"/><path class="cls-1" d="M119.9,65.38l.76-.1"/><path class="cls-1" d="M120.49,39.18l.19,1.48"/><path class="cls-1" d="M110.3,53.82l.7,2.79"/><path class="cls-1" d="M111.05,48.91l.65-.96"/><path class="cls-1" d="M111.05,48.91l-.47,1.08"/><path class="cls-1" d="M124.82,50.92l-.57-.46"/><path class="cls-1" d="M125.8,51.92l-.43-.47"/><path class="cls-1" d="M126.6,52.97l-.39-.54"/><path class="cls-1" d="M127.29,54.13l-.33-.59"/><path class="cls-1" d="M127.82,55.38l-.25-.63"/><path class="cls-1" d="M128.17,56.67l-.15-.65"/><path class="cls-1" d="M128.32,57.95l-.05-.64"/><path class="cls-1" d="M128.27,59.16l.05-.59"/><path class="cls-1" d="M128.03,60.23l.15-.51"/><path class="cls-1" d="M127.62,61.06l.22-.37"/><path class="cls-1" d="M126.16,68.86l.04-.42"/><path class="cls-1" d="M123.09,49.79l.58.3"/><path class="cls-1" d="M226.85,127.84l1.61-.02"/><path class="cls-1" d="M225.15,129.39l.79.12"/><path class="cls-1" d="M230.81,128.33l1.07-.46"/><path class="cls-1" d="M230.09,137.08l.4-.07"/><path class="cls-1" d="M228.66,137.29l.42-.03"/><path class="cls-1" d="M227.07,137.34l.46.03"/><path class="cls-1" d="M225.52,137.2l.42.07"/><path class="cls-1" d="M230.01,128.07l.56.15"/><path class="cls-1" d="M228.91,127.87l.54.08"/><path class="cls-1" d="M227.66,127.78l.63.03"/><path class="cls-1" d="M225.09,128.04l.64-.12"/><path class="cls-1" d="M226.48,117.13l-.95-3.4"/><path class="cls-1" d="M232.75,121.24l-.41.13"/><path class="cls-1" d="M233.7,120.51l-.28.29"/><path class="cls-1" d="M234.18,119.75l-.47.76"/><path class="cls-1" d="M237.94,103.83l-1.17,7.21"/><path class="cls-1" d="M237.92,100.79l.02,3.04"/><path class="cls-1" d="M237.76,99.45l.16,1.35"/><path class="cls-1" d="M237.51,98.2l.25,1.25"/><path class="cls-1" d="M237.19,97.04l.32,1.16"/><path class="cls-1" d="M233.16,94.29l.71-.24"/><path class="cls-1" d="M232.45,94.69l.7-.39"/><path class="cls-1" d="M231.75,95.26l.7-.57"/><path class="cls-1" d="M230.38,97.05l1.37-1.79"/><path class="cls-1" d="M227.87,103.06l2.51-6.01"/><path class="cls-1" d="M225.5,113.15l.05-1.14"/><path class="cls-1" d="M225.53,113.73l-.04-.58"/><path class="cls-1" d="M225.61,114.32l-.08-.6"/><path class="cls-1" d="M225.75,114.96l-.13-.63"/><path class="cls-1" d="M225.93,115.62l-.19-.67"/><path class="cls-1" d="M226.48,117.13l-.55-1.5"/><path class="cls-1" d="M224.14,128.29s-3.06-.85-3.38-2.67,1.1-2.84,2.16-3.3,2.5-.97,4.7-1.01"/><path class="cls-1" d="M225.07,129.38c-2.29-.46-4.98-1.58-5.35-3.74s1.3-3.35,2.55-3.91,2.96-1.14,5.57-1.2"/><polygon class="cls-3" points="225.96 127.12 233.81 100.06 234.75 98.49 234.75 100.22 226.71 128.81 225.5 128.66 225.96 127.12"/><path class="cls-3" d="M166.47,63.25l-.37.39s-1.7-2.17-.74-3.54,3.09-.37,3.86.47,2.57,3.37,2.48,7.83-4.63,4.85-4.63,4.85l-2.77.25s-2.64.06-2.81,1.13.6,2.51,1.83,2.26l.13.55s-1.04.38-1.86-.72-.95-2.68.14-3.32c1.61-.95,6.32-.3,7.84-1.72s1.98-2.92,1.12-7.12-3.61-4.88-4.37-4.42-1.1,1.39.16,3.08Z"/><path class="cls-3" d="M143.55,58.86v-.75s-3.4-4.46-3.08-8.69,2.54-3.97,3.68-2.8,1.68,2.54,1.68,2.54l.41-.33s-1.89-4.12-4.25-3.56-2.23,5.11-1.72,7.09,1.81,4.58,3.29,6.5Z"/></g></svg>