<?xml version="1.0" encoding="UTF-8"?><svg id="Layer_2" xmlns="http://www.w3.org/2000/svg" viewBox="0 0 206.1 196.75"><defs><style>.cls-1{fill:#141823;}.cls-2{fill:none;stroke:#fff;stroke-linecap:round;stroke-linejoin:round;stroke-width:.5px;}.cls-3{fill:#fff;}.cls-4{fill:#68dbff;}</style></defs><g id="Layer_1-2"><path class="cls-1" d="M68.81,127.98s-2.03-38.5,34.19-59.21c0,0,33.84,17.09,34.33,59.21,0,0-32.54,20.78-68.52,0Z"/><path class="cls-4" d="M77.87,106.4l1.62,4.74h.07l1.62-4.74h.95l-2.09,5.82h-1.01l-2.09-5.82h.95Z"/><path class="cls-4" d="M83.84,106.4v5.82h-.88v-5.82h.88Z"/><path class="cls-4" d="M87,112.22h-1.88v-5.82h1.94c.57,0,1.06.12,1.47.35.41.23.72.56.94,1,.22.43.33.95.33,1.55s-.11,1.13-.33,1.56-.54.77-.96,1c-.42.23-.92.35-1.51.35ZM86,111.45h.96c.44,0,.81-.08,1.1-.25.29-.17.51-.41.66-.73.15-.32.22-.71.22-1.17s-.07-.84-.22-1.16c-.15-.32-.36-.56-.65-.72-.29-.17-.64-.25-1.07-.25h-1.01v4.28Z"/><path class="cls-4" d="M90.89,112.22v-5.82h3.65v.76h-2.77v1.77h2.58v.75h-2.58v1.78h2.8v.76h-3.68Z"/><path class="cls-4" d="M100.77,109.31c0,.62-.11,1.16-.34,1.6-.23.45-.54.79-.93,1.03-.39.24-.84.36-1.34.36s-.95-.12-1.35-.36c-.39-.24-.71-.58-.93-1.03-.23-.45-.34-.98-.34-1.6s.11-1.15.34-1.6c.23-.45.54-.79.93-1.03.4-.24.84-.36,1.35-.36s.95.12,1.34.36c.39.24.71.58.93,1.03.23.45.34.98.34,1.6ZM99.9,109.31c0-.47-.08-.87-.23-1.2-.15-.33-.36-.57-.62-.74-.26-.17-.56-.25-.9-.25s-.63.08-.9.25c-.26.17-.47.41-.62.74s-.23.72-.23,1.2.08.87.23,1.2c.15.33.36.57.62.74.26.17.56.25.9.25s.63-.08.9-.25c.26-.17.47-.41.62-.74.15-.32.23-.72.23-1.2Z"/><path class="cls-4" d="M105.8,108.23c-.06-.17-.13-.33-.22-.46-.09-.14-.2-.25-.33-.35s-.27-.17-.43-.22c-.16-.05-.34-.08-.53-.08-.33,0-.62.08-.89.25-.26.17-.47.42-.62.74-.15.32-.23.72-.23,1.19s.08.87.23,1.2c.15.33.36.57.63.74.27.17.57.25.91.25.32,0,.59-.06.83-.19.24-.13.42-.31.55-.55.13-.24.2-.51.2-.83l.23.04h-1.66v-.72h2.29v.66c0,.49-.1.91-.31,1.27-.21.36-.49.64-.86.83-.36.2-.78.29-1.25.29-.53,0-.99-.12-1.38-.36-.4-.24-.71-.59-.93-1.03-.22-.45-.33-.98-.33-1.59,0-.46.06-.88.19-1.25s.31-.68.54-.94c.23-.26.51-.46.83-.59.32-.14.66-.21,1.04-.21.31,0,.61.05.88.14.27.09.51.22.73.4.21.17.39.37.53.61.14.23.23.49.28.78h-.9Z"/><path class="cls-4" d="M108.16,112.22h-.93l2.09-5.82h1.01l2.09,5.82h-.93l-1.64-4.76h-.05l-1.65,4.76ZM108.32,109.94h3.02v.74h-3.02v-.74Z"/><path class="cls-4" d="M113.27,106.4h1.06l1.85,4.52h.07l1.85-4.52h1.07v5.82h-.84v-4.21h-.05l-1.72,4.2h-.69l-1.72-4.2h-.05v4.21h-.83v-5.82Z"/><path class="cls-4" d="M120.45,112.22v-5.82h3.65v.76h-2.77v1.77h2.58v.75h-2.58v1.78h2.8v.76h-3.68Z"/><path class="cls-4" d="M128.45,107.93c-.03-.27-.16-.48-.38-.63s-.5-.22-.83-.22c-.24,0-.45.04-.62.11-.17.08-.31.18-.4.31-.1.13-.14.28-.14.44,0,.14.03.26.1.36.07.1.15.18.26.25s.22.12.34.17c.12.04.24.08.36.11l.57.15c.19.04.38.11.57.18.19.08.38.18.54.31.17.13.3.28.41.47s.15.41.15.67c0,.33-.08.62-.25.88-.17.26-.42.46-.74.61-.32.15-.71.22-1.16.22s-.81-.07-1.13-.21c-.32-.14-.57-.33-.75-.59-.18-.25-.28-.56-.3-.91h.88c.02.21.08.39.21.52.12.14.27.24.46.31s.4.1.62.1c.25,0,.47-.04.66-.12.19-.08.35-.19.46-.33.11-.14.17-.31.17-.5,0-.17-.05-.31-.15-.42-.1-.11-.23-.2-.39-.27s-.35-.14-.56-.19l-.69-.19c-.47-.13-.83-.31-1.11-.56-.27-.25-.41-.57-.41-.98,0-.33.09-.63.27-.88s.43-.44.74-.58c.31-.14.66-.21,1.05-.21s.74.07,1.04.21c.3.14.54.33.71.57.17.24.26.52.27.83h-.85Z"/><path class="cls-3" d="M84.71,116.49v-.36h3.16v.36h-1.38v4.01h-.4v-4.01h-1.38Z"/><path class="cls-3" d="M89.54,120.56c-.31,0-.57-.07-.79-.21-.22-.14-.4-.34-.52-.59-.12-.25-.18-.55-.18-.88s.06-.62.18-.88.29-.46.5-.6c.21-.15.46-.22.75-.22.18,0,.35.03.51.1.16.06.31.16.44.3.13.13.24.3.31.5.08.2.12.44.12.71v.19h-2.56v-.33h2.17c0-.21-.04-.4-.13-.57s-.2-.3-.35-.4-.32-.15-.52-.15c-.21,0-.39.06-.55.17-.16.11-.28.26-.37.44-.09.18-.13.38-.13.6v.2c0,.26.04.49.13.68.09.19.22.34.38.45.17.11.36.16.59.16.15,0,.29-.02.41-.07s.22-.11.3-.2c.08-.08.14-.17.18-.27l.36.12c-.05.14-.13.27-.24.38-.11.12-.25.21-.42.28-.17.07-.36.11-.58.11Z"/><path class="cls-3" d="M92.97,120.56c-.29,0-.55-.07-.76-.22-.22-.15-.38-.35-.5-.6-.12-.25-.18-.54-.18-.87s.06-.62.18-.88.29-.46.51-.6c.22-.15.47-.22.75-.22.22,0,.42.04.59.13.18.08.32.2.44.36.12.15.19.33.22.53h-.38c-.04-.18-.13-.34-.29-.47-.15-.13-.34-.2-.58-.2-.21,0-.39.06-.55.17-.16.11-.29.27-.38.47-.09.2-.13.43-.13.7s.04.5.13.7c.09.2.21.36.37.48.16.12.35.17.56.17.14,0,.28-.03.4-.08s.22-.13.3-.23c.08-.1.14-.22.17-.36h.38c-.03.2-.1.37-.21.53-.11.15-.25.27-.43.36-.18.09-.38.13-.61.13Z"/><path class="cls-3" d="M95.41,118.45v2.05h-.38v-4.36h.38v1.6h.03c.08-.17.2-.3.36-.41.16-.1.37-.15.61-.15.22,0,.42.05.58.14.17.09.3.22.39.4s.14.4.14.66v2.12h-.38v-2.1c0-.27-.07-.48-.22-.64-.15-.16-.35-.23-.61-.23-.17,0-.33.04-.47.11-.14.07-.24.18-.32.32-.08.14-.12.3-.12.49Z"/><path class="cls-3" d="M98.92,118.45v2.05h-.38v-3.27h.37v.51h.03c.08-.17.2-.3.36-.4.16-.1.36-.15.6-.15.22,0,.41.05.58.14s.3.23.39.4.14.4.14.65v2.12h-.38v-2.1c0-.27-.08-.48-.23-.64-.15-.16-.35-.23-.6-.23-.17,0-.32.04-.46.11-.13.07-.24.18-.32.32-.08.14-.12.3-.12.49Z"/><path class="cls-3" d="M102.21,116.66c-.08,0-.15-.03-.2-.08-.06-.05-.08-.12-.08-.19s.03-.14.08-.19c.05-.05.12-.08.2-.08s.14.03.2.08c.05.05.08.12.08.19s-.03.14-.08.19c-.06.05-.12.08-.2.08ZM102.02,120.49v-3.27h.38v3.27h-.38Z"/><path class="cls-3" d="M104.68,120.56c-.29,0-.55-.07-.76-.22-.22-.15-.38-.35-.5-.6-.12-.25-.18-.54-.18-.87s.06-.62.18-.88.29-.46.51-.6c.22-.15.47-.22.75-.22.22,0,.42.04.59.13.18.08.32.2.44.36.12.15.19.33.22.53h-.38c-.04-.18-.13-.34-.29-.47-.15-.13-.34-.2-.58-.2-.21,0-.39.06-.55.17-.16.11-.29.27-.38.47-.09.2-.13.43-.13.7s.04.5.13.7c.09.2.21.36.37.48.16.12.35.17.56.17.14,0,.28-.03.4-.08s.22-.13.3-.23c.08-.1.14-.22.17-.36h.38c-.03.2-.1.37-.21.53-.11.15-.25.27-.43.36-.18.09-.38.13-.61.13Z"/><path class="cls-3" d="M107.66,120.57c-.2,0-.38-.04-.54-.12-.16-.08-.29-.19-.39-.34-.1-.15-.14-.33-.14-.54,0-.16.03-.3.09-.41.06-.11.15-.2.26-.27s.25-.13.4-.17c.15-.04.32-.07.51-.1.18-.02.34-.04.47-.06.13-.02.22-.04.29-.08.07-.04.1-.1.1-.18v-.08c0-.22-.07-.4-.2-.53-.13-.13-.32-.19-.57-.19-.24,0-.43.05-.58.16s-.25.23-.31.37l-.36-.13c.07-.18.18-.32.31-.43s.28-.18.44-.23c.16-.05.33-.07.49-.07.12,0,.25.02.39.05.14.03.26.09.38.17.12.08.21.19.28.33.07.14.11.32.11.54v2.22h-.38v-.52h-.02c-.04.1-.11.19-.2.28s-.2.17-.34.22-.29.09-.47.09ZM107.71,120.22c.2,0,.38-.04.52-.13.15-.09.26-.21.34-.36s.12-.31.12-.49v-.47s-.08.05-.14.07c-.07.02-.14.04-.23.06-.09.02-.17.03-.26.04s-.16.02-.23.03c-.18.02-.34.06-.47.11-.13.05-.23.11-.3.2-.07.08-.1.19-.1.32,0,.2.07.35.21.46.14.11.32.16.54.16Z"/><path class="cls-3" d="M110.46,116.13v4.36h-.38v-4.36h.38Z"/><path class="cls-3" d="M113.23,118.44v.36h-1.81v-.36h1.81Z"/><path class="cls-3" d="M114.27,120.49h-.42l1.59-4.36h.43l1.59,4.36h-.42l-1.37-3.85h-.03l-1.37,3.85ZM114.57,118.82h2.16v.36h-2.16v-.36Z"/><path class="cls-3" d="M118.12,120.49v-3.27h.37v.5h.03c.06-.17.18-.3.34-.4.16-.1.35-.15.55-.15.03,0,.07,0,.1,0,.04,0,.07,0,.1,0v.39s-.05,0-.09-.01c-.04,0-.09,0-.14,0-.17,0-.32.04-.46.11-.13.07-.24.17-.31.3-.08.13-.12.27-.12.43v2.11h-.38Z"/><path class="cls-3" d="M121.75,117.22v.33h-1.56v-.33h1.56ZM120.68,116.43h.38v3.2c0,.14.02.24.07.32.05.08.11.13.18.16.08.03.16.05.24.05.05,0,.09,0,.13,0,.04,0,.07-.01.09-.02l.08.34s-.08.03-.14.04c-.05.01-.12.02-.2.02-.14,0-.27-.03-.4-.09-.13-.06-.23-.15-.32-.27-.08-.12-.12-.27-.12-.45v-3.29Z"/><path class="cls-4" d="M73.51,40.63h-.93l2.09-5.82h1.01l2.09,5.82h-.93l-1.64-4.76h-.05l-1.65,4.76ZM73.67,38.35h3.02v.74h-3.02v-.74Z"/><path class="cls-4" d="M78.62,40.63v-5.82h2.07c.45,0,.83.08,1.12.23.3.16.52.37.67.64.15.27.22.59.22.95s-.07.67-.22.94c-.15.27-.37.48-.67.63-.3.15-.67.22-1.12.22h-1.57v-.75h1.49c.28,0,.52-.04.69-.12.18-.08.31-.2.39-.36s.12-.34.12-.56-.04-.41-.13-.57c-.08-.16-.22-.28-.4-.37-.18-.09-.41-.13-.7-.13h-1.1v5.07h-.88ZM81.49,38.01l1.44,2.62h-1l-1.41-2.62h.97Z"/><path class="cls-4" d="M88.61,36.7h-.89c-.03-.19-.1-.36-.19-.5-.09-.14-.21-.27-.34-.37-.13-.1-.28-.18-.45-.23-.17-.05-.34-.08-.53-.08-.34,0-.64.08-.9.25-.26.17-.47.42-.62.74-.15.33-.23.72-.23,1.19s.08.87.23,1.2c.15.33.36.57.63.74.27.17.56.25.9.25.18,0,.36-.03.52-.08.17-.05.32-.12.45-.22.13-.1.25-.22.34-.36.09-.14.16-.31.19-.49h.89c-.05.29-.14.55-.27.79-.13.24-.31.45-.52.62-.21.17-.45.31-.72.4-.27.09-.57.14-.89.14-.5,0-.95-.12-1.35-.36-.39-.24-.7-.58-.93-1.03s-.34-.98-.34-1.6.11-1.15.34-1.6c.23-.45.54-.79.93-1.03.39-.24.84-.36,1.34-.36.31,0,.6.04.87.13.27.09.51.22.72.39.21.17.39.38.53.62s.23.52.28.83Z"/><path class="cls-4" d="M89.66,40.63v-5.82h.88v2.53h2.9v-2.53h.88v5.82h-.88v-2.54h-2.9v2.54h-.88Z"/><path class="cls-4" d="M96.48,34.81v5.82h-.88v-5.82h.88Z"/><path class="cls-4" d="M97.47,35.57v-.76h4.5v.76h-1.82v5.06h-.88v-5.06h-1.81Z"/><path class="cls-4" d="M102.97,40.63v-5.82h3.65v.76h-2.77v1.77h2.58v.75h-2.58v1.78h2.8v.76h-3.68Z"/><path class="cls-4" d="M112.62,36.7h-.89c-.03-.19-.1-.36-.19-.5-.09-.14-.21-.27-.34-.37-.13-.1-.28-.18-.45-.23-.17-.05-.34-.08-.53-.08-.34,0-.64.08-.9.25-.26.17-.47.42-.62.74-.15.33-.23.72-.23,1.19s.08.87.23,1.2c.15.33.36.57.63.74.27.17.56.25.9.25.18,0,.36-.03.52-.08.17-.05.32-.12.45-.22.13-.1.25-.22.34-.36.09-.14.16-.31.19-.49h.89c-.05.29-.14.55-.27.79-.13.24-.31.45-.52.62-.21.17-.45.31-.72.4-.27.09-.57.14-.89.14-.5,0-.95-.12-1.35-.36-.39-.24-.7-.58-.93-1.03s-.34-.98-.34-1.6.11-1.15.34-1.6c.23-.45.54-.79.93-1.03.39-.24.84-.36,1.34-.36.31,0,.6.04.87.13.27.09.51.22.72.39.21.17.39.38.53.62s.23.52.28.83Z"/><path class="cls-4" d="M113.39,35.57v-.76h4.5v.76h-1.82v5.06h-.88v-5.06h-1.81Z"/><path class="cls-4" d="M122.62,34.81h.88v3.83c0,.41-.1.77-.29,1.08s-.46.56-.81.74-.75.27-1.22.27-.87-.09-1.22-.27c-.35-.18-.62-.42-.81-.74s-.29-.67-.29-1.08v-3.83h.88v3.76c0,.26.06.5.17.7.12.2.28.36.5.48.21.12.47.17.76.17s.55-.06.77-.17c.21-.12.38-.28.49-.48.11-.21.17-.44.17-.7v-3.76Z"/><path class="cls-4" d="M124.78,40.63v-5.82h2.07c.45,0,.83.08,1.12.23.3.16.52.37.67.64.15.27.22.59.22.95s-.07.67-.22.94c-.15.27-.37.48-.67.63-.3.15-.67.22-1.12.22h-1.57v-.75h1.49c.28,0,.52-.04.69-.12.18-.08.31-.2.39-.36s.12-.34.12-.56-.04-.41-.13-.57c-.08-.16-.22-.28-.4-.37-.18-.09-.41-.13-.7-.13h-1.1v5.07h-.88ZM127.65,38.01l1.44,2.62h-1l-1.41-2.62h.97Z"/><path class="cls-4" d="M129.94,40.63v-5.82h3.65v.76h-2.77v1.77h2.58v.75h-2.58v1.78h2.8v.76h-3.68Z"/><path class="cls-4" d="M7.08,134.33v-.76h4.5v.76h-1.82v5.06h-.88v-5.06h-1.81Z"/><path class="cls-4" d="M12.58,139.39v-5.82h3.65v.76h-2.77v1.77h2.58v.75h-2.58v1.78h2.8v.76h-3.68Z"/><path class="cls-4" d="M22.23,135.46h-.89c-.03-.19-.1-.36-.19-.5-.09-.14-.21-.27-.34-.37-.13-.1-.28-.18-.45-.23-.17-.05-.34-.08-.53-.08-.34,0-.64.08-.9.25-.26.17-.47.42-.62.74-.15.33-.23.72-.23,1.19s.08.87.23,1.2c.15.33.36.57.63.74.27.17.56.25.9.25.18,0,.36-.03.52-.08.17-.05.32-.12.45-.22.13-.1.25-.22.34-.36.09-.14.16-.31.19-.49h.89c-.05.29-.14.55-.27.79-.13.24-.31.45-.52.62-.21.17-.45.31-.72.4-.27.09-.57.14-.89.14-.5,0-.95-.12-1.35-.36-.39-.24-.7-.58-.93-1.03s-.34-.98-.34-1.6.11-1.15.34-1.6c.23-.45.54-.79.93-1.03.39-.24.84-.36,1.34-.36.31,0,.6.04.87.13.27.09.51.22.72.39.21.17.39.38.53.62s.23.52.28.83Z"/><path class="cls-4" d="M23.29,139.39v-5.82h.88v2.53h2.9v-2.53h.88v5.82h-.88v-2.54h-2.9v2.54h-.88Z"/><path class="cls-4" d="M33.92,133.57v5.82h-.81l-2.96-4.27h-.05v4.27h-.88v-5.82h.81l2.96,4.27h.05v-4.27h.87Z"/><path class="cls-4" d="M40.25,136.48c0,.62-.11,1.16-.34,1.6-.23.45-.54.79-.93,1.03-.39.24-.84.36-1.34.36s-.95-.12-1.35-.36c-.39-.24-.71-.58-.93-1.03-.23-.45-.34-.98-.34-1.6s.11-1.15.34-1.6c.23-.45.54-.79.93-1.03.4-.24.84-.36,1.35-.36s.95.12,1.34.36c.39.24.71.58.93,1.03.23.45.34.98.34,1.6ZM39.38,136.48c0-.47-.08-.87-.23-1.2-.15-.33-.36-.57-.62-.74-.26-.17-.56-.25-.9-.25s-.63.08-.9.25c-.26.17-.47.41-.62.74s-.23.72-.23,1.2.08.87.23,1.2c.15.33.36.57.62.74.26.17.56.25.9.25s.63-.08.9-.25c.26-.17.47-.41.62-.74.15-.32.23-.72.23-1.2Z"/><path class="cls-4" d="M41.34,139.39v-5.82h.88v5.06h2.64v.76h-3.51Z"/><path class="cls-4" d="M50.68,136.48c0,.62-.11,1.16-.34,1.6-.23.45-.54.79-.93,1.03-.39.24-.84.36-1.34.36s-.95-.12-1.35-.36c-.39-.24-.71-.58-.93-1.03-.23-.45-.34-.98-.34-1.6s.11-1.15.34-1.6c.23-.45.54-.79.93-1.03.4-.24.84-.36,1.35-.36s.95.12,1.34.36c.39.24.71.58.93,1.03.23.45.34.98.34,1.6ZM49.81,136.48c0-.47-.08-.87-.23-1.2-.15-.33-.36-.57-.62-.74-.26-.17-.56-.25-.9-.25s-.63.08-.9.25c-.26.17-.47.41-.62.74s-.23.72-.23,1.2.08.87.23,1.2c.15.33.36.57.62.74.26.17.56.25.9.25s.63-.08.9-.25c.26-.17.47-.41.62-.74.15-.32.23-.72.23-1.2Z"/><path class="cls-4" d="M55.71,135.41c-.06-.17-.13-.33-.22-.46-.09-.14-.2-.25-.33-.35s-.27-.17-.43-.22c-.16-.05-.34-.08-.53-.08-.33,0-.62.08-.89.25-.26.17-.47.42-.62.74-.15.32-.23.72-.23,1.19s.08.87.23,1.2c.15.33.36.57.63.74.27.17.57.25.91.25.32,0,.59-.06.83-.19.24-.13.42-.31.55-.55.13-.24.2-.51.2-.83l.23.04h-1.66v-.72h2.29v.66c0,.49-.1.91-.31,1.27-.21.36-.49.64-.86.83-.36.2-.78.29-1.25.29-.53,0-.99-.12-1.38-.36-.4-.24-.71-.59-.93-1.03-.22-.45-.33-.98-.33-1.59,0-.46.06-.88.19-1.25s.31-.68.54-.94c.23-.26.51-.46.83-.59.32-.14.66-.21,1.04-.21.31,0,.61.05.88.14.27.09.51.22.73.4.21.17.39.37.53.61.14.23.23.49.28.78h-.9Z"/><path class="cls-4" d="M57.12,133.57h1l1.52,2.65h.06l1.52-2.65h1l-2.11,3.53v2.28h-.88v-2.28l-2.11-3.53Z"/><path class="cls-4" d="M153.06,133.57h1.06l1.85,4.52h.07l1.85-4.52h1.07v5.82h-.84v-4.21h-.05l-1.72,4.2h-.69l-1.72-4.2h-.05v4.21h-.83v-5.82Z"/><path class="cls-4" d="M163.98,133.57h.88v3.83c0,.41-.1.77-.29,1.08s-.46.56-.81.74-.75.27-1.22.27-.87-.09-1.22-.27c-.35-.18-.62-.42-.81-.74s-.29-.67-.29-1.08v-3.83h.88v3.76c0,.26.06.5.17.7.12.2.28.36.5.48.21.12.47.17.76.17s.55-.06.77-.17c.21-.12.38-.28.49-.48.11-.21.17-.44.17-.7v-3.76Z"/><path class="cls-4" d="M169.31,135.1c-.03-.27-.16-.48-.38-.63s-.5-.22-.83-.22c-.24,0-.45.04-.62.11-.17.08-.31.18-.4.31-.1.13-.14.28-.14.44,0,.14.03.26.1.36.07.1.15.18.26.25s.22.12.34.17c.12.04.24.08.36.11l.57.15c.19.04.38.11.57.18.19.08.38.18.54.31.17.13.3.28.41.47s.15.41.15.67c0,.33-.08.62-.25.88-.17.26-.42.46-.74.61-.32.15-.71.22-1.16.22s-.81-.07-1.13-.21c-.32-.14-.57-.33-.75-.59-.18-.25-.28-.56-.3-.91h.88c.02.21.08.39.21.52.12.14.27.24.46.31s.4.1.62.1c.25,0,.47-.04.66-.12.19-.08.35-.19.46-.33.11-.14.17-.31.17-.5,0-.17-.05-.31-.15-.42-.1-.11-.23-.2-.39-.27s-.35-.14-.56-.19l-.69-.19c-.47-.13-.83-.31-1.11-.56-.27-.25-.41-.57-.41-.98,0-.33.09-.63.27-.88s.43-.44.74-.58c.31-.14.66-.21,1.05-.21s.74.07,1.04.21c.3.14.54.33.71.57.17.24.26.52.27.83h-.85Z"/><path class="cls-4" d="M172.17,133.57v5.82h-.88v-5.82h.88Z"/><path class="cls-4" d="M178.28,135.46h-.89c-.03-.19-.1-.36-.19-.5-.09-.14-.21-.27-.34-.37-.13-.1-.28-.18-.45-.23-.17-.05-.34-.08-.53-.08-.34,0-.64.08-.9.25-.26.17-.47.42-.62.74-.15.33-.23.72-.23,1.19s.08.87.23,1.2c.15.33.36.57.63.74.27.17.56.25.9.25.18,0,.36-.03.52-.08.17-.05.32-.12.45-.22.13-.1.25-.22.34-.36.09-.14.16-.31.19-.49h.89c-.05.29-.14.55-.27.79-.13.24-.31.45-.52.62-.21.17-.45.31-.72.4-.27.09-.57.14-.89.14-.5,0-.95-.12-1.35-.36-.39-.24-.7-.58-.93-1.03s-.34-.98-.34-1.6.11-1.15.34-1.6c.23-.45.54-.79.93-1.03.39-.24.84-.36,1.34-.36.31,0,.6.04.87.13.27.09.51.22.72.39.21.17.39.38.53.62s.23.52.28.83Z"/><path class="cls-3" d="M57.84,83.29h-.4c-.03-.15-.08-.29-.16-.41-.08-.13-.17-.24-.29-.33-.12-.09-.25-.17-.4-.22-.15-.05-.31-.08-.48-.08-.28,0-.53.07-.75.21s-.41.35-.54.63c-.14.28-.2.62-.2,1.02s.07.75.2,1.02.32.49.54.63.48.21.75.21c.17,0,.33-.03.48-.08.15-.05.28-.13.4-.22.12-.09.21-.21.29-.33s.13-.27.16-.42h.4c-.04.2-.1.39-.2.56-.1.17-.22.32-.37.45-.15.13-.32.23-.52.3-.19.07-.41.11-.64.11-.37,0-.69-.09-.98-.28-.28-.18-.51-.44-.67-.78s-.24-.73-.24-1.19.08-.85.24-1.19c.16-.34.38-.6.67-.78s.61-.28.98-.28c.23,0,.45.04.64.11.2.07.37.17.52.3.15.13.27.28.37.45s.16.36.2.56Z"/><path class="cls-3" d="M61.8,83.29c-.04-.14-.1-.28-.17-.41-.08-.13-.17-.24-.28-.33-.11-.1-.24-.17-.39-.23-.15-.05-.31-.08-.49-.08-.28,0-.54.07-.76.22-.22.15-.4.36-.53.64s-.19.61-.19,1.01.07.72.2,1c.13.28.31.49.54.64.23.15.49.22.78.22.27,0,.51-.06.71-.18s.37-.29.48-.51.17-.49.17-.79l.13.04h-1.4v-.36h1.66v.36c0,.37-.08.69-.23.97-.15.27-.36.48-.62.63s-.56.22-.91.22c-.38,0-.71-.09-1-.28-.29-.18-.51-.44-.67-.78s-.24-.73-.24-1.19c0-.34.04-.65.14-.93s.22-.51.39-.71c.17-.2.37-.35.59-.45s.48-.16.76-.16c.24,0,.46.04.66.11s.37.18.52.31c.15.13.28.28.37.45.1.17.16.35.2.55h-.41Z"/><path class="cls-3" d="M63.62,81.93v4.36h-.4v-4.36h.4Z"/><path class="cls-3" d="M89.42,150.35v4.36h-.4v-4.36h.4Z"/><path class="cls-3" d="M90.88,152.67v2.05h-.38v-3.27h.37v.51h.03c.08-.17.2-.3.36-.4.16-.1.36-.15.6-.15.22,0,.41.05.58.14s.3.23.39.4.14.4.14.65v2.12h-.38v-2.1c0-.27-.08-.48-.23-.64-.15-.16-.35-.23-.6-.23-.17,0-.32.04-.46.11-.13.07-.24.18-.32.32-.08.14-.12.3-.12.49Z"/><path class="cls-3" d="M95.26,151.44v.33h-1.56v-.33h1.56ZM94.19,150.66h.38v3.2c0,.14.02.24.07.32.05.08.11.13.18.16.08.03.16.05.24.05.05,0,.09,0,.13,0,.04,0,.07-.01.09-.02l.08.34s-.08.03-.14.04c-.05.01-.12.02-.2.02-.14,0-.27-.03-.4-.09-.13-.06-.23-.15-.32-.27-.08-.12-.12-.27-.12-.45v-3.29Z"/><path class="cls-3" d="M97.41,154.78c-.31,0-.57-.07-.79-.21-.22-.14-.4-.34-.52-.59-.12-.25-.18-.55-.18-.88s.06-.62.18-.88.29-.46.5-.6c.21-.15.46-.22.75-.22.18,0,.35.03.51.1.16.06.31.16.44.3.13.13.24.3.31.5.08.2.12.44.12.71v.19h-2.56v-.33h2.17c0-.21-.04-.4-.13-.57s-.2-.3-.35-.4-.32-.15-.52-.15c-.21,0-.39.06-.55.17-.16.11-.28.26-.37.44-.09.18-.13.38-.13.6v.2c0,.26.04.49.13.68.09.19.22.34.38.45.17.11.36.16.59.16.15,0,.29-.02.41-.07s.22-.11.3-.2c.08-.08.14-.17.18-.27l.36.12c-.05.14-.13.27-.24.38-.11.12-.25.21-.42.28-.17.07-.36.11-.58.11Z"/><path class="cls-3" d="M99.57,154.71v-3.27h.37v.5h.03c.06-.17.18-.3.34-.4.16-.1.35-.15.55-.15.03,0,.07,0,.1,0,.04,0,.07,0,.1,0v.39s-.05,0-.09-.01c-.04,0-.09,0-.14,0-.17,0-.32.04-.46.11-.13.07-.24.17-.31.3-.08.13-.12.27-.12.43v2.11h-.38Z"/><path class="cls-3" d="M102.63,154.79c-.2,0-.38-.04-.54-.12-.16-.08-.29-.19-.39-.34-.1-.15-.14-.33-.14-.54,0-.16.03-.3.09-.41.06-.11.15-.2.26-.27s.25-.13.4-.17c.15-.04.32-.07.51-.1.18-.02.34-.04.47-.06.13-.02.22-.04.29-.08.07-.04.1-.1.1-.18v-.08c0-.22-.07-.4-.2-.53-.13-.13-.32-.19-.57-.19-.24,0-.43.05-.58.16s-.25.23-.31.37l-.36-.13c.07-.18.18-.32.31-.43s.28-.18.44-.23c.16-.05.33-.07.49-.07.12,0,.25.02.39.05.14.03.26.09.38.17.12.08.21.19.28.33.07.14.11.32.11.54v2.22h-.38v-.52h-.02c-.04.1-.11.19-.2.28s-.2.17-.34.22-.29.09-.47.09ZM102.68,154.44c.2,0,.38-.04.52-.13.15-.09.26-.21.34-.36s.12-.31.12-.49v-.47s-.08.05-.14.07c-.07.02-.14.04-.23.06-.09.02-.17.03-.26.04s-.16.02-.23.03c-.18.02-.34.06-.47.11-.13.05-.23.11-.3.2-.07.08-.1.19-.1.32,0,.2.07.35.21.46.14.11.32.16.54.16Z"/><path class="cls-3" d="M106.33,154.78c-.29,0-.55-.07-.76-.22-.22-.15-.38-.35-.5-.6-.12-.25-.18-.54-.18-.87s.06-.62.18-.88.29-.46.51-.6c.22-.15.47-.22.75-.22.22,0,.42.04.59.13.18.08.32.2.44.36.12.15.19.33.22.53h-.38c-.04-.18-.13-.34-.29-.47-.15-.13-.34-.2-.58-.2-.21,0-.39.06-.55.17-.16.11-.29.27-.38.47-.09.2-.13.43-.13.7s.04.5.13.7c.09.2.21.36.37.48.16.12.35.17.56.17.14,0,.28-.03.4-.08s.22-.13.3-.23c.08-.1.14-.22.17-.36h.38c-.03.2-.1.37-.21.53-.11.15-.25.27-.43.36-.18.09-.38.13-.61.13Z"/><path class="cls-3" d="M109.68,151.44v.33h-1.56v-.33h1.56ZM108.61,150.66h.38v3.2c0,.14.02.24.07.32.05.08.11.13.18.16.08.03.16.05.24.05.05,0,.09,0,.13,0,.04,0,.07-.01.09-.02l.08.34s-.08.03-.14.04c-.05.01-.12.02-.2.02-.14,0-.27-.03-.4-.09-.13-.06-.23-.15-.32-.27-.08-.12-.12-.27-.12-.45v-3.29Z"/><path class="cls-3" d="M110.74,150.88c-.08,0-.15-.03-.2-.08-.06-.05-.08-.12-.08-.19s.03-.14.08-.19c.05-.05.12-.08.2-.08s.14.03.2.08c.05.05.08.12.08.19s-.03.14-.08.19c-.06.05-.12.08-.2.08ZM110.54,154.71v-3.27h.38v3.27h-.38Z"/><path class="cls-3" d="M114.47,151.44l-1.2,3.27h-.41l-1.2-3.27h.41l.97,2.77h.03l.97-2.77h.41Z"/><path class="cls-3" d="M116.41,154.78c-.31,0-.57-.07-.79-.21-.22-.14-.4-.34-.52-.59-.12-.25-.18-.55-.18-.88s.06-.62.18-.88.29-.46.5-.6c.21-.15.46-.22.75-.22.18,0,.35.03.51.1.16.06.31.16.44.3.13.13.24.3.31.5.08.2.12.44.12.71v.19h-2.56v-.33h2.17c0-.21-.04-.4-.13-.57s-.2-.3-.35-.4-.32-.15-.52-.15c-.21,0-.39.06-.55.17-.16.11-.28.26-.37.44-.09.18-.13.38-.13.6v.2c0,.26.04.49.13.68.09.19.22.34.38.45.17.11.36.16.59.16.15,0,.29-.02.41-.07s.22-.11.3-.2c.08-.08.14-.17.18-.27l.36.12c-.05.14-.13.27-.24.38-.11.12-.25.21-.42.28-.17.07-.36.11-.58.11Z"/><path class="cls-3" d="M95.56,157.55h.46l1.58,3.8h.04l1.58-3.8h.46v4.36h-.38v-3.52h-.03l-1.47,3.52h-.36l-1.47-3.52h-.03v3.52h-.38v-4.36Z"/><path class="cls-3" d="M102.84,160.66v-2.02h.38v3.27h-.38v-.54h-.03c-.08.17-.2.31-.36.42-.17.11-.37.17-.61.17-.21,0-.39-.05-.56-.14s-.29-.23-.38-.4c-.09-.18-.14-.4-.14-.65v-2.12h.38v2.1c0,.25.08.46.23.62.15.16.34.23.58.23.15,0,.29-.04.43-.11.14-.07.25-.17.34-.31.09-.14.13-.31.13-.51Z"/><path class="cls-3" d="M106.42,159.36l-.35.1c-.03-.1-.08-.19-.15-.27-.06-.08-.14-.14-.24-.19-.1-.05-.22-.07-.37-.07-.22,0-.4.05-.55.16-.14.11-.21.24-.21.41,0,.14.05.25.15.34.1.09.25.16.45.21l.49.12c.27.07.48.17.62.32.14.14.21.33.21.55,0,.18-.05.35-.15.49-.1.14-.24.26-.43.34-.18.08-.39.12-.63.12-.32,0-.58-.07-.79-.22-.21-.14-.34-.35-.4-.62l.36-.09c.05.2.14.34.28.44s.32.15.54.15c.25,0,.45-.06.6-.17.15-.11.23-.25.23-.42,0-.13-.04-.24-.13-.33-.09-.09-.22-.16-.4-.2l-.53-.13c-.28-.07-.49-.18-.63-.32s-.2-.33-.2-.55c0-.18.05-.34.15-.48.1-.14.23-.24.41-.32s.37-.12.59-.12c.3,0,.54.07.72.2s.31.32.39.56Z"/><path class="cls-3" d="M107.5,158.08c-.08,0-.15-.03-.2-.08-.06-.05-.08-.12-.08-.19s.03-.14.08-.19c.05-.05.12-.08.2-.08s.14.03.2.08c.05.05.08.12.08.19s-.03.14-.08.19c-.06.05-.12.08-.2.08ZM107.3,161.91v-3.27h.38v3.27h-.38Z"/><path class="cls-3" d="M109.97,161.98c-.29,0-.55-.07-.76-.22-.22-.15-.38-.35-.5-.6-.12-.25-.18-.54-.18-.87s.06-.62.18-.88.29-.46.51-.6c.22-.15.47-.22.75-.22.22,0,.42.04.59.13.18.08.32.2.44.36.12.15.19.33.22.53h-.38c-.04-.18-.13-.34-.29-.47-.15-.13-.34-.2-.58-.2-.21,0-.39.06-.55.17-.16.11-.29.27-.38.47-.09.2-.13.43-.13.7s.04.5.13.7c.09.2.21.36.37.48.16.12.35.17.56.17.14,0,.28-.03.4-.08s.22-.13.3-.23c.08-.1.14-.22.17-.36h.38c-.03.2-.1.37-.21.53-.11.15-.25.27-.43.36-.18.09-.38.13-.61.13Z"/><path class="cls-3" d="M128.56,82.69v-4.36h2.53v.36h-2.13v1.64h2v.36h-2v1.65h2.18v.36h-2.57Z"/><path class="cls-3" d="M132.42,80.64v2.05h-.38v-3.27h.37v.51h.03c.08-.17.2-.3.36-.4.16-.1.36-.15.6-.15.22,0,.41.05.58.14s.3.23.39.4.14.4.14.65v2.12h-.38v-2.1c0-.27-.08-.48-.23-.64-.15-.16-.35-.23-.6-.23-.17,0-.32.04-.46.11-.13.07-.24.18-.32.32-.08.14-.12.3-.12.49Z"/><path class="cls-3" d="M137.93,79.42l-1.2,3.27h-.41l-1.2-3.27h.41l.97,2.77h.03l.97-2.77h.41Z"/><path class="cls-3" d="M138.87,78.85c-.08,0-.15-.03-.2-.08-.06-.05-.08-.12-.08-.19s.03-.14.08-.19c.05-.05.12-.08.2-.08s.14.03.2.08c.05.05.08.12.08.19s-.03.14-.08.19c-.06.05-.12.08-.2.08ZM138.67,82.69v-3.27h.38v3.27h-.38Z"/><path class="cls-3" d="M140.06,82.69v-3.27h.37v.5h.03c.06-.17.18-.3.34-.4.16-.1.35-.15.55-.15.03,0,.07,0,.1,0,.04,0,.07,0,.1,0v.39s-.05,0-.09-.01c-.04,0-.09,0-.14,0-.17,0-.32.04-.46.11-.13.07-.24.17-.31.3-.08.13-.12.27-.12.43v2.11h-.38Z"/><path class="cls-3" d="M143.37,82.76c-.28,0-.53-.07-.75-.22-.22-.14-.39-.34-.51-.59-.12-.25-.18-.55-.18-.88s.06-.63.18-.89.29-.45.51-.6c.22-.14.47-.21.75-.21s.53.07.75.21.39.34.51.6c.12.25.18.55.18.88s-.06.62-.18.88c-.12.25-.29.45-.51.59-.22.14-.47.22-.75.22ZM143.37,82.41c.23,0,.42-.06.58-.18.16-.12.28-.29.36-.49.08-.2.12-.43.12-.67s-.04-.47-.12-.67c-.08-.2-.2-.37-.36-.49-.16-.12-.35-.19-.58-.19s-.42.06-.58.19c-.16.12-.28.29-.36.49-.08.21-.12.43-.12.67s.04.47.12.67c.08.2.2.37.36.49.16.12.35.18.58.18Z"/><path class="cls-3" d="M146.02,80.64v2.05h-.38v-3.27h.37v.51h.03c.08-.17.2-.3.36-.4.16-.1.36-.15.6-.15.22,0,.41.05.58.14s.3.23.39.4.14.4.14.65v2.12h-.38v-2.1c0-.27-.08-.48-.23-.64-.15-.16-.35-.23-.6-.23-.17,0-.32.04-.46.11-.13.07-.24.18-.32.32-.08.14-.12.3-.12.49Z"/><path class="cls-3" d="M149.12,82.69v-3.27h.37v.5h.03c.07-.17.17-.3.33-.4.15-.1.34-.15.55-.15.23,0,.41.05.56.16.15.11.25.25.33.44h.03c.07-.18.19-.33.36-.43s.37-.16.61-.16c.3,0,.54.1.72.29.18.19.26.47.26.84v2.19h-.38v-2.19c0-.26-.07-.45-.2-.58-.13-.13-.31-.19-.52-.19-.25,0-.44.08-.58.23-.13.15-.2.35-.2.58v2.15h-.39v-2.23c0-.22-.06-.4-.19-.54-.12-.14-.3-.2-.52-.2-.15,0-.29.04-.41.11-.12.07-.21.18-.28.31-.07.13-.1.28-.1.45v2.1h-.38Z"/><path class="cls-3" d="M155.59,82.76c-.31,0-.57-.07-.79-.21-.22-.14-.4-.34-.52-.59-.12-.25-.18-.55-.18-.88s.06-.62.18-.88.29-.46.5-.6c.21-.15.46-.22.75-.22.18,0,.35.03.51.1.16.06.31.16.44.3.13.13.24.3.31.5.08.2.12.44.12.71v.19h-2.56v-.33h2.17c0-.21-.04-.4-.13-.57s-.2-.3-.35-.4-.32-.15-.52-.15c-.21,0-.39.06-.55.17-.16.11-.28.26-.37.44-.09.18-.13.38-.13.6v.2c0,.26.04.49.13.68.09.19.22.34.38.45.17.11.36.16.59.16.15,0,.29-.02.41-.07s.22-.11.3-.2c.08-.08.14-.17.18-.27l.36.12c-.05.14-.13.27-.24.38-.11.12-.25.21-.42.28-.17.07-.36.11-.58.11Z"/><path class="cls-3" d="M158.13,80.64v2.05h-.38v-3.27h.37v.51h.03c.08-.17.2-.3.36-.4.16-.1.36-.15.6-.15.22,0,.41.05.58.14s.3.23.39.4.14.4.14.65v2.12h-.38v-2.1c0-.27-.08-.48-.23-.64-.15-.16-.35-.23-.6-.23-.17,0-.32.04-.46.11-.13.07-.24.18-.32.32-.08.14-.12.3-.12.49Z"/><path class="cls-3" d="M162.52,79.42v.33h-1.56v-.33h1.56ZM161.44,78.63h.38v3.2c0,.14.02.24.07.32.05.08.11.13.18.16.08.03.16.05.24.05.05,0,.09,0,.13,0,.04,0,.07-.01.09-.02l.08.34s-.08.03-.14.04c-.05.01-.12.02-.2.02-.14,0-.27-.03-.4-.09-.13-.06-.23-.15-.32-.27-.08-.12-.12-.27-.12-.45v-3.29Z"/><path class="cls-3" d="M137.62,89.89h-1.28v-4.36h1.36c.42,0,.77.09,1.07.26.3.17.52.42.68.75.16.32.24.71.24,1.17s-.08.85-.24,1.18c-.16.33-.4.58-.7.75s-.68.26-1.12.26ZM136.74,89.53h.86c.38,0,.69-.07.94-.22.25-.15.44-.36.57-.63.13-.27.19-.6.19-.98,0-.38-.06-.7-.19-.97s-.3-.48-.55-.62c-.24-.15-.54-.22-.89-.22h-.93v3.65Z"/><path class="cls-3" d="M141.89,89.96c-.31,0-.57-.07-.79-.21-.22-.14-.4-.34-.52-.59-.12-.25-.18-.55-.18-.88s.06-.62.18-.88.29-.46.5-.6c.21-.15.46-.22.75-.22.18,0,.35.03.51.1.16.06.31.16.44.3.13.13.24.3.31.5.08.2.12.44.12.71v.19h-2.56v-.33h2.17c0-.21-.04-.4-.13-.57s-.2-.3-.35-.4-.32-.15-.52-.15c-.21,0-.39.06-.55.17-.16.11-.28.26-.37.44-.09.18-.13.38-.13.6v.2c0,.26.04.49.13.68.09.19.22.34.38.45.17.11.36.16.59.16.15,0,.29-.02.41-.07s.22-.11.3-.2c.08-.08.14-.17.18-.27l.36.12c-.05.14-.13.27-.24.38-.11.12-.25.21-.42.28-.17.07-.36.11-.58.11Z"/><path class="cls-3" d="M146.25,87.33l-.35.1c-.03-.1-.08-.19-.15-.27-.06-.08-.14-.14-.24-.19-.1-.05-.22-.07-.37-.07-.22,0-.4.05-.55.16-.14.11-.21.24-.21.41,0,.14.05.25.15.34.1.09.25.16.45.21l.49.12c.27.07.48.17.62.32.14.14.21.33.21.55,0,.18-.05.35-.15.49-.1.14-.24.26-.43.34-.18.08-.39.12-.63.12-.32,0-.58-.07-.79-.22-.21-.14-.34-.35-.4-.62l.36-.09c.05.2.14.34.28.44s.32.15.54.15c.25,0,.45-.06.6-.17.15-.11.23-.25.23-.42,0-.13-.04-.24-.13-.33-.09-.09-.22-.16-.4-.2l-.53-.13c-.28-.07-.49-.18-.63-.32s-.2-.33-.2-.55c0-.18.05-.34.15-.48.1-.14.23-.24.41-.32s.37-.12.59-.12c.3,0,.54.07.72.2s.31.32.39.56Z"/><path class="cls-3" d="M147.32,86.05c-.08,0-.15-.03-.2-.08-.06-.05-.08-.12-.08-.19s.03-.14.08-.19c.05-.05.12-.08.2-.08s.14.03.2.08c.05.05.08.12.08.19s-.03.14-.08.19c-.06.05-.12.08-.2.08ZM147.13,89.89v-3.27h.38v3.27h-.38Z"/><path class="cls-3" d="M149.76,91.19c-.22,0-.42-.03-.59-.09-.17-.06-.31-.14-.42-.24s-.2-.21-.27-.33l.31-.21c.05.08.11.16.19.24.08.08.18.15.31.2s.28.08.47.08c.29,0,.52-.07.7-.22.18-.14.27-.37.27-.68v-.74h-.03c-.04.1-.11.2-.19.3s-.19.18-.32.25-.3.1-.49.1c-.26,0-.49-.06-.7-.19-.2-.13-.36-.31-.48-.56-.12-.24-.17-.53-.17-.86s.06-.62.17-.87c.11-.25.27-.45.47-.59s.44-.21.71-.21c.2,0,.37.04.5.11.13.07.24.16.32.26.08.1.14.21.19.3h.04v-.62h.37v3.36c0,.28-.06.5-.18.68-.12.18-.28.31-.48.4s-.43.13-.69.13ZM149.74,89.51c.21,0,.39-.05.54-.15s.26-.25.34-.44c.08-.19.12-.42.12-.68s-.04-.48-.12-.68-.19-.35-.34-.47-.33-.17-.54-.17-.4.06-.55.18c-.15.12-.26.28-.34.48-.08.2-.12.42-.12.67s.04.47.12.66c.08.19.19.34.34.45s.33.16.55.16Z"/><path class="cls-3" d="M152.5,87.84v2.05h-.38v-3.27h.37v.51h.03c.08-.17.2-.3.36-.4.16-.1.36-.15.6-.15.22,0,.41.05.58.14s.3.23.39.4.14.4.14.65v2.12h-.38v-2.1c0-.27-.08-.48-.23-.64-.15-.16-.35-.23-.6-.23-.17,0-.32.04-.46.11-.13.07-.24.18-.32.32-.08.14-.12.3-.12.49Z"/><circle class="cls-2" cx="103.01" cy="68.77" r="68.52"/><circle class="cls-2" cx="68.77" cy="127.98" r="68.52"/><circle class="cls-2" cx="137.33" cy="127.98" r="68.52"/></g></svg>