<?xml version="1.0" encoding="UTF-8"?><svg id="Layer_2" xmlns="http://www.w3.org/2000/svg" viewBox="0 0 305.77 254.12"><defs><style>.cls-1{stroke-linecap:round;stroke-linejoin:round;}.cls-1,.cls-2{stroke:#fff;stroke-width:.5px;}.cls-1,.cls-2,.cls-3{fill:none;}.cls-2,.cls-3{stroke-miterlimit:10;}.cls-4{fill:#fff;}.cls-3{stroke:#68dbff;}.cls-5{fill:#68dbff;}</style></defs><g id="Layer_1-2"><path class="cls-5" d="M7.62,233.03h.88v3.83c0,.41-.1.77-.29,1.08-.19.31-.46.56-.81.74s-.75.27-1.22.27-.87-.09-1.22-.27-.62-.42-.81-.74c-.19-.31-.29-.67-.29-1.08v-3.83h.88v3.76c0,.26.06.5.17.7.12.2.28.36.5.48.21.12.47.17.76.17s.55-.06.77-.17c.21-.12.38-.28.49-.48.11-.21.17-.44.17-.7v-3.76Z"/><path class="cls-5" d="M10.39,233.03l1.39,2.28h.04l1.39-2.28h1.02l-1.81,2.91,1.82,2.91h-1.02l-1.4-2.24h-.04l-1.4,2.24h-1.02l1.86-2.91-1.84-2.91h1.02Z"/><path class="cls-5" d="M17.25,232.76l-1.88,6.97h-.76l1.88-6.97h.76Z"/><path class="cls-5" d="M17.76,233.79v-.76h4.5v.76h-1.82v5.06h-.88v-5.06h-1.81Z"/><path class="cls-5" d="M24.43,238.94c-.43,0-.8-.09-1.11-.28-.31-.19-.55-.45-.72-.78-.17-.34-.25-.73-.25-1.18s.08-.84.25-1.18c.17-.34.4-.61.71-.8s.66-.29,1.06-.29c.25,0,.49.04.72.12.23.08.44.21.62.38.18.17.33.4.43.68.11.28.16.61.16,1.01v.3h-3.47v-.64h2.64c0-.22-.04-.42-.14-.59-.09-.17-.22-.31-.38-.41-.16-.1-.36-.15-.58-.15-.24,0-.45.06-.62.17-.18.12-.31.27-.41.45s-.14.39-.14.61v.5c0,.29.05.54.15.74.1.2.25.36.43.47.19.11.4.16.65.16.16,0,.31-.02.44-.07.13-.05.25-.12.34-.21s.17-.21.22-.34l.8.14c-.06.24-.18.44-.34.62-.17.18-.37.31-.62.41s-.53.15-.85.15Z"/><path class="cls-5" d="M29.09,238.94c-.42,0-.79-.1-1.09-.29-.3-.19-.54-.46-.7-.8s-.24-.73-.24-1.17.08-.83.25-1.17.4-.61.7-.8c.3-.19.66-.29,1.07-.29.33,0,.63.06.89.18s.47.29.63.51.26.48.29.77h-.83c-.05-.21-.15-.38-.31-.53-.16-.15-.38-.22-.65-.22-.24,0-.44.06-.62.19s-.31.3-.41.53-.15.5-.15.81.05.59.14.82c.1.23.23.41.41.54.18.13.39.19.63.19.16,0,.31-.03.44-.09.13-.06.24-.15.33-.26.09-.11.15-.25.19-.4h.83c-.03.28-.12.53-.28.76s-.36.4-.61.52c-.26.13-.56.19-.9.19Z"/><path class="cls-5" d="M32.64,236.26v2.59h-.85v-5.82h.84v2.17h.05c.1-.24.26-.42.47-.56.21-.14.49-.21.82-.21.3,0,.56.06.79.19.22.12.4.31.52.55.12.24.19.55.19.91v2.78h-.85v-2.67c0-.32-.08-.57-.25-.75s-.39-.27-.69-.27c-.2,0-.38.04-.54.13s-.28.21-.37.37c-.09.16-.13.36-.13.59Z"/><path class="cls-5" d="M39.29,238.85h-.93l2.09-5.82h1.01l2.09,5.82h-.93l-1.64-4.76h-.05l-1.65,4.76ZM39.44,236.57h3.02v.74h-3.02v-.74Z"/><path class="cls-5" d="M44.33,238.85v-4.36h.82v.69h.05c.08-.23.22-.42.42-.55.2-.14.43-.2.69-.2.05,0,.12,0,.19,0,.07,0,.13,0,.17.01v.81s-.09-.02-.18-.03c-.09-.01-.17-.02-.26-.02-.2,0-.38.04-.54.13s-.28.2-.37.35-.14.32-.14.51v2.67h-.85Z"/><path class="cls-5" d="M49.69,234.48v.68h-2.38v-.68h2.38ZM47.95,233.44h.85v4.13c0,.17.02.29.07.37.05.08.11.14.19.17.08.03.16.04.26.04.07,0,.13,0,.18-.01.05,0,.09-.02.12-.02l.15.7s-.12.04-.21.06c-.09.02-.21.03-.34.03-.22,0-.43-.04-.62-.12-.19-.08-.35-.21-.47-.39-.12-.17-.18-.39-.18-.66v-4.3Z"/><path class="cls-5" d="M52.82,238.85v-5.82h2.07c.45,0,.83.08,1.12.25.3.17.52.39.67.67s.22.61.22.96-.07.68-.22.96c-.15.28-.37.51-.67.68-.3.17-.67.25-1.12.25h-1.43v-.74h1.35c.29,0,.52-.05.7-.15.18-.1.31-.24.39-.41.08-.17.12-.37.12-.59s-.04-.42-.12-.58c-.08-.17-.21-.3-.39-.4-.18-.1-.41-.14-.71-.14h-1.1v5.07h-.88Z"/><path class="cls-5" d="M59.65,238.94c-.41,0-.77-.09-1.07-.28s-.54-.45-.71-.79c-.17-.34-.25-.73-.25-1.18s.08-.85.25-1.19.41-.6.71-.79.66-.28,1.07-.28.77.09,1.07.28c.3.19.54.45.71.79s.25.74.25,1.19-.08.84-.25,1.18c-.17.34-.41.6-.71.79-.31.19-.66.28-1.07.28ZM59.65,238.22c.26,0,.48-.07.66-.21.17-.14.3-.33.39-.56.08-.23.13-.49.13-.77s-.04-.53-.13-.77c-.08-.23-.21-.42-.39-.56-.17-.14-.39-.21-.66-.21s-.49.07-.66.21c-.18.14-.31.33-.39.56-.08.23-.13.49-.13.77s.04.54.13.77c.08.23.21.42.39.56.17.14.4.21.66.21Z"/><path class="cls-5" d="M62.63,238.85v-4.36h.82v.69h.05c.08-.23.22-.42.42-.55.2-.14.43-.2.69-.2.05,0,.12,0,.19,0,.07,0,.13,0,.17.01v.81s-.09-.02-.18-.03c-.09-.01-.17-.02-.26-.02-.2,0-.38.04-.54.13s-.28.2-.37.35-.14.32-.14.51v2.67h-.85Z"/><path class="cls-5" d="M67.99,234.48v.68h-2.38v-.68h2.38ZM66.25,233.44h.85v4.13c0,.17.02.29.07.37.05.08.11.14.19.17.08.03.16.04.26.04.07,0,.13,0,.18-.01.05,0,.09-.02.12-.02l.15.7s-.12.04-.21.06c-.09.02-.21.03-.34.03-.22,0-.43-.04-.62-.12-.19-.08-.35-.21-.47-.39-.12-.17-.18-.39-.18-.66v-4.3Z"/><path class="cls-5" d="M71.01,234.48v.68h-2.47v-.68h2.47ZM69.22,238.85v-4.87c0-.27.06-.5.18-.68s.28-.32.47-.41c.2-.09.41-.13.64-.13.17,0,.32.01.44.04s.21.05.27.08l-.2.69s-.09-.03-.15-.04-.14-.02-.23-.02c-.21,0-.35.05-.44.15-.09.1-.13.25-.13.44v4.76h-.85Z"/><path class="cls-5" d="M73.55,238.94c-.41,0-.77-.09-1.07-.28s-.54-.45-.71-.79c-.17-.34-.25-.73-.25-1.18s.08-.85.25-1.19.41-.6.71-.79.66-.28,1.07-.28.77.09,1.07.28c.3.19.54.45.71.79s.25.74.25,1.19-.08.84-.25,1.18c-.17.34-.41.6-.71.79-.31.19-.66.28-1.07.28ZM73.55,238.22c.26,0,.48-.07.66-.21.17-.14.3-.33.39-.56.08-.23.13-.49.13-.77s-.04-.53-.13-.77c-.08-.23-.21-.42-.39-.56-.17-.14-.39-.21-.66-.21s-.49.07-.66.21c-.18.14-.31.33-.39.56-.08.23-.13.49-.13.77s.04.54.13.77c.08.23.21.42.39.56.17.14.4.21.66.21Z"/><path class="cls-5" d="M77.38,233.03v5.82h-.85v-5.82h.85Z"/><path class="cls-5" d="M78.95,233.81c-.15,0-.27-.05-.38-.15-.11-.1-.16-.22-.16-.36s.05-.26.16-.36c.1-.1.23-.15.38-.15s.27.05.38.15c.11.1.16.22.16.36s-.05.26-.16.36c-.1.1-.23.15-.38.15ZM78.52,238.85v-4.36h.85v4.36h-.85Z"/><path class="cls-5" d="M82.35,238.94c-.41,0-.77-.09-1.07-.28s-.54-.45-.71-.79c-.17-.34-.25-.73-.25-1.18s.08-.85.25-1.19.41-.6.71-.79.66-.28,1.07-.28.77.09,1.07.28c.3.19.54.45.71.79s.25.74.25,1.19-.08.84-.25,1.18c-.17.34-.41.6-.71.79-.31.19-.66.28-1.07.28ZM82.35,238.22c.26,0,.48-.07.66-.21.17-.14.3-.33.39-.56.08-.23.13-.49.13-.77s-.04-.53-.13-.77c-.08-.23-.21-.42-.39-.56-.17-.14-.39-.21-.66-.21s-.49.07-.66.21c-.18.14-.31.33-.39.56-.08.23-.13.49-.13.77s.04.54.13.77c.08.23.21.42.39.56.17.14.4.21.66.21Z"/><path class="cls-4" d="M28.98,247.19c-.27,0-.5-.07-.71-.21-.2-.14-.36-.34-.47-.59-.11-.25-.17-.55-.17-.89s.06-.63.17-.88c.11-.25.27-.45.47-.59s.44-.21.71-.21c.2,0,.36.04.5.11s.24.16.32.26c.08.1.14.21.19.3h.03v-1.71h.38v4.36h-.37v-.61h-.04c-.04.1-.11.2-.19.31s-.19.19-.32.26c-.13.07-.3.11-.5.11ZM29.03,246.84c.21,0,.39-.06.54-.17.15-.12.26-.28.34-.48.08-.2.12-.44.12-.7s-.04-.49-.12-.69c-.08-.2-.19-.36-.34-.47-.15-.11-.33-.17-.54-.17s-.4.06-.55.18c-.15.12-.26.28-.34.48-.08.2-.12.43-.12.68s.04.48.12.69c.08.21.19.37.34.49.15.12.33.18.55.18Z"/><path class="cls-4" d="M31.68,243.29c-.08,0-.15-.03-.2-.08-.06-.05-.08-.12-.08-.19s.03-.14.08-.19c.05-.05.12-.08.2-.08s.14.03.2.08c.05.05.08.12.08.19s-.03.14-.08.19c-.06.05-.12.08-.2.08ZM31.49,247.12v-3.27h.38v3.27h-.38Z"/><path class="cls-4" d="M34.12,248.42c-.22,0-.42-.03-.59-.09-.17-.06-.31-.14-.42-.24s-.2-.21-.27-.33l.31-.21c.05.08.11.16.19.24.08.08.18.15.31.2s.28.08.47.08c.29,0,.52-.07.7-.22.18-.14.27-.37.27-.68v-.74h-.03c-.04.1-.11.2-.19.3s-.19.18-.32.25-.3.1-.49.1c-.26,0-.49-.06-.7-.19-.2-.13-.36-.31-.48-.56-.12-.24-.17-.53-.17-.86s.06-.62.17-.87c.11-.25.27-.45.47-.59s.44-.21.71-.21c.2,0,.37.04.5.11.13.07.24.16.32.26.08.1.14.21.19.3h.04v-.62h.37v3.36c0,.28-.06.5-.18.68-.12.18-.28.31-.48.4s-.43.13-.69.13ZM34.1,246.74c.21,0,.39-.05.54-.15s.26-.25.34-.44c.08-.19.12-.42.12-.68s-.04-.48-.12-.68-.19-.35-.34-.47-.33-.17-.54-.17-.4.06-.55.18c-.15.12-.26.28-.34.48-.08.2-.12.42-.12.67s.04.47.12.66c.08.19.19.34.34.45s.33.16.55.16Z"/><path class="cls-4" d="M36.68,243.29c-.08,0-.15-.03-.2-.08-.06-.05-.08-.12-.08-.19s.03-.14.08-.19c.05-.05.12-.08.2-.08s.14.03.2.08c.05.05.08.12.08.19s-.03.14-.08.19c-.06.05-.12.08-.2.08ZM36.48,247.12v-3.27h.38v3.27h-.38Z"/><path class="cls-4" d="M39.16,243.85v.33h-1.56v-.33h1.56ZM38.09,243.07h.38v3.2c0,.14.02.24.07.32.05.08.11.13.18.16.08.03.16.05.24.05.05,0,.09,0,.13,0,.04,0,.07-.01.09-.02l.08.34s-.08.03-.14.04c-.05.01-.12.02-.2.02-.14,0-.27-.03-.4-.09-.13-.06-.23-.15-.32-.27-.08-.12-.12-.27-.12-.45v-3.29Z"/><path class="cls-4" d="M40.93,247.2c-.2,0-.38-.04-.54-.12-.16-.08-.29-.19-.39-.34-.1-.15-.14-.33-.14-.54,0-.16.03-.3.09-.41.06-.11.15-.2.26-.27s.25-.13.4-.17c.15-.04.32-.07.51-.1.18-.02.34-.04.47-.06.13-.02.22-.04.29-.08.07-.04.1-.1.1-.18v-.08c0-.22-.07-.4-.2-.53-.13-.13-.32-.19-.57-.19-.24,0-.43.05-.58.16s-.25.23-.31.37l-.36-.13c.07-.18.18-.32.31-.43s.28-.18.44-.23c.16-.05.33-.07.49-.07.12,0,.25.02.39.05.14.03.26.09.38.17.12.08.21.19.28.33.07.14.11.32.11.54v2.22h-.38v-.52h-.02c-.04.1-.11.19-.2.28s-.2.17-.34.22-.29.09-.47.09ZM40.99,246.85c.2,0,.38-.04.52-.13.15-.09.26-.21.34-.36s.12-.31.12-.49v-.47s-.08.05-.14.07c-.07.02-.14.04-.23.06-.09.02-.17.03-.26.04s-.16.02-.23.03c-.18.02-.34.06-.47.11-.13.05-.23.11-.3.2-.07.08-.1.19-.1.32,0,.2.07.35.21.46.14.11.32.16.54.16Z"/><path class="cls-4" d="M43.74,242.76v4.36h-.38v-4.36h.38Z"/><path class="cls-4" d="M47.75,247.19c-.31,0-.57-.07-.79-.21-.22-.14-.4-.34-.52-.59-.12-.25-.18-.55-.18-.88s.06-.62.18-.88.29-.46.5-.6c.21-.15.46-.22.75-.22.18,0,.35.03.51.1.16.06.31.16.44.3.13.13.24.3.31.5.08.2.12.44.12.71v.19h-2.56v-.33h2.17c0-.21-.04-.4-.13-.57s-.2-.3-.35-.4-.32-.15-.52-.15c-.21,0-.39.06-.55.17-.16.11-.28.26-.37.44-.09.18-.13.38-.13.6v.2c0,.26.04.49.13.68.09.19.22.34.38.45.17.11.36.16.59.16.15,0,.29-.02.41-.07s.22-.11.3-.2c.08-.08.14-.17.18-.27l.36.12c-.05.14-.13.27-.24.38-.11.12-.25.21-.42.28-.17.07-.36.11-.58.11Z"/><path class="cls-4" d="M50.83,247.2c-.2,0-.38-.04-.54-.12-.16-.08-.29-.19-.39-.34-.1-.15-.14-.33-.14-.54,0-.16.03-.3.09-.41.06-.11.15-.2.26-.27s.25-.13.4-.17c.15-.04.32-.07.51-.1.18-.02.34-.04.47-.06.13-.02.22-.04.29-.08.07-.04.1-.1.1-.18v-.08c0-.22-.07-.4-.2-.53-.13-.13-.32-.19-.57-.19-.24,0-.43.05-.58.16s-.25.23-.31.37l-.36-.13c.07-.18.18-.32.31-.43s.28-.18.44-.23c.16-.05.33-.07.49-.07.12,0,.25.02.39.05.14.03.26.09.38.17.12.08.21.19.28.33.07.14.11.32.11.54v2.22h-.38v-.52h-.02c-.04.1-.11.19-.2.28s-.2.17-.34.22-.29.09-.47.09ZM50.88,246.85c.2,0,.38-.04.52-.13.15-.09.26-.21.34-.36s.12-.31.12-.49v-.47s-.08.05-.14.07c-.07.02-.14.04-.23.06-.09.02-.17.03-.26.04s-.16.02-.23.03c-.18.02-.34.06-.47.11-.13.05-.23.11-.3.2-.07.08-.1.19-.1.32,0,.2.07.35.21.46.14.11.32.16.54.16Z"/><path class="cls-4" d="M55.45,244.57l-.35.1c-.03-.1-.08-.19-.15-.27-.06-.08-.14-.14-.24-.19-.1-.05-.22-.07-.37-.07-.22,0-.4.05-.55.16-.14.11-.21.24-.21.41,0,.14.05.25.15.34.1.09.25.16.45.21l.49.12c.27.07.48.17.62.32.14.14.21.33.21.55,0,.18-.05.35-.15.49-.1.14-.24.26-.43.34-.18.08-.39.12-.63.12-.32,0-.58-.07-.79-.22-.21-.14-.34-.35-.4-.62l.36-.09c.05.2.14.34.28.44s.32.15.54.15c.25,0,.45-.06.6-.17.15-.11.23-.25.23-.42,0-.13-.04-.24-.13-.33-.09-.09-.22-.16-.4-.2l-.53-.13c-.28-.07-.49-.18-.63-.32s-.2-.33-.2-.55c0-.18.05-.34.15-.48.1-.14.23-.24.41-.32s.37-.12.59-.12c.3,0,.54.07.72.2s.31.32.39.56Z"/><path class="cls-4" d="M57.65,247.19c-.31,0-.57-.07-.79-.21-.22-.14-.4-.34-.52-.59-.12-.25-.18-.55-.18-.88s.06-.62.18-.88.29-.46.5-.6c.21-.15.46-.22.75-.22.18,0,.35.03.51.1.16.06.31.16.44.3.13.13.24.3.31.5.08.2.12.44.12.71v.19h-2.56v-.33h2.17c0-.21-.04-.4-.13-.57s-.2-.3-.35-.4-.32-.15-.52-.15c-.21,0-.39.06-.55.17-.16.11-.28.26-.37.44-.09.18-.13.38-.13.6v.2c0,.26.04.49.13.68.09.19.22.34.38.45.17.11.36.16.59.16.15,0,.29-.02.41-.07s.22-.11.3-.2c.08-.08.14-.17.18-.27l.36.12c-.05.14-.13.27-.24.38-.11.12-.25.21-.42.28-.17.07-.36.11-.58.11Z"/><path class="cls-4" d="M60.19,242.76v4.36h-.38v-4.36h.38Z"/><polyline class="cls-3" points="45.64 225.69 45.64 181.53 189.19 181.53"/><path class="cls-5" d="M188.99,181.53c-.52-.52-.77-1.56-.79-2.27.72.96,1.65,1.8,2.77,2.27-1.13.45-2.02,1.34-2.77,2.27.06-.77.25-1.7.79-2.27Z"/><path class="cls-1" d="M161,228.04l-2.46-.66,1.46.4"/><path class="cls-1" d="M153.27,222.03l.05.45.22.7,1.2,1.85,1.33,1.11,2.19,1.11.29.12"/><path class="cls-1" d="M166.17,228.36l-2.44.03-2.73-.35"/><path class="cls-1" d="M168.82,227.82l.27-.05-1.1.22-1.82.37"/><path class="cls-1" d="M172.3,226.42l-1.71.82-1.51.53"/><path class="cls-1" d="M171.13,227l-15.51,21.13"/><path class="cls-1" d="M154.12,247.64l.92.56"/><path class="cls-1" d="M163.14,234.53l-9.18,12.42"/><path class="cls-1" d="M167.96,228l-3.67,4.97"/><path class="cls-1" d="M165.98,240.71l.46.65"/><path class="cls-1" d="M163.99,236.73l1.99,3.98"/><path class="cls-1" d="M172.07,250.09l-6.14-16"/><path class="cls-1" d="M170.54,250.59l.79-.17"/><path class="cls-1" d="M165.37,231.51l-1.22-3.13"/><path class="cls-1" d="M172.08,250.09l-6.14-16.02"/><path class="cls-1" d="M172.08,250.09l.42-.29"/><path class="cls-1" d="M173.98,223.96l.54-.45-1.35,1.11-.51.39"/><path class="cls-1" d="M175.83,217.71l-.57-1.14.51,1.04.06.1Z"/><path class="cls-1" d="M153.22,217.16l-.42,1.02-.09.24.51-1.26Z"/><path class="cls-1" d="M153.22,217.16l.82-1.22"/><path class="cls-1" d="M155.3,214.8l-1.26,1.14"/><path class="cls-1" d="M156.9,213.86l1.72-.75-.82.34"/><path class="cls-1" d="M171.94,213.86l.62.37.7.41-1.33-.77Z"/><path class="cls-1" d="M152.82,218.55l-.21.53-.07.72.16.93.29.71.53,1.13,1.06,1.2.94.77.59.36"/><path class="cls-1" d="M220.75,214.18l-3.59,1.34"/><path class="cls-1" d="M172.2,187.76l3.99-1.49"/><path class="cls-1" d="M172.2,187.76l-.12.83-.11.83,45.2,26.09"/><path class="cls-1" d="M216.87,239.42l3.52-25.1"/><path class="cls-1" d="M216.8,239.88l3.59-25.57"/><path class="cls-1" d="M217.4,240.23l-.59-.34"/><path class="cls-1" d="M175.43,186.55l1.63-11.59"/><path class="cls-1" d="M171.94,211.38l2.85-20.32"/><path class="cls-1" d="M171.94,211.38l2.85-20.32"/><path class="cls-1" d="M176.95,213.08l2.7-19.21"/><path class="cls-1" d="M179.64,193.86l-2.7,19.22"/><path class="cls-1" d="M222.54,236.32l4.71-33.58"/><path class="cls-1" d="M242.48,190.93l5.45,32.54"/><path class="cls-1" d="M242.47,225.12l-4.76-28.42"/><path class="cls-1" d="M237.71,196.7l4.87,29.1"/><path class="cls-1" d="M232.48,165.47l4.64,27.72"/><path class="cls-1" d="M232.48,165.47l-4.73,33.71"/><path class="cls-1" d="M227.25,202.74l-4.71,33.58"/><path class="cls-1" d="M232.48,165.47l-4.73,33.71"/><path class="cls-1" d="M224.39,203.4l.86.5,12.46-7.19"/><path class="cls-1" d="M238.24,192.55l-10.4,6"/><path class="cls-1" d="M106.74,85.74l-4.07-5.82"/><path class="cls-1" d="M109.65,70.3l.13.56"/><path class="cls-1" d="M122.79,87.33l2.25-8.89"/><path class="cls-1" d="M115.94,69.24l.83,2.8"/><path class="cls-1" d="M118.66,68.79l.3,3.25"/><path class="cls-1" d="M168.87,139.29l-5.59-.22"/><path class="cls-1" d="M133.02,193.66l-.24.72"/><path class="cls-1" d="M176.09,230.36l-.89-4.39"/><path class="cls-1" d="M112.06,215.98l-.09.6"/><path class="cls-1" d="M112.06,215.98l-.3-.64"/><path class="cls-1" d="M111.46,215.09l.29.26"/><path class="cls-1" d="M158.81,156.53l.83-5.89"/><path class="cls-1" d="M158.95,160.32l1.47,11.92"/><path class="cls-1" d="M163.01,180.69l1.69,5.91"/><path class="cls-1" d="M160.42,172.24l.22.65,2.37,7.81"/><path class="cls-1" d="M97.91,106.73l.25.82"/><path class="cls-1" d="M94.23,103.52l3.68,3.21"/><path class="cls-1" d="M89.81,99.81l4.56,3.82"/><path class="cls-1" d="M163.87,131.8l-2.5,1.02"/><path class="cls-1" d="M89.23,63.24l5.41,6.28"/><path class="cls-1" d="M114.9,92.32l-.39-1.39"/><path class="cls-1" d="M115.62,94.6l-.72-2.27"/><path class="cls-1" d="M110.36,83.58l.75,5.33"/><path class="cls-1" d="M110.45,92.65l1.89,2.71"/><path class="cls-1" d="M110.66,92.86l-5.76-5.71"/><path class="cls-1" d="M92.74,72.33l5.02,4.69"/><path class="cls-1" d="M104.9,87.15l-8.6-8.6"/><path class="cls-1" d="M92.76,72.36l-4.7-9.26"/><path class="cls-1" d="M91.5,73.56l-10.06-8.34"/><path class="cls-1" d="M83.08,64.76l4.97,3.97,2,1.39"/><path class="cls-1" d="M104.34,72.59l5.08,6.37"/><path class="cls-1" d="M107.8,71.83l.75,3.41"/><path class="cls-1" d="M84.91,60.26l4.12,9.02"/><path class="cls-1" d="M115.26,90.02l1.93,4.17,1.35,3.14"/><path class="cls-1" d="M115.26,90.02l-5.83-11.06"/><path class="cls-1" d="M119.93,85.08l-.96-13.04"/><path class="cls-1" d="M116.77,72.05l.85,12.4"/><path class="cls-1" d="M125.16,77.72l-.14.7.07-.32.14-.69"/><path class="cls-1" d="M126.28,72.71l-1.27,5.71"/><path class="cls-1" d="M163.33,140.83l4.9,2.72"/><path class="cls-1" d="M166.58,140.75l8.96-.41"/><path class="cls-1" d="M175.47,138.34l-6.6.95"/><path class="cls-1" d="M127.79,189.22l3.03,1.77.65.47"/><path class="cls-1" d="M172.69,198.43l-2,1.31"/><path class="cls-1" d="M186.32,223.13l-10.03-7.35-6.28-6.36"/><path class="cls-1" d="M189.91,225.23l-3.6-2.1"/><path class="cls-1" d="M194.63,228.07l-4.48-2.7"/><path class="cls-1" d="M199.58,231.48l5.75,2.92"/><path class="cls-1" d="M190.45,227.07l.43.19"/><path class="cls-1" d="M194.91,229.1l-4.01-1.83"/><path class="cls-1" d="M205.33,234.41h0s-5.75-2.93-5.75-2.93"/><path class="cls-1" d="M173.45,229.7l-2.28-2.72"/><path class="cls-1" d="M175.5,224.72l-.3,1.25"/><path class="cls-1" d="M175.5,224.72l.35-.29"/><path class="cls-1" d="M178.97,236.73l-2.88-6.38"/><path class="cls-1" d="M128.64,214.13l1.7-.57"/><path class="cls-1" d="M120.93,216.92l-3.4,1.56"/><path class="cls-1" d="M111.15,217.92l-1,1.19"/><path class="cls-1" d="M111.97,216.58l-.81,1.34"/><path class="cls-1" d="M101.31,226.79l4.74-2.63"/><path class="cls-1" d="M109.78,214.65l-3.12-.26"/><path class="cls-1" d="M118.9,206.92l4.33-2.17"/><path class="cls-1" d="M109.97,210.24l8.92-3.32h0"/><path class="cls-1" d="M109.97,210.24l-6.75,2.13"/><path class="cls-1" d="M97.99,213.62l5.24-1.25"/><path class="cls-1" d="M91.3,215.25l6.19-1.51"/><path class="cls-1" d="M125.31,203.56l2.74-2.35,2-2.58"/><path class="cls-1" d="M79.56,65.24l4.03,3.85"/><path class="cls-1" d="M166.17,228.36l-2.47-.05-2.7-.27-2.74-.78"/><path class="cls-1" d="M168.82,227.82l-14.7,19.82"/><path class="cls-1" d="M176.15,220.67l-.05.66-.84,2.1-1.55,1.92-1.41,1.07"/><path class="cls-1" d="M164.29,232.97l-2.37-4.81"/><path class="cls-1" d="M162.43,229.19l1.68,3.37"/><path class="cls-1" d="M181.19,185.14l-.3.11-.31.11,3.8-27.06"/><path class="cls-1" d="M180.58,185.36l39.07,22.56"/><path class="cls-1" d="M181.19,185.14l3.03-21.57"/><path class="cls-1" d="M219.72,207.38l-38.53-22.25"/><path class="cls-1" d="M219.65,207.92l6.05-43.13-16.82-9.71"/><path class="cls-1" d="M162.11,219.43l2.17-.06"/><path class="cls-1" d="M164.29,219.37l-2.17.06"/><path class="cls-1" d="M162.4,218.4l1.96.95"/><path class="cls-1" d="M163.99,218.01l.4,1.31"/><path class="cls-1" d="M164.4,219.32l-.41-1.31"/><path class="cls-1" d="M165.22,217.32l-.8,2.04"/><path class="cls-1" d="M164.41,219.36l2.03-1.05"/><path class="cls-1" d="M166.4,219.41l-1.99-.04"/><path class="cls-1" d="M164.41,219.37l2.86.03"/><path class="cls-1" d="M164,220.45l.41-1.08"/><path class="cls-1" d="M164.41,219.33l-2-.93"/><path class="cls-1" d="M164.41,219.33l-3.01,1.2"/><path class="cls-1" d="M172.66,225l-2.49,1.22"/><path class="cls-1" d="M176.28,219.36l-.08,1.04-.17.6-.58,1.3-.92,1.21"/><path class="cls-1" d="M175.83,217.71l.39.99.05.66"/><path class="cls-1" d="M152.64,219l.07-.58"/><path class="cls-1" d="M155.3,214.8l1.6-.95"/><path class="cls-1" d="M171.94,213.86l-1.06-.5-1.92-.64-2.06-.4-2.05-.15-2.11.07-2.21.33-1.91.54"/><path class="cls-1" d="M173.85,215.07l.72.66.69.84"/><path class="cls-1" d="M221.27,213.19l-3.99,1.5-.11.83"/><path class="cls-1" d="M221.27,213.19l-3.88.66-.12.83"/><path class="cls-1" d="M220.72,211.98l-43.41-25.06"/><path class="cls-1" d="M172.2,187.76l45.2,26.09"/><path class="cls-1" d="M172.08,188.6l45.2,26.09"/><path class="cls-1" d="M222.14,201.88v.02s0-.02,0-.02Z"/><path class="cls-1" d="M176.95,213.08l.75-20.34"/><path class="cls-1" d="M177.05,174.96h0s0,0,0,0Z"/><path class="cls-1" d="M225.26,203.9v-2.85l-.33-.19"/><path class="cls-1" d="M222.13,201.89l5.33-37.99-16.03-9.26"/><path class="cls-1" d="M220.72,211.98l6.75-48.08"/><path class="cls-1" d="M229.05,163.01l-10.71,76.3"/><path class="cls-1" d="M176.85,186.81l1.44-10.23"/><path class="cls-1" d="M173.22,212.68l2.92-20.84"/><path class="cls-1" d="M173.22,212.68l2.92-20.84"/><path class="cls-1" d="M175.43,186.55l3.92-27.94"/><path class="cls-1" d="M237.03,158.4l10.75,64.2"/><path class="cls-1" d="M243.94,226.59l-5.11-30.53"/><path class="cls-1" d="M233.04,161.51l-.56,3.96"/><path class="cls-1" d="M233.04,161.51l5.3,31.61"/><path class="cls-1" d="M233.04,161.51l3.99-3.12"/><path class="cls-1" d="M238.83,196.06l5.11,30.53"/><path class="cls-1" d="M233.04,161.51l5.3,31.62"/><path class="cls-1" d="M237.71,196.7l4.07-2.35v-2.85l-.47-.27"/><path class="cls-1" d="M164.14,131.69l-.27.11-.11.05"/><path class="cls-1" d="M110.45,84.24v-.02s0,.02,0,.02Z"/><path class="cls-1" d="M109,70.4l.45,2.07-.45-2.07Z"/><path class="cls-1" d="M117.61,84.48h0s0,0,0,0Z"/><path class="cls-1" d="M127.49,156.02l.12-3.01-.12,3.01Z"/><path class="cls-1" d="M181.49,223.78l-1.33-.27"/><path class="cls-1" d="M97.48,213.78l-6.03,1.44"/><path class="cls-1" d="M179.38,195.75l2.08-.74"/><path class="cls-1" d="M130.05,198.63l2.72-4.24"/><path class="cls-1" d="M169.97,188.29h0s-.38-.11-.38-.11"/><path class="cls-1" d="M111.12,78.63l2.14,3.77"/><path class="cls-1" d="M181.49,223.78l.44.15"/><path class="cls-1" d="M140.86,155.21l-.11,4.93-.51,4.69"/><path class="cls-1" d="M136.8,191.29l.72-2.73"/><path class="cls-1" d="M109.05,110.27l-1.62-.54-2.8-1.25"/><path class="cls-1" d="M118.56,97.32l1.05,5.39"/><path class="cls-1" d="M165.01,141.77l-3.02,3.63-1.61,3.27"/><path class="cls-1" d="M171.17,135.89l-1.88,1.34-2,2.01"/><path class="cls-1" d="M170.46,128.38l-6.38,3.34"/><path class="cls-1" d="M105.04,71.02l2.68,3.35.83.87"/><path class="cls-1" d="M109.45,72.48l1.66,6.16"/><path class="cls-1" d="M121.53,97.95l1.28-10.58"/><path class="cls-1" d="M159.53,139.92l3.79.9"/><path class="cls-1" d="M157.27,136.38l6.01,2.7"/><path class="cls-1" d="M155.36,214.68l-1.18-.64-2.34-.47"/><path class="cls-1" d="M141.04,212.26l-.3-.02-3.8.14"/><path class="cls-1" d="M176.49,223.98l.42-.2"/><path class="cls-1" d="M111.05,214.78l.72.55"/><path class="cls-1" d="M123.23,204.74l2.1-1.2"/><path class="cls-1" d="M94.41,215.55l2.17-.35.52-.09"/><path class="cls-1" d="M181.58,194.98l-.12.03-2.09.81"/><path class="cls-1" d="M168.56,205.38l1.45,4.04"/><path class="cls-1" d="M172.04,188.89l-6.7-1.94"/><path class="cls-1" d="M164.69,186.6l.62.32"/><path class="cls-1" d="M132.24,196l4.56-4.71"/><path class="cls-1" d="M158.17,139.84l1.32.08"/><path class="cls-1" d="M198.54,231.04l-.32-.17"/><path class="cls-1" d="M151.84,213.58l-5.53-.99"/><path class="cls-1" d="M131.48,191.46l1.54,2.21"/><path class="cls-1" d="M144.46,212.49l-2.3-.15"/><path class="cls-1" d="M185.47,225.22l1.93.49"/><path class="cls-1" d="M176.56,235.14l-3.11-5.44"/><path class="cls-1" d="M124.6,215.48l2.61-.87"/><path class="cls-1" d="M109.69,219.55l-1.76,1.52"/><path class="cls-1" d="M89.29,216.38l4.41-.72"/><path class="cls-1" d="M98.27,214.91l3.27-.28"/><path class="cls-1" d="M173.82,197.99l-1.13.44"/><path class="cls-1" d="M169.76,142.61l-3.16-1.85"/><path class="cls-1" d="M96.82,107.83h.71"/><path class="cls-1" d="M123.01,104.07l-1.48-6.12"/><path class="cls-1" d="M111.03,88.32l-1.63-2.18"/><path class="cls-1" d="M107.49,70.66l.31,1.17"/><path class="cls-1" d="M169.76,142.6l-3.1-1.84"/><path class="cls-1" d="M132.45,213.11l-2.07.42"/><path class="cls-1" d="M178.13,223.5l.87-.06"/><path class="cls-1" d="M197.51,230.43l-2.61-1.32"/><path class="cls-1" d="M124.62,215.6l2.58-.93"/><path class="cls-1" d="M116.88,218.79l-1.55.71"/><path class="cls-1" d="M114.02,220.1l-.54.25"/><path class="cls-1" d="M112.2,220.93l-1.48.68"/><path class="cls-1" d="M107.37,223.44l2.12-1.17"/><path class="cls-1" d="M104.14,214.51l-2.6.12"/><path class="cls-1" d="M109.66,70.29l.13.56"/><path class="cls-1" d="M90.31,97.45l5.81,4.8"/><path class="cls-1" d="M162.13,116.95l-3.3,5.95"/><path class="cls-1" d="M161.17,116.13l-3.54,4.63"/><path class="cls-1" d="M150.46,108.22l.64,6.85"/><path class="cls-1" d="M151.87,110.37l1.79,6.01"/><path class="cls-1" d="M103.21,71.15l1.14,1.43"/><path class="cls-1" d="M128.98,151.33l-.48,1.76"/><path class="cls-1" d="M128.74,155.92l-.27-2.83"/><path class="cls-1" d="M199.28,230.64l6.32,3.28"/><path class="cls-1" d="M199.58,231.48l5.75,2.93"/><path class="cls-1" d="M106.64,221.99l-4.61,3.49"/><path class="cls-1" d="M171.04,227.04l-15.5,20.78"/><path class="cls-1" d="M164.02,234.29l-2.85-6.23"/><path class="cls-1" d="M165.64,237.82l-.94-2.06"/><path class="cls-1" d="M164.12,236.56l2.32,4.81"/><path class="cls-1" d="M162.95,230.23l-.76-2.03"/><path class="cls-1" d="M170.54,250.59l-5.63-15.1"/><path class="cls-1" d="M161.92,228.16l2.36,4.82"/><path class="cls-1" d="M165.08,231.9l-1.35-3.51"/><path class="cls-1" d="M165.1,231.88l-1.34-3.49"/><path class="cls-1" d="M170.17,226.23l-2.99.69"/><path class="cls-1" d="M220.75,214.18l-3.59,1.34"/><path class="cls-1" d="M218.34,239.31l5.26-37.47"/><path class="cls-1" d="M155.04,248.21l-.47-.21"/><path class="cls-1" d="M221.5,239.41l-.8.3"/><path class="cls-1" d="M237.03,158.4l-2,1.56"/><path class="cls-1" d="M211.93,153.12l17.12,9.89"/><path class="cls-1" d="M184.89,158.27l-.67,5.3"/><path class="cls-1" d="M184.96,158.26l-.74,5.31"/><path class="cls-1" d="M180.81,158.61l-2.52,17.97"/><path class="cls-1" d="M219.57,148.32l17.46,10.08"/><path class="cls-1" d="M179.35,158.61l-2.29,16.35"/><path class="cls-1" d="M232.48,165.47l4.64,27.72"/><path class="cls-1" d="M160.29,227.85l.43.12.28.07"/><path class="cls-1" d="M159.44,227.62l3.55,7.11"/><path class="cls-1" d="M171.01,250.49l-.49.12"/><path class="cls-1" d="M172.43,249.84l-.25.2"/><path class="cls-1" d="M159.91,227.82l3.23,6.71"/><path class="cls-1" d="M154.03,247.48l-.13-.44"/><path class="cls-1" d="M154.57,248l-.23-.22"/><path class="cls-1" d="M166.27,241.25l-.13-.31"/><path class="cls-1" d="M172.07,250.09l-.74.32"/><path class="cls-1" d="M233.04,161.51l-3.99,1.49"/><path class="cls-1" d="M225.26,201.04l16.52-9.54"/><path class="cls-1" d="M220.72,211.98l1.41-10.08"/><path class="cls-1" d="M229,163.32l-5.4,38.51"/><path class="cls-1" d="M218.34,239.31l-.19,1.36"/><path class="cls-1" d="M173.85,215.07l-.59-.43"/><path class="cls-1" d="M221.38,212.36l-3.99,1.49"/><path class="cls-1" d="M245.93,225.03l2-1.56"/><path class="cls-1" d="M218.15,240.66l-.63-.36"/><path class="cls-1" d="M176.95,213.08l-1.71.64"/><path class="cls-1" d="M237.03,158.4l5.45,32.53"/><path class="cls-1" d="M243.94,226.59l1.05-.82"/><path class="cls-1" d="M243.94,226.59l-1.35-.78"/><path class="cls-1" d="M233.04,161.51l2-1.56"/><path class="cls-1" d="M102.41,79.43l-2.68-4.14"/><path class="cls-1" d="M103.97,78.38l5.43,7.76"/><path class="cls-1" d="M110.36,83.58l-.92-4.59"/><path class="cls-1" d="M110.66,92.86l1.68,2.5"/><path class="cls-1" d="M117.75,89.08l-4.49-6.67"/><path class="cls-1" d="M124.76,72.13l1.03-5.15"/><path class="cls-1" d="M187.4,225.7l2.21.88"/><path class="cls-1" d="M107.94,221.06l1.75-1.48"/><path class="cls-1" d="M111.12,78.63l.37.66"/><path class="cls-1" d="M161.37,132.82l-1.85.51"/><path class="cls-1" d="M109.7,70.51l.09.34"/><path class="cls-1" d="M97.57,107.82l.56-.24"/><path class="cls-1" d="M103.94,78.38l-3-4.26"/><path class="cls-1" d="M175.21,226l.09-.45"/><path class="cls-1" d="M158.81,156.53l.13,3.79"/><path class="cls-1" d="M159.65,150.64l.72-1.98"/><path class="cls-1" d="M115.64,94.61l3.97,8.11"/><path class="cls-1" d="M109.64,91.85l.95,1.01"/><path class="cls-1" d="M91.5,73.56l4.8,4.98"/><path class="cls-1" d="M117.77,89.9l-.17-5.42"/><path class="cls-1" d="M119.91,84.81l.42,1.79"/><path class="cls-1" d="M102.67,79.91l-.27-.48"/><path class="cls-1" d="M126.61,71.38l-.31,1.3"/><path class="cls-1" d="M168.55,205.38s-.59-1.56.26-3.31,1.87-2.32,1.87-2.32"/><path class="cls-1" d="M136.93,212.38l-3.42.52"/><path class="cls-1" d="M120.93,216.92l3.06-1.1"/><path class="cls-1" d="M102.03,225.48l-1.03.68"/><path class="cls-1" d="M106.66,214.4l-2.03.09"/><path class="cls-1" d="M184.41,224.83l-1.78-.58"/><path class="cls-1" d="M100.93,74.09l-1.41-2.16"/><path class="cls-1" d="M102.4,107.18l2.23,1.29"/><path class="cls-1" d="M102.4,107.18l-6.28-4.94"/><path class="cls-1" d="M105.99,112.55l-1.59-.36"/><path class="cls-1" d="M105.99,112.55l2.37,1.01"/><path class="cls-1" d="M114.46,99.53l-2.07-4.05"/><path class="cls-1" d="M114.46,99.53l2.2,5.6"/><path class="cls-1" d="M94.65,69.52l5.06,5.74"/><path class="cls-1" d="M114.52,90.92l-.43-1.57"/><path class="cls-1" d="M109.79,70.85l1.96,8.77"/><path class="cls-1" d="M97.76,77.03l11.1,10.89"/><path class="cls-1" d="M125.09,78.1l.16-.79"/><path class="cls-1" d="M123.11,77.63l1.63-5.5"/><path class="cls-1" d="M120.33,86.6l2.75-8.99"/><path class="cls-1" d="M126.61,71.38l1.04-3.35"/><path class="cls-1" d="M194.67,228.09l3.99,2.23"/><path class="cls-1" d="M194.91,229.1l2.6,1.33"/><path class="cls-1" d="M107.93,221.07l-1.29.92"/><path class="cls-1" d="M170.54,250.59l-5.74-14.96"/><path class="cls-1" d="M114.09,89.35l-1.03-3.49"/><path class="cls-1" d="M172.49,249.8l-6.27-16.1"/><path class="cls-1" d="M93.04,217.91c.48-.81.92-2.67.92-2.67,0,0,.81.71.57,2.89"/><path class="cls-1" d="M109.44,215.75c.48-1.12.92-3.66.92-3.66,0,0,.81.98.57,3.97"/><path class="cls-1" d="M99.01,216.24c-.62-.76-1.28-2.56-1.28-2.56,0,0-.85.79-.4,2.94"/><path class="cls-1" d="M105.82,216.81c-.62-.76-1.28-2.56-1.28-2.56,0,0-.85.79-.4,2.94"/><path class="cls-1" d="M108.08,224.97c-.62-.76-1.28-2.56-1.28-2.56,0,0-.85.79-.4,2.94"/><path class="cls-1" d="M111.19,223.1c-.58-1.18-1.25-3.93-1.25-3.93,0,0-.69,1.14-.17,4.4"/><path class="cls-1" d="M115.63,221.19c-.47-1.23-.9-4.02-.9-4.02,0,0-.79,1.07-.56,4.37"/><path class="cls-1" d="M125.35,218.77c-.47-1.23-.9-4.02-.9-4.02,0,0-.79,1.07-.56,4.37"/><path class="cls-1" d="M142.47,214.39c-.47-1.23-.9-4.02-.9-4.02,0,0-.79,1.07-.56,4.37"/><path class="cls-1" d="M183.26,227.08c-.47-1.23-.9-4.02-.9-4.02,0,0-.79,1.07-.56,4.37"/><path class="cls-1" d="M176.87,227.04c-.32-1.26-.49-4.07-.49-4.07,0,0-.76,1.02-.8,4.32"/><path class="cls-1" d="M198.49,231.68c-.35-.71-.61-1.77-.61-1.77,0,0-.64.61-.47,2.52"/><path class="cls-1" d="M112.14,222.26c.33-1.26.48-4.08.48-4.08,0,0,.83,1,.9,4.3"/><path class="cls-1" d="M116.54,221.89c.33-1.26.48-4.08.48-4.08,0,0,.83,1,.9,4.3"/><path class="cls-1" d="M93.97,223.06c-.62-.76-1.28-2.56-1.28-2.56,0,0-.85.79-.4,2.94"/><path class="cls-1" d="M97.08,221.19c-.58-1.18-1.25-3.93-1.25-3.93,0,0-.69,1.14-.17,4.4"/><path class="cls-1" d="M101.51,219.28c-.47-1.23-.9-4.02-.9-4.02,0,0-.79,1.07-.56,4.37"/><path class="cls-1" d="M98.02,220.35c.33-1.26.48-4.08.48-4.08,0,0,.83,1,.9,4.3"/><path class="cls-1" d="M102.43,219.98c.33-1.26.48-4.08.48-4.08,0,0,.83,1,.9,4.3"/><path class="cls-1" d="M121.04,223.49c-.62-.76-1.28-2.56-1.28-2.56,0,0-.85.79-.4,2.94"/><path class="cls-1" d="M124.15,221.61c-.58-1.18-1.25-3.93-1.25-3.93,0,0-.69,1.14-.17,4.4"/><path class="cls-1" d="M128.59,219.7c-.47-1.23-.9-4.02-.9-4.02,0,0-.79,1.07-.56,4.37"/><path class="cls-1" d="M125.09,220.77c.33-1.26.48-4.08.48-4.08,0,0,.83,1,.9,4.3"/><path class="cls-1" d="M129.5,220.4c.33-1.26.48-4.08.48-4.08,0,0,.83,1,.9,4.3"/><path class="cls-1" d="M133.92,221.16c-.62-.76-1.28-2.56-1.28-2.56,0,0-.85.79-.4,2.94"/><path class="cls-1" d="M79.97,217.36c-.78-1.21-1.48-3.96-1.48-3.96,0,0-1.3,1.06-.92,4.3"/><path class="cls-1" d="M77.99,220.17c-.95-1.17-2.05-3.87-2.05-3.87,0,0-1.14,1.12-.28,4.33"/><path class="cls-1" d="M85.3,218.29c-.78-1.21-1.48-3.96-1.48-3.96,0,0-1.3,1.06-.92,4.3"/><path class="cls-1" d="M79.55,219.34c.55-1.24.8-4.02.8-4.02,0,0,1.37.99,1.49,4.24"/><path class="cls-1" d="M86.81,218.98c.55-1.24.8-4.02.8-4.02,0,0,1.37.99,1.49,4.24"/><path class="cls-1" d="M151.79,250.61c-.78-1.21-1.48-3.96-1.48-3.96,0,0-1.3,1.06-.92,4.3"/><path class="cls-1" d="M149.81,253.41c-.95-1.17-2.05-3.87-2.05-3.87,0,0-1.14,1.12-.28,4.33"/><path class="cls-1" d="M157.11,251.53c-.78-1.21-1.48-3.96-1.48-3.96,0,0-1.3,1.06-.92,4.3"/><path class="cls-1" d="M151.36,252.58c.55-1.24.8-4.02.8-4.02,0,0,1.37.99,1.49,4.24"/><path class="cls-1" d="M158.62,252.22c.55-1.24.8-4.02.8-4.02,0,0,1.37.99,1.49,4.24"/><path class="cls-1" d="M178.58,239.07c-.78-1.21-1.48-3.96-1.48-3.96,0,0-1.3,1.06-.92,4.3"/><path class="cls-1" d="M176.6,241.88c-.95-1.17-2.05-3.87-2.05-3.87,0,0-1.14,1.12-.28,4.33"/><path class="cls-1" d="M183.91,240c-.78-1.21-1.48-3.96-1.48-3.96,0,0-1.3,1.06-.92,4.3"/><path class="cls-1" d="M178.16,241.05c.55-1.24.8-4.02.8-4.02,0,0,1.37.99,1.49,4.24"/><path class="cls-1" d="M185.42,240.68c.55-1.24.8-4.02.8-4.02,0,0,1.37.99,1.49,4.24"/><path class="cls-1" d="M224.28,240.23c-.78-1.21-1.48-3.96-1.48-3.96,0,0-1.3,1.06-.92,4.3"/><path class="cls-1" d="M222.3,243.04c-.95-1.17-2.05-3.87-2.05-3.87,0,0-1.14,1.12-.28,4.33"/><path class="cls-1" d="M229.61,241.16c-.78-1.21-1.48-3.96-1.48-3.96,0,0-1.3,1.06-.92,4.3"/><path class="cls-1" d="M223.86,242.21c.55-1.24.8-4.02.8-4.02,0,0,1.37.99,1.49,4.24"/><path class="cls-1" d="M231.12,241.85c.55-1.24.8-4.02.8-4.02,0,0,1.37.99,1.49,4.24"/><path class="cls-1" d="M250.22,227.52c-.78-1.21-1.48-3.96-1.48-3.96,0,0-1.3,1.06-.92,4.3"/><path class="cls-1" d="M244.46,228.57c.55-1.24.8-4.02.8-4.02,0,0,1.37.99,1.49,4.24"/><path class="cls-1" d="M251.72,228.21c.55-1.24.8-4.02.8-4.02,0,0,1.37.99,1.49,4.24"/><path class="cls-1" d="M217.48,243.96c.55-1.24.8-4.02.8-4.02,0,0,1.37.99,1.49,4.24"/><path class="cls-1" d="M213.43,241.85c.55-1.24.8-4.02.8-4.02,0,0,1.37.99,1.49,4.24"/><path class="cls-1" d="M137.02,219.28c-.58-1.18-1.25-3.93-1.25-3.93,0,0-.69,1.14-.17,4.4"/><path class="cls-1" d="M141.46,217.37c-.47-1.23-.9-4.02-.9-4.02,0,0-.79,1.07-.56,4.37"/><path class="cls-1" d="M137.97,218.44c.33-1.26.48-4.08.48-4.08,0,0,.83,1,.9,4.3"/><path class="cls-1" d="M142.37,218.07c.33-1.26.48-4.08.48-4.08,0,0,.83,1,.9,4.3"/><path class="cls-1" d="M152.75,216.23c-.62-.76-1.28-2.56-1.28-2.56,0,0-.85.79-.4,2.94"/><path class="cls-1" d="M144.71,221.94c-.58-1.18-1.25-3.93-1.25-3.93,0,0-.69,1.14-.17,4.4"/><path class="cls-1" d="M149.15,220.03c-.47-1.23-.9-4.02-.9-4.02,0,0-.79,1.07-.56,4.37"/><path class="cls-1" d="M145.66,221.1c.33-1.26.48-4.08.48-4.08,0,0,.83,1,.9,4.3"/><path class="cls-1" d="M150.06,220.73c.33-1.26.48-4.08.48-4.08,0,0,.83,1,.9,4.3"/><path class="cls-1" d="M127.23,215.84c.33-1.26.48-4.08.48-4.08,0,0,.83,1,.9,4.3"/><path class="cls-1" d="M178.66,225.59c.4-1.27.62-4.09.62-4.09,0,0,.95.99.99,4.29"/><path class="cls-1" d="M198.13,233.83c.4-1.27.62-4.09.62-4.09,0,0,.95.99.99,4.29"/><path class="cls-1" d="M183.65,227.44c.59-1.34,1.23-4.42,1.23-4.42,0,0,.81,1.24.36,4.89"/><path class="cls-1" d="M188.78,229.59c.56-1.34,1.17-4.43,1.17-4.43,0,0,.75,1.24.32,4.89"/><path class="cls-1" d="M176.63,225.37c.4-1.27.62-4.09.62-4.09,0,0,.95.99.99,4.29"/><path class="cls-1" d="M132.31,215.13c.33-1.26.48-4.08.48-4.08,0,0,.83,1,.9,4.3"/><path class="cls-1" d="M143.53,215.37c.86-1.53,1.47-4.89,1.47-4.89,0,0,1.77,1.11,1.63,5.02"/><path class="cls-1" d="M127.84,13.16s-1.81-9.04-11.69-5.26c0,0,.09-7.74-5.16-7.65s-8.25,4.04-8.17,5.93c0,0-6.94-1.63-8.41,1.03s-4.83,4.91-4.83,4.91c0,0-2.05-3.53-5.11-2.16s-6.16,2.14-5.85,4.68,2.7,4.92,2.7,4.92c0,0-2.94-.77-3.93,1.03s-1.01,2.64-1.13,3.85c0,0-.1-3.18-2.76-4.68,0,0,.39-2.75-.77-4.92,0,0,.18-4.03-3.53-3.44,0,0-1.67-2.4-4.71-.41,0,0-4.63-3.02-11.52,1.11,0,0-11.3-3.12-14.07,5.45,0,0-3.49-4.54-9.3-2.07,0,0-3.31,2.31-.41,6.28,0,0-4.58-1-5.63,4.4,0,0-4.57,3.51-2.25,8.91,0,0-11.6.94-7.95,11.67,0,0-4.54,8.63,5,10.31,0,0-3.54,2.69.64,7.6"/><path class="cls-1" d="M295.55,84.77s5.66-7.85-4.31-12.75c0,0,6.01-5.46,2.2-9.43s-9-3.46-10.4-2.04c0,0-3.7-6.5-6.8-5.73s-7.22-.21-7.22-.21c0,0,1.25-4.1-1.99-5.47s-6.05-3.2-7.78-1.15c-1.73,2.05-1.86,5.59-1.86,5.59,0,0-1.51-2.81-3.6-2.29s-2.75,1.11-3.76,1.89c0,0,2.37-2.35,1.62-5.47,0,0,2.39-1.67,3.23-4.11,0,0,3.22-2.74.12-5.17,0,0,.65-3-3.05-3.91,0,0-.99-5.72-9.08-8.06,0,0-5.68-10.91-14.24-6.92,0,0,1-5.92-5.06-8.63,0,0-4.14-.89-5.12,4.17,0,0-2.51-4.24-7.41-1.18,0,0-5.96-1-8.45,4.64,0,0-9.01-8.24-14.65,2.23,0,0-9.88,2.68-4.35,11.2,0,0-4.6-.8-5.38,5.93"/><path class="cls-2" d="M80.13,66.46s4.5,1.33,5.17,6.79c0,0,4.27-.21,5.78,3,0,0,4.55,1.86,2.39,6.22,0,0,3.98,5.29-2.6,10.78,0,0,1.64,7.1-4.7,9.03,0,0,4.27.27,4.92,2.84,0,0,6.58-1.47,5.96,5.65,0,0,5.77-3.73,8.15,3.79,0,0,9.87-1.23,15.99,5.44,0,0,9.25-.43,7.84,7.42,0,0,1.49,4.47-3.66,4.55,0,0,7.12,5.59,2.3,13.98,0,0,2.04,6.94-3.68,13.35,0,0,1.52,6.24-5.78,7,0,0-4.84-.52-6.24-2.45,0,0-3.25,4.74-14.36-.12"/><path class="cls-1" d="M127.93,150.49s5.89,4.95,9.34,1.51c0,0,2.35,4.99,8.73,3.2s7.7-6.05,7.7-6.05c0,0,7.08-8.37,3.06-13.54,0,0,6.31-1.59,2.18-12.12s-12.7-9-12.7-9c0,0-5.28-11.44-16.9-8.75,0,0-7.51-3.84-14.82,1.74,0,0-6.71,2.62-6.06,6.82"/><path class="cls-1" d="M72.45,146.46s-7.4-2.08-9.13,2.46c0,0-4.2-3.59-9.28.67s-4.53,8.68-4.53,8.68c0,0-3.01,10.54,2.78,13.6,0,0-5.1,4.05,3,11.94,8.1,7.89,15.28,2.97,15.28,2.97,0,0,9.52,8.26,19.01,1.02,0,0,8.42.41,12.79-7.69,0,0,5.04-5.15,2.71-8.71"/><path class="cls-1" d="M137.78,57.77s5.89,4.95,9.34,1.51c0,0,2.35,4.99,8.73,3.2s7.7-6.05,7.7-6.05c0,0,7.08-8.37,3.06-13.54,0,0,6.31-1.59,2.18-12.12s-12.7-9-12.7-9c0,0-5.28-11.44-16.9-8.75,0,0-7.51-3.84-14.82,1.74,0,0-6.71,2.62-6.06,6.82"/><path class="cls-1" d="M182.15,117.07s-7.12,2.91-5.69,7.56c0,0-5.51-.25-6.9,6.24s5.87,6.26,5.87,6.26c0,0,.01,13.54,6.46,12.39,0,0-1.53,6.33,9.71,7.57,11.24,1.24,13.88-7.05,13.88-7.05,0,0,12.59.65,15.61-10.89,0,0,6.89-4.86,5.36-13.93,0,0,.81-7.16-3.22-8.54"/><path class="cls-1" d="M260.1,111.33s-3.46,6.87.66,9.44c0,0-4.32,3.43-1.12,9.23s8.53.88,8.53.88c0,0,8.89,10.21,13,5.12,0,0,3,5.78,12.3-.65,9.3-6.44,5.85-14.43,5.85-14.43,0,0,9.93-7.76,4.65-18.46,0,0,2.02-8.19-5.09-14.03,0,0-4.09-5.94-8.03-4.33"/><path class="cls-1" d="M96.86,50.41s-4.16,5.55.03,7.24c0,0-4.82,2.96-1.84,7.21s8.97.07,8.97.07c0,0,8.68,7.25,13.4,3.02,0,0,2.76,4.25,13.07-1.38,10.31-5.63,7.23-11.56,7.23-11.56,0,0,11.07-6.71,6.24-14.59,0,0,2.72-6.47-4.39-10.47,0,0-3.91-4.29-8.19-2.77"/><path class="cls-1" d="M23.54,114.38s-6.13-3.24-7.15,1.16c0,0-3.67-4.3-7.41-.7s1.33,8.88,1.33,8.88c0,0-5.81,9.71-.9,13.71,0,0-3.77,3.39,3.4,12.69,7.17,9.31,12.55,5.34,12.55,5.34,0,0,8.35,9.89,15.38,3.89,0,0,6.81,1.68,9.66-5.97,0,0,3.63-4.53,1.46-8.52"/><path class="cls-1" d="M47.54,36.39s-6.5.46-5.58,4.56c0,0-4.85-1.65-6.55,3.18s4.72,6.56,4.72,6.56c0,0-.99,10.85,4.78,11.62,0,0-1.82,4.67,8.01,8.62,9.83,3.95,12.77-2,12.77-2,0,0,11.06,3.83,14.58-4.61,0,0,6.44-2.08,5.75-9.75,0,0,1.24-5.53-2.21-7.69"/><path class="cls-1" d="M260.67,64.39s-3.7-7.03-8.34-5.1c0,0-.29-5.69-7.1-6.48s-5.85,6.66-5.85,6.66c0,0-13.92,1.36-12.1,7.87,0,0-6.66-.95-6.82,10.74-.16,11.69,8.64,13.57,8.64,13.57,0,0,.58,13.01,12.75,14.98,0,0,5.68,6.6,14.86,4.12,0,0,7.45.12,8.46-4.16"/><path class="cls-1" d="M40.47,71.92s-3.7-7.03-8.34-5.1c0,0-.29-5.69-7.1-6.48s-5.85,6.66-5.85,6.66c0,0-13.92,1.36-12.1,7.87,0,0-6.66-.95-6.82,10.74-.16,11.69,8.64,13.57,8.64,13.57,0,0,.58,13.01,12.75,14.98,0,0,5.68,6.6,14.86,4.12,0,0,7.45.12,8.46-4.16"/><path class="cls-1" d="M175.06,62.3s-5.03-.76-5.03,5.21c0,0-.69-3.58-4.87-4.5-6.47-1.43-7.84,5.95-7.84,5.95,0,0-9.44-1.98-10.05,7.45,0,0-6.41-1.16-6.99,10.14-.58,11.3,7.86,13.44,7.86,13.44,0,0,.09,12.6,11.79,14.95,0,0,5.25,6.59,14.22,4.53,0,0,7.2.38,8.33-3.71"/><path class="cls-1" d="M106.19,165.93s-3.76,5.44,1.19,8.51c0,0-3.08,7.67,1.46,11.82,0,0,3.73,8.62,11.4,6.69,0,0,8.61,2.27,8.44-9.31,0,0,3.62,5.18,8.03,1.49s2.6-10.78,2.6-10.78c0,0,6.72-10.65-2.44-10.15,0,0-.77-11.21-10.85-7.68"/><path class="cls-1" d="M178.94,91.2s-3.76,5.44,1.19,8.51c0,0-3.08,7.67,1.46,11.82,0,0,3.73,8.62,11.4,6.69,0,0,8.61,2.27,8.44-9.31,0,0,3.62,5.18,8.03,1.49s2.6-10.78,2.6-10.78c0,0,6.72-10.65-2.44-10.15,0,0,2.85-6.46-2.95-8.52"/><path class="cls-1" d="M194.93,47.32s-.84-4.61-4.86-3.66c0,0-2.3-5.38-6.65-5.19,0,0-6.18-2.45-9.05,2.35,0,0-5.44,3.17.44,8.88,0,0-4.4-.78-4.76,3.27s4.1,6.69,4.1,6.69c0,0,1.97,8.69,6.3,3.86,0,0,5.99,5.22,9.27-1.59"/><path class="cls-1" d="M199.34,60.52s-4.19,2.08-2.18,5.68c0,0-4.53,3.69-3.15,7.82,0,0-.64,6.62,4.76,8.05,0,0,4.55,4.35,8.41-2.87,0,0,.46,4.44,4.46,3.67,3.99-.77,5.3-5.79,5.3-5.79,0,0,7.81-4.29,1.97-7.12,0,0,3.36-7.2-4.09-8.47"/><path class="cls-1" d="M211.43,108.48c2.97.69,2.99,4.58,2.99,4.58,6.08-7.53,14.15.51,14.15.51,13.2,6.12,4.19,19.51,4.19,19.51.32,10.76-11.41,9.53-11.41,9.53-.99,9.41-9.58,9.85-9.58,9.85.32,3.7-2.89,1.94-2.89,1.94-.6,2.04-3.53,1.61-3.53,1.61-.53,4.58-5.5,3.29-5.5,3.29-1.23,3.99-5.2,1.63-5.2,1.63-3.44,1.78-4.66-2.85-4.66-2.85-5.58.94-7.18-.85-7.18-.85-4.66,4.72-9.7-4.11-9.7-4.11-6.52,1.41-4.23-4.44-4.23-4.44-4.03-9.35,7.2-5.62,7.2-5.62"/><line class="cls-1" x1="214.21" y1="94.59" x2="220.77" y2="84.59"/><polyline class="cls-1" points="223.43 87.19 216.67 98.82 229.47 95.03"/><polyline class="cls-1" points="229.05 98.14 220.49 101.23 214.42 104.28 211.76 107.03"/><path class="cls-1" d="M85.61,58.7s.4,5,4,4.33,6.27-3.07,4-7.13"/></g></svg>