<svg xmlns="http://www.w3.org/2000/svg" viewBox="0 0 14.84 14.84"><defs><style>.cls-1{fill:#fff;}</style></defs><title>2DGraphics_Icon</title><g id="Layer_2" data-name="Layer 2"><g id="Layer_1-2" data-name="Layer 1"><path class="cls-1" d="M11.28,14.84H3.56A3.57,3.57,0,0,1,0,11.28V3.56A3.57,3.57,0,0,1,3.56,0h7.72a3.57,3.57,0,0,1,3.56,3.56v7.72A3.57,3.57,0,0,1,11.28,14.84ZM3.56,1A2.56,2.56,0,0,0,1,3.56v7.72a2.56,2.56,0,0,0,2.56,2.56h7.72a2.56,2.56,0,0,0,2.56-2.56V3.56A2.56,2.56,0,0,0,11.28,1Z"/></g></g></svg>