<svg xmlns="http://www.w3.org/2000/svg" viewBox="0 0 19.22 21.65"><defs><style>.cls-1{fill:#fff;}</style></defs><title>Arrangement_Icon</title><g id="Layer_2" data-name="Layer 2"><g id="Layer_1-2" data-name="Layer 1"><path class="cls-1" d="M4.88,18.71a6.26,6.26,0,0,0,.55-.34,2,2,0,0,0,.75-1.26c.22-1.19.44-2.37.65-3.56q.51-2.71,1-5.44c.19-1,.37-2,.56-3,0-.06,0-.12,0-.2.24.16.47.33.71.48l.61.35a2.25,2.25,0,0,0,1.35.21c.48-.05,1-.12,1.44-.19a.28.28,0,0,0,.23-.32c0-.15-.1-.21-.27-.22l-1.73-.14a1.49,1.49,0,0,1-1-.61c-.27-.36-.52-.73-.79-1.1a2.94,2.94,0,0,0-.87-.85,1.23,1.23,0,0,0-1.71.33A.55.55,0,0,0,6.3,3c-.2,1.11-.41,2.22-.61,3.32l0,.13H5.5L5.58,6,5.18,6,5,7l.39.07.08-.39.15,0-.19,1H5.27l.07-.43-.4-.08-.18,1,.39.07.08-.41.16,0L5.2,9,5.05,9l.07-.41-.4-.08-.19,1,.4.08L5,9.16l.15,0-.19,1-.15,0,.07-.41-.4-.08-.19,1,.4.08.08-.42.14.05c0,.16,0,.32-.08.48L4,15.67a.25.25,0,0,1-.29.23.33.33,0,0,1-.33-.38c.15-1,.32-2.08.44-3.12a9.54,9.54,0,0,0-.07-2.2c0-.43-.11-.84-.17-1.26a1.06,1.06,0,0,0,0-.19.73.73,0,0,1,0-.56,1.16,1.16,0,0,0,.08-.32A.46.46,0,0,0,3,7.35a2.68,2.68,0,0,0-1,.53A6.79,6.79,0,0,0,.36,9.68a3.34,3.34,0,0,0-.34.77c-.11.42.2.7.62.59L.8,11a3.81,3.81,0,0,1,.15.44,7.86,7.86,0,0,1,.1,3.24c-.07.47-.16.93-.23,1.4,0,.24,0,.49,0,.73l.08.35a.41.41,0,0,1,.05.09,2.28,2.28,0,0,0,.76.95,3.51,3.51,0,0,0,1.71.62c.29,0,.59,0,.88,0ZM2.57,7.84c.43-.11.56,0,.49.32A1.21,1.21,0,0,1,3,8.41a4.71,4.71,0,0,1-1.81,1.94,1.06,1.06,0,0,1-.42.15c-.2,0-.3-.08-.27-.28a1.7,1.7,0,0,1,.13-.4A4.64,4.64,0,0,1,2,8.24,6,6,0,0,1,2.57,7.84Z"/><path class="cls-1" d="M11.64,8.44,11,3.68c-.12.09-.21.13-.26.21a.7.7,0,0,1-.66.06A.59.59,0,0,1,10,3.24l.14-.12a.53.53,0,0,1-.37-.67.43.43,0,0,1,.5-.34.44.44,0,0,1,.19.07l.23.11.08-.06a3.15,3.15,0,0,0-.11-.44.26.26,0,0,0-.12-.15c-.23-.06-.29-.24-.34-.44C10,.39,10.21.07,11.05,0c.47,0,.57,0,.7.47a4.52,4.52,0,0,1,.11.53.42.42,0,0,1-.17.47s0,.14-.07.21l.09.07c.1-.09.19-.22.3-.25s.46-.1.6,0,.16.36.21.56c0,0,0,.11-.07.17s.18.12.2.2.14.49.05.62a1,1,0,0,1-.62.24c-.12,0-.26-.1-.39-.16l-.1.08a1,1,0,0,1,.08.25c.31,1.52.61,3,.9,4.55,0,.17.1.22.26.24A2.92,2.92,0,0,1,15,9a2.08,2.08,0,0,1,.64,1.57c0,.42-.07.84-.09,1.26a.58.58,0,0,0,.11.29c.05.1.19.22.17.3s-.18.18-.29.24-.36.08-.38.16a1.3,1.3,0,0,0,0,.65,10,10,0,0,0,.4,1,.29.29,0,0,0,.42.19.49.49,0,0,1,.65.61.83.83,0,0,0,.17.82,3.17,3.17,0,0,1,.64,1.57,2.43,2.43,0,0,1-1.3,2.47,6,6,0,0,1-3,.75,2.91,2.91,0,0,1-2.86-2.12,3.64,3.64,0,0,1,.08-1.91.91.91,0,0,0-.06-.67c-.21-.45-.08-.62.41-.6a.42.42,0,0,0,.31-.17,1.22,1.22,0,0,0,.23-1.23c-.08-.22-.17-.43-.26-.64a.28.28,0,0,0-.39-.17.45.45,0,0,1-.38-.07c-.07-.06,0-.24,0-.36a1.32,1.32,0,0,0,0-.35c-.16-.49-.39-.95-.5-1.44a2.33,2.33,0,0,1,1.48-2.6Zm-.05,8.27a1.54,1.54,0,0,0-.15-.29s-.15,0-.22.09.07.25.15.29a.61.61,0,0,0,.4,0,.51.51,0,0,0,.33-.56c0-.38-.08-.76-.13-1.14,0-.22,0-.38.26-.42v.07l.31.16c0-.07.1-.18.08-.19a.62.62,0,0,0-.31-.18.46.46,0,0,0-.53.48,8.1,8.1,0,0,0,.11,1.19C11.94,16.54,11.87,16.68,11.59,16.71Zm2.77-2.23c.24-.06.36,0,.42.36A7.53,7.53,0,0,0,15.1,16a.48.48,0,0,0,.73.24A.52.52,0,0,0,16,16s-.09-.09-.14-.13l-.18.25s0,.05,0,.07c-.29,0-.34-.06-.41-.35a10.65,10.65,0,0,0-.29-1.11.49.49,0,0,0-.83-.23c-.06.08,0,.22-.08.33s.22.07.23,0A1.37,1.37,0,0,0,14.36,14.48ZM10.84,2.73l-.43.34.53.2Zm.94-.4v.29l.29,0C12.1,2.3,12,2.22,11.78,2.33Z"/><path class="cls-1" d="M19.19,7.8a.58.58,0,0,1-.4.76.61.61,0,0,0-.19.17L11.19,18,8.51,21.35a1.16,1.16,0,0,1-.26.23c-.21.15-.39.06-.54-.11a.35.35,0,0,1,0-.51c.55-.7,1.09-1.4,1.65-2.09l9-11.06a.9.9,0,0,1,.39-.25A.35.35,0,0,1,19.19,7.8Zm-.59.63-.05,0-.16.17-7.88,9.71s-.08.08-.09.13a.74.74,0,0,0,0,.2Z"/></g></g></svg>