<svg xmlns="http://www.w3.org/2000/svg" viewBox="0 0 27.16 17.58"><defs><style>.cls-1{fill:#ececec;fill-rule:evenodd;}</style></defs><title>Email_Icon</title><g id="Layer_2" data-name="Layer 2"><g id="Layer_1-2" data-name="Layer 1"><path class="cls-1" d="M.18,15.81c.48,1.59,1.93,1.68,3.88,1.68,3.26,0,20.42.36,21.65-.33,1.42-.8,1.26-2.23,1.26-4.29C27,2.35,28.49,0,23,0H6.43C.56,0,.07-.45.07,4.81c0,1.78-.21,9.93.11,11M8,4.58C6.71,3.72,3.71,2.11,2.76,1.15l21.51,0c-.15.18-10,6.54-10.75,6.85Zm8.79,2.67c1.82-1,8-5.22,8.91-5.39.4,2.09.22,10.94.09,13.44l-1.33-1a5.46,5.46,0,0,0-1.1-1.06C22.4,12.43,17.32,8.33,16.83,7.25ZM1.32,15.6a116.64,116.64,0,0,1,0-13.74c.91.16,7.83,4.91,9,5.53A35,35,0,0,1,6,11.6C4.93,12.46,2.22,15.24,1.32,15.6ZM11.55,8.22c2.15,1.23,1.87,1.61,4.14-.12.08.06,8.86,7.55,9.15,8.11-1,.4-19.49.17-22.34.14A116.94,116.94,0,0,1,11.55,8.22Z"/></g></g></svg>