<svg xmlns="http://www.w3.org/2000/svg" viewBox="0 0 17.55 15.41"><defs><style>.cls-1,.cls-2{fill:#fff;}.cls-1{fill-rule:evenodd;}</style></defs><title>FilmScoring_Icon</title><g id="Layer_2" data-name="Layer 2"><g id="Layer_1-2" data-name="Layer 1"><path class="cls-1" d="M6.78,4c-.18.77,0,5.07-.07,6.29C4.1,9.45,4.56,12.59,6.35,12c.83-.26.69-1.28.69-2.39s0-2.23,0-3.34a28.56,28.56,0,0,1,4.83-.87V9c-2.15-1.13-2.47,2.24-.44,1.74.84-.2.79-.88.78-2a49.93,49.93,0,0,0-.06-5.67A30.86,30.86,0,0,0,6.78,4"/><path class="cls-2" d="M8.78,0c2.57,0,5.13,0,7.7,0a1.06,1.06,0,0,1,1.05.94,2.68,2.68,0,0,1,0,.4q0,6.38,0,12.76a2,2,0,0,1-.14.77.89.89,0,0,1-.87.54H1a1,1,0,0,1-1-.89,1.94,1.94,0,0,1,0-.34Q0,7.7,0,1.24A1.76,1.76,0,0,1,.12.6.91.91,0,0,1,1,0Zm5.35,14.3V1.11H3.42v13.2Zm2.45-4.73c0-.27,0-.53,0-.8s0-.22-.22-.22H15c-.15,0-.21.06-.21.2V10.3c0,.15.05.22.22.22h1.37c.15,0,.21-.06.21-.2Zm0-3.76c0-.27,0-.53,0-.8,0-.06-.12-.18-.18-.18H15c-.15,0-.21.06-.21.21V6.57c0,.18.08.23.25.23h1.32c.17,0,.24-.07.23-.24S16.58,6.06,16.58,5.82ZM2.74,9.54h0V8.8c0-.16,0-.25-.22-.24H1.16c-.15,0-.22.06-.22.22v1.53c0,.16.07.21.23.21H2.52c.16,0,.23,0,.22-.21Zm0-7.47V1.33c0-.17-.06-.24-.23-.24H1.16c-.16,0-.22.07-.22.22V2.85c0,.14.06.21.2.21q.69,0,1.38,0c.16,0,.23-.07.22-.22Zm0,3.73h0V5c0-.14-.05-.21-.2-.21H1.16c-.16,0-.22.07-.22.22V6.56c0,.18.08.24.26.24H2.5c.19,0,.25-.08.24-.25Zm12,7.44V14c0,.16.05.25.22.25h1.35c.16,0,.23-.05.23-.21V12.5c0-.16-.07-.21-.22-.21H15c-.18,0-.24.08-.23.24Zm0-11.16h0c0,.26,0,.51,0,.77A.25.25,0,0,0,15,3c.48,0,.95,0,1.43,0,.06,0,.18-.12.18-.19,0-.52,0-1,0-1.56,0-.15-.06-.21-.2-.21H15c-.16,0-.22.07-.22.22Zm-12,11.23v-.8c0-.15-.06-.22-.22-.22-.45,0-.91,0-1.37,0a.26.26,0,0,0-.2.2c0,.51,0,1,0,1.53,0,.15.06.23.22.22H2.53c.15,0,.21-.07.21-.21Z"/></g></g></svg>