<svg xmlns="http://www.w3.org/2000/svg" viewBox="0 0 16.52 16.2"><defs><style>.cls-1{fill:#fff;fill-rule:evenodd;}</style></defs><title>Asset 1</title><g id="Layer_2" data-name="Layer 2"><g id="Layer_1-2" data-name="Layer 1"><path class="cls-1" d="M12.2,15.63a6.88,6.88,0,0,0,.92-.5c.35-.24.58-.39.58-.38,2.14-1.08,2.2-3.3,0-4.6-3.33-2,.53-2.16.73-4.11C14.84,2.29,7,2.24,4.11,3.6c-8,3.77-3.84,15.28,8.09,12M7.64,3.89c1.56-.81,2.42,1.76,1,2.32A1.27,1.27,0,1,1,7.64,3.89ZM3.42,5.47C5,4.7,5.89,7,4.61,7.72A1.28,1.28,0,1,1,3.42,5.47ZM2.83,9.68C4.4,8.8,5.48,11.32,4,12A1.3,1.3,0,0,1,2.83,9.68Zm8,1.54a1.27,1.27,0,0,1,.9,2.37A1.27,1.27,0,1,1,10.85,11.22ZM6.58,12.31c1.68-.82,2.49,1.86.93,2.36A1.27,1.27,0,0,1,6.58,12.31Z"/><path class="cls-1" d="M0,1c.14.36.31.49,1,.64A31,31,0,0,0,10.09,2c.77-.1.92-.05,1-.82,0-1.16-1-1-2.07-1.09A34.49,34.49,0,0,0,1.26.46L.3.8C.07,1,.19.86,0,1"/><path class="cls-1" d="M12.6,1.6a2.87,2.87,0,0,0,3.92-.15L14.39.09A1.93,1.93,0,0,0,13,.25c-.6.33-.46.56-.39,1.35"/><path class="cls-1" d="M11.94,1.63A1.21,1.21,0,0,0,12,.52c-.37.15-.39-.3-.48.5s.25.54.46.61"/></g></g></svg>