<svg xmlns="http://www.w3.org/2000/svg" viewBox="0 0 26.88 20.86"><defs><style>.cls-1{fill:#fff;fill-rule:evenodd;}</style></defs><title>Identification_Icon</title><g id="Layer_2" data-name="Layer 2"><g id="Layer_1-2" data-name="Layer 1"><path class="cls-1" d="M.19,20.09l.53.55,25.43.22.6-.21.13-16.71-.34-.51-12.6-.18-.16-1.34C15,1.33,14.42.14,13.36,0c-1.64.2-1.18,1.86-.49,1.91l0,1.3L.36,3.41,0,3.87Zm13.7-19c-.35.73-1,.48-1.1,0S13.61,0,13.89,1.1Zm-8.37,7c2.55-1,4,2.86,1.49,3.81A2,2,0,1,1,5.52,8.1ZM9,3.9H17.8v.75H9Zm5.27,4.31h9.3v.88h-9.3Zm0,2.42h9.3v.88h-9.3Zm0,2.42h9.3v.88h-9.3Zm0,2.42h9.3v.88h-9.3ZM3.43,16.64a3.85,3.85,0,0,1,2-4c.81.78.94.85,1.65,0,1.63.91,2.14,2,2,4Z"/></g></g></svg>