<svg xmlns="http://www.w3.org/2000/svg" viewBox="0 0 15.3 15.3"><defs><style>.cls-1{fill:#fff;}</style></defs><title>PianoPlayer_Icon</title><g id="Layer_2" data-name="Layer 2"><g id="Layer_1-2" data-name="Layer 1"><path class="cls-1" d="M13.66,0c.39,0,.76,0,1.13,0a.53.53,0,0,1,.51.57V14.66a.56.56,0,0,1-.63.64H12.58V9.83h.18a.82.82,0,0,0,.9-.9V0Z"/><path class="cls-1" d="M2.72,9.83v5.46H.6a.55.55,0,0,1-.6-.61V.63A.56.56,0,0,1,.63,0h1c0,.06,0,.12,0,.17V8.86c0,.67.29,1,1,1Z"/><path class="cls-1" d="M8.21,9.83h.23A.81.81,0,0,0,9.29,9V0h1.09V8.87a.83.83,0,0,0,1,1h.12v5.46H8.21Z"/><path class="cls-1" d="M7.09,9.83v5.46H3.84V9.83h.21A.82.82,0,0,0,4.92,9V0H6V9a.83.83,0,0,0,.72.88Z"/></g></g></svg>