<?xml version="1.0" encoding="UTF-8"?><svg id="Layer_2" xmlns="http://www.w3.org/2000/svg" viewBox="0 0 91.32 91.26"><g id="Layer_1-2"><path d="M91.32,45.56c.04,24.35-19.26,45.72-45.71,45.69C19.35,91.23,.07,70.13,0,45.77-.07,21.22,19.32-.06,45.78,0c26.42,.06,45.5,21.39,45.54,45.56ZM19.33,64.79c.92,.45,1.4,.7,1.9,.93,6.1,2.74,12.46,3.94,19.13,3.06,8.18-1.08,15.19-4.5,20.73-10.67,5.53-6.16,8.12-13.43,7.92-21.69-.03-1.32,.21-2.23,1.48-2.93,1.58-.87,2.72-2.26,3.72-4.14-1.92,.74-3.63,1.16-5.44,1.2,1.53-1.76,3.36-3.16,4.05-5.72-1.49,.66-2.75,1.15-3.94,1.75-1.49,.75-2.63,.58-4.06-.48-4.06-3.03-8.52-3.34-12.95-.83-4.21,2.39-6.13,6.17-5.72,11.02,.09,1.08-.25,1.47-1.29,1.44-2.77-.08-5.46-.63-8.05-1.58-5.27-1.93-9.68-5.14-13.53-9.17-1.03-1.07-1.3-1.03-1.8,.3-.82,2.16-.99,4.37-.47,6.63,.6,2.61,2.24,4.53,4.18,6.24,.25,.22,.7,.39,.57,.79-.16,.47-.66,.37-1.05,.37-.92,.01-1.77-.29-2.62-.59-.36-.13-.77-.51-1.11-.22-.39,.33-.13,.84-.04,1.27,.84,4.13,3.21,7.01,7.1,8.65,.39,.16,.91,.15,1.11,.8-1.38,.87-2.93,.58-4.62,.5,1.91,3.91,4.57,6.59,8.8,7.43,.45,.09,1.16-.15,1.26,.5,.08,.53-.55,.78-.93,1.09-2.08,1.67-4.52,2.5-7.08,3.1-2.24,.53-4.54,.58-7.26,.97Z"/></g></svg>