<?xml version="1.0" encoding="UTF-8"?><svg id="Layer_2" xmlns="http://www.w3.org/2000/svg" viewBox="0 0 91.32 91.26"><g id="Layer_1-2"><g><path d="M91.32,45.92c-.15,24.19-19.38,45.35-45.61,45.34C19.08,91.25-.2,69.75,0,45.26,.2,20.85,19.57-.03,45.69,0c26.59,.03,45.81,21.6,45.63,45.92ZM45.69,17.14c-1,0-2.01-.1-3,.01-19.88,2.31-31.32,22.85-22.81,40.94,.38,.81,.49,1.57,.36,2.45-.58,4.05-1.04,8.13-1.66,12.17-.2,1.3,.18,1.43,1.3,1.23,3.93-.72,7.88-1.35,11.82-2.07,1.17-.21,2.22-.17,3.34,.33,2.91,1.3,6.02,1.85,9.19,1.98,18.06,.73,31.39-14.25,29.92-31.04-1.3-14.79-13.52-26.07-28.45-26Z"/><path d="M45.66,21.39c12.33,.04,22.81,9.35,24.05,21.6,.94,9.27-2.47,16.86-9.98,22.26-7.53,5.41-15.78,6.1-24.3,2.29-1.09-.49-2.1-.49-3.19-.29-2.26,.41-4.53,.76-6.79,1.2-1.19,.23-1.55-.15-1.37-1.33,.33-2.17,.49-4.37,.88-6.53,.24-1.31,0-2.41-.61-3.57-8.15-15.32,1.69-33.3,18.46-35.46,.94-.12,1.89-.12,2.84-.17Zm7.18,38.47c2.6,.04,5.66-2.33,6.2-4.42,.2-.75,0-1.42-.59-1.89-1.14-.89-2.32-1.73-3.5-2.57-.62-.44-1.22-.24-1.81,.14-.9,.57-1.65,1.31-2.33,2.1-.89,1.02-1.8,1.11-2.88,.36-1.23-.86-2.54-1.61-3.69-2.56-2.49-2.06-4.56-4.48-5.83-7.5-.29-.7-.58-1.43,.18-2.05,1.77-1.43,1.88-3.15,.94-5.09-.35-.72-.57-1.49-.87-2.23-.87-2.18-2.02-2.47-3.89-1-2.77,2.19-3.66,5.13-2.45,8.57,1.88,5.36,4.97,9.89,9.57,13.3,3.42,2.53,7.2,4.28,10.96,4.83Z"/></g></g></svg>