<svg xmlns="http://www.w3.org/2000/svg" viewBox="0 0 14.31 18.96"><defs><style>.cls-1{fill:#fff;fill-rule:evenodd;}</style></defs><title>WritingIcon</title><g id="Layer_2" data-name="Layer 2"><g id="Layer_1-2" data-name="Layer 1"><path class="cls-1" d="M.43,18.1l2.84-4.27c.26-.39-.4-.81.18-1.54A1.13,1.13,0,0,1,5.33,13.5a1.14,1.14,0,0,1-.65.55c-.29.11-.52-.06-.72.24L1.12,18.56c-.23.33.09.58.35.24a5.36,5.36,0,0,1,.61-.73A9.1,9.1,0,0,1,3.38,17a17.51,17.51,0,0,1,2.73-1.51c.84-.38.64-.14,1-1.15L8.87,9.83c.06-.19,0-.23-.15-.34L5.87,7.59c-.29-.2-.32-.06-.68.29l-.63.61L2,11c-.22.2-.42.41-.64.62s-.22.42-.2.76A11.27,11.27,0,0,1,.52,17c-.28.69-.69,1-.44,1.21s.25,0,.35-.12"/><path class="cls-1" d="M9.62,0c-.23,0-.33.3-.45.52L6.68,5.36C5.81,7,5.73,6.81,6.38,7.24L9.22,9.13c.21.08.38-.21.55-.42,1.31-1.59,2.67-3.17,4-4.75.13-.16.37-.4.49-.58s-.1-.38-.37-.56C13.26,2.41,9.76,0,9.62,0"/></g></g></svg>