<svg xmlns="http://www.w3.org/2000/svg" viewBox="0 0 23.84 23.84"><defs><style>.cls-1{fill:#fff;}.cls-2{fill:none;}</style></defs><title>AppliedMathematics2</title><g id="Layer_2" data-name="Layer 2"><g id="Layer_1-2" data-name="Layer 1"><path class="cls-1" d="M21.94,17.19a1,1,0,0,0-.76-.07l-4-7A.92.92,0,0,0,17.35,9a.93.93,0,0,0-1-.44L12.41,1.64a1,1,0,0,0,.18-.52A.94.94,0,1,0,11,1.81L7,8.62a.92.92,0,0,0-.89,1.52L2.17,17a.89.89,0,0,0-.48.11.94.94,0,0,0-.34,1.29A.92.92,0,0,0,3,18.19h7.72a.92.92,0,0,0,.9.75.93.93,0,0,0,.9-.74h8a.93.93,0,0,0,1.72.26A1,1,0,0,0,21.94,17.19Zm-1.2.25-4-2.31a5.73,5.73,0,0,0,.52-4.39L21,17.23A.88.88,0,0,0,20.74,17.44Zm-5-7.6-3.92,2.29V6.7A5.6,5.6,0,0,1,16,8.75.92.92,0,0,0,15.69,9.84ZM11.77,6.45V2a.87.87,0,0,0,.47-.2l3.64,6.44A5.86,5.86,0,0,0,11.77,6.45Zm-.25,5.65L7.69,9.88a.93.93,0,0,0-.36-1.15,5.62,5.62,0,0,1,4.19-2ZM6.4,10.35a.94.94,0,0,0,1.17-.26l3.86,2.24L6.77,15a5.55,5.55,0,0,1-.72-2.75A5.7,5.7,0,0,1,6.4,10.35Zm5.12,2.21V17.1a.89.89,0,0,0-.77.71A5.6,5.6,0,0,1,6.9,15.25Zm.25,4.54V12.53l4.64,2.69a5.55,5.55,0,0,1-3.86,2.59A.92.92,0,0,0,11.77,17.1Zm.15-4.77,3.89-2.27a.91.91,0,0,0,1.08.28A5.52,5.52,0,0,1,16.54,15ZM11.52,2V6.45A5.82,5.82,0,0,0,7.68,8L11.23,2A1,1,0,0,0,11.52,2ZM6,11a5.77,5.77,0,0,0,.6,4.21L2.89,17.31A1,1,0,0,0,2.44,17ZM3,17.52l3.68-2.14A5.83,5.83,0,0,0,10.19,18H3.08A.89.89,0,0,0,3,17.52ZM13.08,18a5.87,5.87,0,0,0,3.55-2.62l4,2.32a.89.89,0,0,0-.08.31Z"/><circle class="cls-2" cx="11.92" cy="11.92" r="11.92"/></g></g></svg>