<svg xmlns="http://www.w3.org/2000/svg" viewBox="0 0 24.47 24.53"><defs><style>.cls-1{fill:#ececec;fill-rule:evenodd;}</style></defs><title>Language_Icon</title><g id="Layer_2" data-name="Layer 2"><g id="Layer_1-2" data-name="Layer 1"><path class="cls-1" d="M.16,14.06A12.22,12.22,0,1,0,10.42.16,12.2,12.2,0,0,0,.16,14.06M2.79,7.25C3.6,5.32,6.61,2.35,9.23,2,8.68,2.83,8,3.4,7.35,4.49c-.54.87-1,2.15-1.41,2.8Zm15.71,0c-1-3.32-2.42-3.92-3.18-5.31,1.7.84,2.25.81,3.77,2A9.38,9.38,0,0,1,21.7,7.28Zm-10.85,0c.66-1.83,2.9-5.21,4.68-5.12s4,3.21,4.59,5.2ZM22.38,8.79a10.3,10.3,0,0,1-.18,7.47l-3.32,0c.09-1.13.4-2.21.43-3.61S19,10,19.07,8.75ZM2.29,16.24a10.4,10.4,0,0,1-.18-7.48l3.4,0c.09,1.18-.26,2.58-.23,3.87s.46,2.65.42,3.66ZM17.41,8.78a13.22,13.22,0,0,1-.16,7.46l-9.85,0A14.12,14.12,0,0,1,6.9,10C7.05,8.89,7,8.77,8,8.73,10.62,8.62,14.8,8.61,17.41,8.78Zm-14.32,9,3.06-.06c.69.87.88,2.08,2.4,3.86a12.83,12.83,0,0,1,1,1C5.37,22,3.21,17.92,3.09,17.8ZM8,17.75h8.73c-.42,1.6-2.91,4.67-4.34,4.68S8.66,19.79,8,17.75Zm7.47,4.72c.62-1.23,1.79-1.52,2.9-4.71l3,0C20.73,19.58,17.84,21.92,15.43,22.47Z"/></g></g></svg>