<svg xmlns="http://www.w3.org/2000/svg" viewBox="0 0 18.46 14.71"><defs><style>.cls-1{fill:#fff;}</style></defs><title>UXUIPrototyping_Icon</title><g id="Layer_2" data-name="Layer 2"><g id="Layer_1-2" data-name="Layer 1"><path class="cls-1" d="M13,4.05a2.8,2.8,0,0,1-.25-.22.3.3,0,1,1,.41-.43l.81.74a.31.31,0,0,1,0,.5c-.26.23-.53.45-.8.66a.3.3,0,0,1-.44,0,.31.31,0,0,1,.06-.44l.11-.1,0,0a6.37,6.37,0,0,0-1.51.06A2.28,2.28,0,0,0,9.53,7,2.87,2.87,0,0,1,7.08,9.86a1.05,1.05,0,0,0-.87.5,1.11,1.11,0,0,1-1.37.36A1.23,1.23,0,0,1,4.1,9.5a1.2,1.2,0,0,1,1-1.07,1.17,1.17,0,0,1,1.34.68.29.29,0,0,0,.32.19c.49,0,.49,0,.49-.5V1.51a1,1,0,0,0,0-.35A.67.67,0,0,0,6.5.62c-1.72,0-3.45,0-5.18,0a.69.69,0,0,0-.7.77V11.81c0,.27,0,.27.27.27H6.94c.26,0,.26,0,.26-.26s0-.72,0-1.08.12-.37.29-.37.3.14.3.37c0,.88,0,1.77,0,2.65A1.29,1.29,0,0,1,6.51,14.7c-1.73,0-3.46,0-5.2,0A1.33,1.33,0,0,1,0,13.27V1.45A1.41,1.41,0,0,1,.31.5a1.23,1.23,0,0,1,1-.49H6.51a1.36,1.36,0,0,1,1.3,1.44c0,.71,0,1.43,0,2.14s0,1.15,0,1.73,0,1.37,0,2.06c0,.45,0,.9,0,1.35,0,.06,0,.15,0,.19S8,8.87,8,8.82A2.25,2.25,0,0,0,8.92,7a2.89,2.89,0,0,1,1.59-2.63.25.25,0,0,0,.15-.27V1.42A1.34,1.34,0,0,1,12.09,0h5a1.32,1.32,0,0,1,1.38,1.38v12a1.33,1.33,0,0,1-1.38,1.38h-5a1.34,1.34,0,0,1-1.39-1.39V5.88a.91.91,0,0,1,0-.17A.29.29,0,0,1,11,5.44a.27.27,0,0,1,.3.26,1,1,0,0,1,0,.24V11.8c0,.28,0,.28.27.28h6c.26,0,.26,0,.26-.25,0-3.47,0-6.95,0-10.42A.69.69,0,0,0,17,.62H12.1c-.56,0-.82.25-.82.82V3.91c0,.16,0,.22.22.21.4,0,.82,0,1.23,0A.33.33,0,0,0,13,4.05Zm-9,8.65H.84c-.16,0-.24,0-.23.22s0,.29,0,.43a.7.7,0,0,0,.73.75H6.47a.71.71,0,0,0,.73-.72c0-.14,0-.29,0-.43s-.06-.25-.25-.25Zm10.63,0H11.48c-.15,0-.21.06-.2.21s0,.33,0,.5a.69.69,0,0,0,.69.69h5.12a.68.68,0,0,0,.75-.75,2.41,2.41,0,0,0,0-.38c0-.26,0-.26-.25-.26ZM4.71,9.59a.6.6,0,0,0,.59.62.62.62,0,0,0,.6-.61A.59.59,0,0,0,5.3,9,.57.57,0,0,0,4.71,9.59Z"/><path class="cls-1" d="M3.92,13.1a2.17,2.17,0,0,1,.36,0,.28.28,0,0,1,.28.28.26.26,0,0,1-.25.3,3.14,3.14,0,0,1-.81,0,.28.28,0,0,1-.24-.3.27.27,0,0,1,.26-.29,2.67,2.67,0,0,1,.4,0Z"/><path class="cls-1" d="M14.57,13.1h.34a.3.3,0,0,1,.31.29.3.3,0,0,1-.27.31,3.39,3.39,0,0,1-.78,0,.31.31,0,0,1-.27-.31.34.34,0,0,1,.31-.29Z"/></g></g></svg>