<svg xmlns="http://www.w3.org/2000/svg" viewBox="0 0 21.19 18.77"><defs><style>.cls-1{fill:#fff;}</style></defs><title>AppliedMathematics_Icon</title><g id="Layer_2" data-name="Layer 2"><g id="Layer_1-2" data-name="Layer 1"><path class="cls-1" d="M20.72,17a1,1,0,0,0-.76-.08l-4-7a.92.92,0,0,0-.87-1.53L11.19,1.46a.93.93,0,0,0,.18-.52.94.94,0,1,0-1.57.69l-4,6.81a.93.93,0,0,0-1,.43A.92.92,0,0,0,4.93,10L1,16.77a.9.9,0,0,0-.48.12A.94.94,0,1,0,1.81,18l7.72,0a.92.92,0,0,0,1.8,0l8,0a.94.94,0,1,0,1.38-1Zm-1.2.24-4-2.31a5.77,5.77,0,0,0,.74-2.83,5.64,5.64,0,0,0-.22-1.55l3.68,6.48A.88.88,0,0,0,19.52,17.26Zm-5-7.59L10.55,12V6.52a5.58,5.58,0,0,1,4.21,2.06A.91.91,0,0,0,14.47,9.67Zm-3.92-3.4V1.85A.94.94,0,0,0,11,1.66l3.64,6.43A5.86,5.86,0,0,0,10.55,6.27Zm-.25,5.65L6.47,9.7a.93.93,0,0,0-.36-1.15,5.62,5.62,0,0,1,4.19-2ZM5.18,10.17a.93.93,0,0,0,1.17-.26l3.86,2.24L5.55,14.86a5.54,5.54,0,0,1-.72-2.74A5.71,5.71,0,0,1,5.18,10.17Zm5.12,2.21v4.54a.9.9,0,0,0-.77.72,5.67,5.67,0,0,1-3.85-2.56Zm.25,4.54V12.35L15.19,15a5.6,5.6,0,0,1-3.86,2.6A.93.93,0,0,0,10.55,16.92Zm.15-4.77,3.89-2.27a.93.93,0,0,0,1.08.29A5.49,5.49,0,0,1,16,12.12a5.56,5.56,0,0,1-.71,2.71Zm-.4-10.3V6.27A5.87,5.87,0,0,0,6.46,7.83L10,1.77A.74.74,0,0,0,10.3,1.85ZM4.74,10.78a5.92,5.92,0,0,0-.16,1.34A5.83,5.83,0,0,0,5.34,15L1.67,17.13a.94.94,0,0,0-.45-.32ZM1.79,17.34,5.47,15.2A5.85,5.85,0,0,0,9,17.78l-7.11,0A.89.89,0,0,0,1.79,17.34Zm10.07.44a5.89,5.89,0,0,0,3.55-2.61l4,2.31a.89.89,0,0,0-.08.32Z"/></g></g></svg>