<?xml version="1.0" encoding="UTF-8"?><svg id="Layer_2" xmlns="http://www.w3.org/2000/svg" viewBox="0 0 161.55 161.75"><defs><style>.cls-1{fill:#fff;}</style></defs><g id="Layer_1-2"><path class="cls-1" d="m161.48,132.21c-.28,4.01.55,8.99-.42,13.89-1.75,8.79-9.93,15.51-18.87,15.55-7.56.03-15.13.02-22.69,0-4.33-.01-7.13-2.74-7.1-6.83.03-3.94,2.89-6.65,7.06-6.66,6.81,0,13.61.01,20.42,0,5.52-.01,8.08-2.57,8.09-8.09.02-6.81,0-13.61,0-20.42,0-4.22,2.91-7.29,6.8-7.23,3.87.06,6.68,3.02,6.7,7.12.02,3.92,0,7.84,0,12.68Z"/><path class="cls-1" d="m29.44,161.66c-3.89-.28-8.81.61-13.63-.4C6.37,159.26.06,151.4.03,141.76c-.03-7.36-.01-14.72,0-22.08,0-4.34,2.67-7.08,6.83-7.05,4.02.02,6.65,2.79,6.66,7.03.01,6.74,0,13.48,0,20.22.01,5.81,2.48,8.27,8.33,8.28,6.88.01,13.76-.02,20.63.01,3.01.01,5.54,1.92,6.35,4.66.88,2.95-.14,5.98-2.57,7.7-1.17.83-2.45,1.15-3.88,1.14-3.99-.03-7.98-.01-12.95-.01Z"/><path class="cls-1" d="m132.1.07c4.02.3,9.07-.59,14.04.46,8.68,1.82,15.3,9.97,15.34,18.85.04,7.63.02,15.27,0,22.9-.01,4.09-2.67,6.8-6.64,6.82-4.09.03-6.84-2.68-6.85-6.83-.03-6.81,0-13.62,0-20.43-.01-5.8-2.49-8.26-8.33-8.27-6.74-.01-13.48,0-20.22,0-4.22,0-6.97-2.68-6.98-6.72,0-4.04,2.74-6.75,6.91-6.77,3.92-.02,7.84,0,12.74,0Z"/><path class="cls-1" d="m30.46.07c3.99,0,7.98-.03,11.96,0,3.88.03,6.61,2.8,6.63,6.63.01,3.98-2.68,6.81-6.65,6.84-6.88.05-13.75,0-20.63.02-5.83.01-8.25,2.46-8.25,8.33,0,6.88.02,13.75-.02,20.63-.02,3.01-1.94,5.55-4.66,6.37-2.9.87-5.91-.17-7.68-2.63-.79-1.1-1.15-2.31-1.15-3.67.02-8.05-.08-16.09.04-24.13C.2,9.09,9.11.27,18.5.09c3.99-.08,7.98-.01,11.96-.01,0,0,0,0,0,0Z"/><path class="cls-1" d="m25.87,113.96c0-1.38.31-3.26.88-5.3l17.35-59.27c1.85-6.46,4.97-9.45,9.99-9.45s8.28,2.87,10.17,9.39l17.43,59.32c.62,2.15.84,3.65.84,5.3,0,4.58-2.77,7.84-6.65,7.84s-5.72-2.15-6.91-7.35l-3.35-12.59h-22.94l-3.35,12.43c-1.23,5.3-3.21,7.51-6.74,7.51-4.14,0-6.74-3.04-6.74-7.84Zm36.67-25.02l-8.41-32.64h-.31l-8.23,32.64h16.95Z"/><path class="cls-1" d="m86.68,112.83v-63.52c0-5.47,2.47-8.67,6.65-8.67h19.37c14.62,0,22.98,9.67,22.98,25.41,0,9.94-3.92,18.45-10.92,22.2l9.16,19.88c1.1,2.38,1.41,3.81,1.41,5.74,0,4.42-2.82,7.62-6.69,7.62-3.17,0-4.62-1.44-6.78-6.3l-10.57-24.03h-11.31v21.65c0,5.47-2.47,8.67-6.65,8.67s-6.65-3.2-6.65-8.67Zm24.74-33.75c6.69,0,10.61-4.81,10.61-12.7s-4.14-12.7-10.74-12.7h-11.31v25.41h11.45Z"/></g></svg>