<?xml version="1.0" encoding="UTF-8"?><svg id="Layer_2" xmlns="http://www.w3.org/2000/svg" viewBox="0 0 91.74 91.76"><g id="Layer_1-2"><g><path d="M0,49.88v-7.87c.26-1.77,.46-3.54,.82-5.29C4.79,17.23,21.4,1.62,42.68,.11c5.35-.38,10.64,.18,15.83,1.68,22.96,6.61,37.23,29.81,32.23,53.28-3.81,17.87-14.94,29.46-32.32,35.04-2.81,.9-5.74,1.29-8.67,1.65h-7.87c-1.41-.21-2.83-.39-4.23-.64C20.36,88.07,6.11,75.01,1.5,58.04c-.73-2.68-1.16-5.41-1.5-8.16ZM45.9,25.24c-7.78,0-15.57,0-23.35,0-3.76,0-6.16,2.25-6.17,6.03-.05,9.78-.05,19.56,0,29.34,.02,3.78,2.41,6.03,6.17,6.03,15.51,0,31.01,0,46.52,0,3.76,0,6.15-2.25,6.17-6.03,.05-9.78,.05-19.56,0-29.34-.02-3.78-2.41-6.03-6.17-6.03-7.72,0-15.45,0-23.17,0Z"/><path d="M45.77,62.12c-7.66,0-15.32,0-22.99,0-1.59,0-1.89-.29-1.9-1.86,0-8.97,0-17.95,0-26.92,0-.33-.18-.8,.23-.96,.32-.12,.57,.25,.82,.45,7.31,5.8,14.61,11.61,21.92,17.41,1.52,1.21,2.38,1.21,3.9,0,7.31-5.8,14.61-11.61,21.92-17.41,.26-.21,.52-.64,.9-.42,.3,.17,.16,.6,.16,.92,0,8.97,0,17.95,0,26.92,0,1.57-.31,1.86-1.9,1.86-7.69,0-15.38,0-23.07,0Z"/><path d="M25.74,29.85h40.08c-.06,.45-.39,.6-.63,.79-6.16,4.9-12.34,9.78-18.48,14.7-.7,.56-1.14,.53-1.82-.02-6.15-4.92-12.32-9.8-18.48-14.7-.23-.18-.5-.34-.67-.78Z"/></g></g></svg>