<svg xmlns="http://www.w3.org/2000/svg" viewBox="0 0 15.92 16.38"><defs><style>.cls-1{fill:#fff;}</style></defs><title>Illustration</title><g id="Layer_2" data-name="Layer 2"><g id="Layer_1-2" data-name="Layer 1"><path class="cls-1" d="M8,13.92H2.1a2,2,0,0,1-2-1.37A1.58,1.58,0,0,1,0,11.94C0,9.61,0,7.28,0,5A2.08,2.08,0,0,1,1.79,3l.39,0h8.3s.07,0,.08,0,0,.06,0,.08L9.47,4.24a.25.25,0,0,1-.21.08H2.16a.73.73,0,0,0-.8.8v6.69a.73.73,0,0,0,.55.74.81.81,0,0,0,.22,0H13.79a.7.7,0,0,0,.76-.76q0-3.35,0-6.69A.72.72,0,0,0,14,4.34c-.07,0-.1,0,0-.1l1-.88a.09.09,0,0,1,.13,0,2,2,0,0,1,.86,1.55c0,.71,0,1.42,0,2.13,0,1.59,0,3.17,0,4.76a2.11,2.11,0,0,1-1.8,2.11H8Z"/><path class="cls-1" d="M8,16.38H.72A.67.67,0,0,1,0,15.79.68.68,0,0,1,.63,15H15.21a.68.68,0,1,1,0,1.36Z"/><path class="cls-1" d="M9.55,7h0a1.06,1.06,0,0,1-.72-.73A.47.47,0,0,1,8.92,6l1.5-1.65,2.25-2.49.17-.18c.05-.06.09-.06.14,0l.33.33.88.88c.07.06.08.1,0,.17L11.48,5.46,10,6.85A.49.49,0,0,1,9.55,7Z"/><path class="cls-1" d="M6.15,9.88c-.31,0-.31,0-.23-.23.13-.43.18-.88.28-1.31a2.77,2.77,0,0,1,.46-1.12,1.39,1.39,0,0,1,1.46-.51A1.35,1.35,0,0,1,9.2,7.79a1.28,1.28,0,0,1-.34,1.08,2.38,2.38,0,0,1-1.24.77A6.71,6.71,0,0,1,6.15,9.88Z"/><path class="cls-1" d="M14.43,0A.94.94,0,0,1,15,.21a4.27,4.27,0,0,1,.7.71,1,1,0,0,1,.18.39.33.33,0,0,1-.1.31c-.4.36-.8.71-1.19,1.08a.11.11,0,0,1-.18,0c-.41-.41-.81-.82-1.23-1.23-.05-.05-.05-.09,0-.15L14.23.1A.24.24,0,0,1,14.43,0Z"/></g></g></svg>