<svg width="12" height="24" viewBox="0 0 12 24" fill="none" xmlns="http://www.w3.org/2000/svg">
<path d="M0.658267 10.4965C-0.114481 11.5269 -0.0500855 12.2996 0.0787058 12.5572C0.980218 13.5231 1.75302 10.7541 3.49171 9.85258C5.23039 8.95104 3.81368 11.7845 2.97654 13.7807C2.1394 15.777 1.17346 18.4172 0.787086 19.7051C0.400712 20.993 0.0787058 23.3757 2.20379 23.6977C4.32888 24.0196 6.19632 23.2469 8.19259 21.7014C10.1889 20.1559 11.026 18.3528 10.5752 17.9664C10.1245 17.5801 9.67369 17.9664 8.96534 18.8036C8.25699 19.6407 6.96907 21.0574 6.32512 20.6067C5.68116 20.1559 7.16226 17.3869 7.87061 15.8414C8.57896 14.2959 9.99567 10.3034 10.0601 9.20863C10.1245 8.1139 9.73809 6.31082 6.77589 6.76159C3.81368 7.21236 1.6242 9.20863 0.658267 10.4965Z" fill="white"/>
<circle cx="9.22214" cy="2.76901" r="2.76901" fill="white"/>
</svg>
