<svg width="32" height="39" viewBox="0 0 32 39" fill="none" xmlns="http://www.w3.org/2000/svg">
<path d="M31.8579 3.59546C32.1735 1.722 31.9582 0.447105 31.2637 0.0997413C30.6138 -0.229106 29.6259 0.258697 28.4041 1.51139C28.0922 1.82909 27.6651 2.17645 27.2455 2.51645C27.1043 2.63101 26.9595 2.74925 26.8221 2.86381C23.0527 5.99377 18.0652 8.93888 12.3944 11.3778C11.1131 11.9321 9.86904 12.4458 8.36128 13.0518L8.29815 13.0776C4.64386 14.5409 -0.358495 16.5474 0.0203022 22.1311C0.213415 25.006 3.32921 27.2416 6.81638 27.0125C9.28971 26.8499 9.46425 26.3474 9.84676 25.2462C9.92104 25.0282 10.0102 24.7768 10.1253 24.4997C10.2701 24.1597 10.4075 23.8419 10.5412 23.5205C10.6823 23.1879 10.8235 22.8591 10.972 22.5042C11.0463 22.3306 11.1354 22.1422 11.2208 21.9463C11.4622 21.4216 11.7333 20.8266 11.8522 20.3167L11.9004 20.1097L11.7148 20.2133C11.5031 20.3315 11.2803 20.5273 10.9943 20.7712C10.2813 21.3845 9.20429 22.312 7.18775 23.0475C4.48046 24.0378 2.44535 23.8937 1.74717 22.6594C1.023 21.3883 1.89944 19.3447 3.82685 17.8038C5.81368 16.2149 7.46256 15.6384 9.37512 14.9659C9.97303 14.7516 10.5969 14.5336 11.258 14.2749C14.5483 12.9705 22.6739 9.56344 27.0152 6.11569C27.1192 6.03069 27.2157 5.93454 27.3123 5.84217C27.5166 5.64272 27.7097 5.45052 27.9808 5.36552C27.7802 6.96569 25.1546 10.3467 24.4416 11.1893C23.3498 12.4753 20.9322 15.1026 19.6064 15.8306L19.1496 16.0782L19.6658 16.0005C20.0223 15.9452 20.6833 15.694 21.2701 15.4722C21.4966 15.3834 21.7046 15.3021 21.8717 15.2431C22.7036 14.9548 23.4129 14.7109 24.2114 14.4375C26.6141 13.6282 27.5537 13.5949 27.9176 13.7169C28.5044 14.9806 24.9615 18.1957 23.8994 18.9937C21.9534 20.2612 20.7056 21.0446 18.8859 22.0572C18.5702 22.2198 18.2472 22.4192 17.9315 22.6151C17.6455 22.7925 17.3744 22.9625 17.1516 23.0697L16.8694 23.2101L17.185 23.2434C18.0652 23.3394 18.6074 23.6683 18.8005 24.2152C19.1087 25.1021 18.418 26.4139 17.6121 27.2009C16.8471 27.9474 15.7441 28.3909 14.578 28.8602C12.71 29.6066 10.5969 30.4528 9.02232 32.7771C8.06418 34.1888 7.45142 36.6165 8.36871 38.612L8.54325 39V38.5751C8.53211 34.5029 10.5709 31.8571 14.7711 30.4935C19.9703 28.8084 22.1948 26.0444 21.207 22.5006L24.5679 20.4571L28.029 17.9923C29.3511 16.9465 31.4828 14.6222 31.5868 12.8337C31.6202 12.3016 31.4642 11.8581 31.1226 11.5144C30.417 10.8087 29.4254 11.0637 28.5527 11.2891L28.4487 11.315C28.5675 11.0895 28.7569 10.7903 28.9872 10.4281C29.8636 9.05344 31.3305 6.74751 31.8579 3.59546" fill="white"/>
</svg>
