<?xml version="1.0" encoding="UTF-8"?><svg id="Layer_2" xmlns="http://www.w3.org/2000/svg" viewBox="0 0 262.88 262.88"><defs><style>.cls-1{fill:none;}.cls-2{fill:#141823;}</style></defs><g id="Layer_1-2"><path class="cls-2" d="m188,178.1h-4.54v14.26h3.41v-4.58h1.13c2.41,0,4.98-1.3,4.98-4.96,0-3.09-1.72-4.72-4.98-4.72Zm-.15,6.5h-.98v-3.33h.98c1.29,0,1.77.42,1.77,1.54,0,1.23-.55,1.78-1.77,1.78Z"/><path class="cls-2" d="m222.69,183.25c0,.64.04,1.33.1,2.01l-2.83-7.16h-3.63v11.35l-6.59-13.18-6.86,13.71-1.59-3.25c1.26-.81,1.98-2.21,1.98-4.04,0-3-1.7-4.59-4.91-4.59h-4.55v14.26h3.41v-4.86h.78l2.24,4.86h1.45l-1.02,2.05h18.15l-1.02-2.05h2.08v-5.17c0-.65-.04-1.33-.1-2.01l2.84,7.18h3.63v-14.26h-3.54v5.15Zm-24.55,1.07h-.92v-3.05h.92c1.47,0,1.77.54,1.77,1.41,0,1.1-.58,1.64-1.77,1.64Z"/><polygon class="cls-2" points="230.65 189.05 230.65 186.69 235.01 186.69 235.01 183.38 230.65 183.38 230.65 181.42 235.78 181.42 235.78 178.1 227.24 178.1 227.24 192.37 235.96 192.37 235.96 189.05 230.65 189.05"/><path class="cls-2" d="m209.16,246.45c-2.87,0-5.74,0-8.61,0-1.56,0-2.64-.93-2.67-2.28-.03-1.38,1.07-2.45,2.63-2.45,5.88-.02,11.75-.02,17.63,0,1.47,0,2.47,1.03,2.47,2.42,0,1.28-1.07,2.3-2.51,2.31-2.98.02-5.96,0-8.94,0Z"/><path class="cls-2" d="m255.54,154.16v104.27h-2.34v-104.27h-87.92v108.72h97.6v-108.72h-7.34Zm-10.65,60.85h-10.72v-15.69h10.72v15.69Zm-64.89-40.77h59.33v22.34h-59.33v-22.34Zm48.93,25.08v22.34h-10.83c-.32-1.86-.7-3.7-1.19-5.52-.71-2.65-2.22-4.19-4.57-4.62-1.79-.33-3.58-.28-5.38-.13-3.06.25-4.82,2.15-5.61,5.53-.37,1.57-.67,3.15-.94,4.74h-11.1v-22.34h39.63Zm-54.29,0h10.72v15.69h-10.72v-15.69Zm24.67,33.59c0,1.2.12,2.38.28,3.57.26,2.04,1.29,3.17,2.98,3.67,1.81.54,3.64.77,5.49.86,2.72.13,5.42-.08,8.06-.95,1.21-.4,2.24-1.11,2.57-2.67.19-.91.33-1.82.39-2.76.04-.58.05-1.15.06-1.73h25.75v25.52h-25.7c.27-.19.51-.42.69-.73.62-1.07.31-2.41-.71-3.15-.26-.19-.68-.23-.66-.73.02-.57-.35-.9-.78-1.16-1.73-1.05-3.57-1.8-5.54-2.17-1.73-.32-1.73-.31-1.68-2.11q.04-1.39-1.29-1.38c-.16,0-.32,0-.48,0-.5-.02-.74.2-.71.74.03.58,0,1.16.03,1.74.03.55-.15.78-.71.85-2.35.3-4.55,1.06-6.58,2.33-.36.22-.73.46-.74.91-.02.54-.33.74-.7,1-1.35.92-1.34,2.94-.03,3.86h-24.63v-25.52h24.67Zm2.98,22.04c-.45-.5-.31-.7.18-.95,1.52-.79,3.11-1.38,4.8-1.59.42-.05,1.01-.27,1.13.41.11.59.45,1.24-.39,1.72-.8.46-1.14,1.3-1.02,2.27.09.72.42,1.26.97,1.63h-6.07c.16-.11.31-.24.44-.39.77-.89.8-2.16-.04-3.09Zm8.13-.45c-.87-.5-.4-1.17-.33-1.74.07-.59.63-.41,1-.37,1.67.19,3.24.75,4.74,1.52.59.3.91.59.26,1.17-.15.14-.25.36-.33.56-.4,1.03-.02,2.19.84,2.79h-6.04c.3-.21.57-.47.73-.81.53-1.1.2-2.51-.87-3.13Z"/><polygon class="cls-2" points="224.82 237.19 224.82 235.22 220.06 235.22 220.06 237.19 222.04 237.19 222.04 242.46 221.15 242.46 221.15 246.37 223.73 246.37 223.73 242.46 222.84 242.46 222.84 237.19 224.82 237.19"/><polygon class="cls-2" points="198.3 237.19 198.3 235.22 193.54 235.22 193.54 237.19 195.52 237.19 195.52 242.46 194.63 242.46 194.63 246.37 197.21 246.37 197.21 242.46 196.32 242.46 196.32 237.19 198.3 237.19"/><circle class="cls-2" cx="239.53" cy="209.56" r="4.04"/><circle class="cls-2" cx="239.53" cy="202.53" r="2.17"/><circle class="cls-2" cx="180.01" cy="209.56" r="4.04"/><circle class="cls-2" cx="180.01" cy="202.53" r="2.17"/><rect class="cls-2" x="63.24" y="189.81" width="32.85" height="5.17"/><rect class="cls-2" x="63.24" y="204.16" width="32.85" height="5.17"/><rect class="cls-2" x="63.24" y="211.34" width="32.85" height="5.17"/><rect class="cls-2" x="63.24" y="218.52" width="32.85" height="5.17"/><rect class="cls-2" x="63.24" y="196.99" width="32.85" height="5.17"/><rect class="cls-2" x="63.24" y="168.28" width="32.85" height="5.17"/><rect class="cls-2" x="63.24" y="175.46" width="32.85" height="5.17"/><rect class="cls-2" x="63.24" y="182.63" width="32.85" height="5.17"/><path class="cls-2" d="m187.05,77.26c0-12.7-10.29-22.99-22.99-22.99-3.19,0-6.23.65-9,1.83-5.24-7.53-13.96-12.47-23.83-12.47s-17.74,4.47-23.05,11.39c-1.45-.9-3.01-1.64-4.68-2.15-.72-10.57-9.5-18.93-20.26-18.93-8.22,0-15.28,4.89-18.48,11.9-3.88-7.4-11.63-12.46-20.57-12.46-12.82,0-23.22,10.39-23.22,23.22,0,1.67.18,3.29.51,4.85-9.9.22-17.86,8.3-17.86,18.25,0,2.62.56,5.1,1.55,7.35-3.2,3.34-5.18,7.85-5.18,12.84,0,10.25,8.31,18.57,18.57,18.57s18.25-8.02,18.54-18.02l8.21-.66,18.05,2.3s11.65,7.81,15.62,11.39c3.97,3.58,12.8,17.28,11.26,24.83-1.54,7.55-2.3,24.45-2.3,24.45-.29.59-.71,3.17-1.19,3.75h11.41v57.14h8.94v6.95h10.17v6.95h10.17v20.86H60.54v-104.27h-7.34v108.72h110.5v-96.3h-6.75v-40.02c.31.01.62.04.93.04,10.68,0,19.33-8.65,19.33-19.33,0-3.5-.94-6.77-2.57-9.6,7.37-3.83,12.4-11.53,12.4-20.41Zm-146.89,2.2c.83.14,1.66.25,2.52.3.32,3.83,1.7,7.35,3.84,10.29l-2.29-1.25-5.24-2.68c.76-2,1.18-4.16,1.18-6.42,0-.08-.01-.16-.01-.25Zm-3.06,19.39c-.04-.64-.11-1.28-.21-1.9l6.06,1.9h-5.85Zm8.57-.6l-9.23-3.32c-.28-1-.64-1.97-1.08-2.9.82-.89,1.54-1.87,2.17-2.91l5.68,1.8,16.35,9.03-13.88-1.7Zm107.57,27.77v25.87h-36.63v-29.11h29.77c2.02,1.5,4.33,2.62,6.85,3.25Zm-27.04-17.34c-6.55.74-11.72,1.24-11.72,1.24,2.64-2.37,5.87-4.46,9.3-6.3.46,1.86,1.3,3.57,2.42,5.06Zm-3.64-11.34l-12.1,7.83,4.02-9.31c2.41,1.34,7.01,1.78,8.09,1.47Zm-25.07-4.72c3.77,0,7.29-1.05,10.32-2.84.57.81,1.55,3.16,4.63,4.96-.83,3.4-4.27,9.86-6.56,10.67-4.34,1.53-14.05-12.01-14.05-12.01l-1.64-2.15c2.27.87,4.73,1.36,7.3,1.36Zm-15.6-7.3c1.52,1.81,3.35,3.35,5.4,4.55,2.38,3.25,3.93,6,3.93,6l-2.21-.85c-3.72-1.57-6.82-4.31-8.78-6.36.65-1.06,1.21-2.17,1.66-3.34Zm-2.34,4.39l1.63,1.73-2.61-.45c.34-.41.66-.84.97-1.28Zm-15.74,9.74l-2.03-1.1c.38.02.75.05,1.13.05,1.89,0,3.71-.27,5.45-.76l2.86,1.63,4.26,8.09-11.67-7.92Zm9.2-1.62l-.02-2.12c.7-.4,1.38-.85,2.03-1.33l1.31,9.24-3.32-5.79Zm22.4,19.42c-3.32,4.26-8-.43-12.52-5.54-3.74-4.24-5.49-15.27-5.98-18.91.15-.15.3-.3.45-.46v.03s5.54.6,5.54.6c0,0,16.01,9.45,16.35,13.8.34,4.34-.51,6.22-3.83,10.47Zm17.5,49.33h-5.38c-4.02-2.67-4.21-4.28-4.21-4.28,0,0-1.87-17.63-2.47-25.46-.6-7.83,3.83-13.54,7.24-18.82,3.12-4.84,4.97-5.75,19.69-7.57,2.5,2.35,5.86,3.8,9.56,3.8.84,0,1.65-.09,2.45-.23.6,1.6,1.41,3.09,2.38,4.45h-29.26v48.11Zm3.71,0v-9.86h36.63v9.86h-36.63Zm36.29,14.66v5.15h-19.22v-5.15h19.22Zm5.13,6.74v70.44h-10.26v-6.9h-10.25v-7.01h-8.96v-56.53h29.48Z"/><rect class="cls-1" width="262.88" height="262.88"/><polygon class="cls-2" points="144.42 142.52 144.42 137.81 144.42 136.89 144.42 136.86 135.52 136.86 135.52 132.15 140.04 132.15 140.04 126.4 129.82 126.4 129.82 132.15 134.34 132.15 134.34 136.86 125.45 136.86 125.45 137.81 125.45 137.81 125.45 142.52 120.93 142.52 120.93 148.28 131.15 148.28 131.15 142.52 126.63 142.52 126.63 137.81 143.24 137.81 143.24 142.52 138.72 142.52 138.72 148.28 148.94 148.28 148.94 142.52 144.42 142.52"/></g></svg>