<svg xmlns="http://www.w3.org/2000/svg" viewBox="0 0 15.92 15.51"><defs><style>.cls-1{fill:#fff;}</style></defs><title>ProceduralProgramming_Icon</title><g id="Layer_2" data-name="Layer 2"><g id="Layer_1-2" data-name="Layer 1"><path class="cls-1" d="M8,13.05H2.1a2,2,0,0,1-2-1.37A1.62,1.62,0,0,1,0,11.07c0-2.33,0-4.66,0-7a2.07,2.07,0,0,1,1.78-2l.39,0H8s.07,0,.08,0a5.15,5.15,0,0,1,0,.79c0,.12-.51.38-.7.47A1,1,0,0,1,7,3.45H2.16a.73.73,0,0,0-.8.8v6.69a.71.71,0,0,0,.55.73.82.82,0,0,0,.22,0H13.79a.7.7,0,0,0,.76-.76q0-3.35,0-6.7a3.73,3.73,0,0,0-.05-.72c0-.27,0-.54,0-.6s0-.46,0-.64a1.07,1.07,0,0,1,.57.22A2,2,0,0,1,15.91,4c0,.71,0,1.42,0,2.13,0,1.58,0,3.17,0,4.76A2.11,2.11,0,0,1,14.12,13H8Z"/><path class="cls-1" d="M8,15.51H.72A.67.67,0,0,1,0,14.92a.68.68,0,0,1,.62-.77H15.21a.68.68,0,0,1,.71.67.69.69,0,0,1-.71.69Z"/><path class="cls-1" d="M13.61,8.88v.85A1.3,1.3,0,0,1,12.33,11H10.62A1.28,1.28,0,0,1,9.35,9.74c0-.3,0-.59,0-.89a.09.09,0,0,0,0-.09L8.15,8.18l-.81-.42L7,7.57c-.05,0-.07,0-.09,0a1.29,1.29,0,0,1-1.24.87H4a1.27,1.27,0,0,1-1.14-.64,1.16,1.16,0,0,1-.17-.6c0-.6,0-1.19,0-1.79A1.14,1.14,0,0,1,3,4.69,1.27,1.27,0,0,1,4,4.2H5.57a1.36,1.36,0,0,1,1.07.44s0,0,.06,0l1-.59.65-.38.92-.54A.11.11,0,0,0,9.35,3V2c0-.22,0-.43,0-.65A1.25,1.25,0,0,1,10.08.13,1.18,1.18,0,0,1,10.64,0h1.67a1.3,1.3,0,0,1,1.3,1.29c0,.56,0,1.11,0,1.67a1.26,1.26,0,0,1-.52,1,1.19,1.19,0,0,1-.77.27H10.63A1.23,1.23,0,0,1,9.82,4a.13.13,0,0,0-.16,0l-1.54.89c-.37.2-.73.41-1.09.62A.1.1,0,0,0,7,5.58v.9a.09.09,0,0,0,.06.1l1.05.57.52.28.7.38c.05,0,.07,0,.08,0a1.31,1.31,0,0,1,.33-.64,1.25,1.25,0,0,1,.72-.37,1.42,1.42,0,0,1,.29,0h1.54A1.31,1.31,0,0,1,13,7a1.19,1.19,0,0,1,.56,1c0,.3,0,.6,0,.9Zm-3.78,0v.84a.81.81,0,0,0,.81.81H12.3a.81.81,0,0,0,.82-.83V8.06a.81.81,0,0,0-.82-.83H10.65a.81.81,0,0,0-.82.82Zm-5-4.18H4a.82.82,0,0,0-.8.8v1.7a.82.82,0,0,0,.24.55A.84.84,0,0,0,4,8H5.81a.81.81,0,0,0,.66-.8V5.47a.67.67,0,0,0-.06-.28.79.79,0,0,0-.76-.5Zm6.64-.91h.85a.82.82,0,0,0,.52-.2A.77.77,0,0,0,13.12,3c0-.56,0-1.12,0-1.67a.79.79,0,0,0-.81-.81q-.83,0-1.65,0a.81.81,0,0,0-.83.84V3a.82.82,0,0,0,.81.82Z"/><path class="cls-1" d="M10.72,8.87V8.35a.22.22,0,0,1,.22-.23h1a.29.29,0,0,1,.22.06.32.32,0,0,1,.06.15V9.41a.21.21,0,0,1-.21.21c-.36,0-.72,0-1.09,0a.22.22,0,0,1-.21-.21V8.87Z"/><path class="cls-1" d="M4,6.33V5.77a.24.24,0,0,1,.25-.26H5.41a.24.24,0,0,1,.24.25V6.93a.23.23,0,0,1-.23.23H4.24A.25.25,0,0,1,4,6.92Z"/><path class="cls-1" d="M10.72,2.13V1.61A.22.22,0,0,1,11,1.38h1a.22.22,0,0,1,.24.24v1a.22.22,0,0,1-.23.24H11a.23.23,0,0,1-.24-.23Z"/></g></g></svg>