<svg width="24" height="24" viewBox="0 0 24 24" fill="none" xmlns="http://www.w3.org/2000/svg">
<path fill-rule="evenodd" clip-rule="evenodd" d="M14.9004 15.9682C11.5317 15.9682 8.80089 13.2373 8.80089 9.86865C8.80089 6.49998 11.5317 3.76914 14.9004 3.76914C18.2691 3.76914 20.9999 6.49998 20.9999 9.86865C20.9999 13.2373 18.2691 15.9682 14.9004 15.9682ZM7.48259 15.1403C6.42367 13.653 5.80089 11.8335 5.80089 9.86865C5.80089 4.84313 9.87488 0.76914 14.9004 0.76914C19.9259 0.76914 23.9999 4.84313 23.9999 9.86865C23.9999 14.8942 19.9259 18.9682 14.9004 18.9682C12.9227 18.9682 11.0924 18.3373 9.59978 17.2657L3.07938 23.7862L0.958058 21.6648L7.48259 15.1403Z" fill="white"/>
</svg>
