<svg xmlns="http://www.w3.org/2000/svg" viewBox="0 0 13.26 19.3"><defs><style>.cls-1{fill:#fff;}</style></defs><title>Singing_Icon</title><g id="Layer_2" data-name="Layer 2"><g id="Layer_1-2" data-name="Layer 1"><path class="cls-1" d="M2.7,7.91H5.4V7.07H2.73V6.46H5.41V5.62H2.72V5H5.4V4.18H2.72A3.57,3.57,0,0,1,4.08.9,4,4,0,0,1,8.51.49a3.58,3.58,0,0,1,2,3.67H7.85V5h2.66v.6H7.86v.85h2.66v.6H7.85V7.9h2.67c0,.14,0,.24,0,.35V13a3.73,3.73,0,0,1-3.71,3.71A3.88,3.88,0,0,1,3.6,15.43a3.48,3.48,0,0,1-.9-2.36V7.91Z"/><path class="cls-1" d="M6.25,19.3A6.66,6.66,0,0,1,4.64,19,6.58,6.58,0,0,1,0,12.67V9.81H1.61v.33c0,.95,0,1.89,0,2.83a5,5,0,0,0,10,.25c.11-1,0-2,0-3.06V9.82h1.56s0,0,0,0a20.12,20.12,0,0,1-.16,4.25A6.5,6.5,0,0,1,8.54,19a17.09,17.09,0,0,1-1.8.31Z"/></g></g></svg>