<svg xmlns="http://www.w3.org/2000/svg" viewBox="0 0 18.16 17.41"><defs><style>.cls-1{fill:#fff;}</style></defs><title>SoundEdition_Icon</title><g id="Layer_2" data-name="Layer 2"><g id="Layer_1-2" data-name="Layer 1"><path class="cls-1" d="M0,8.93c0-.19,0-.38.05-.57a8.71,8.71,0,0,1,1-3.25A11.58,11.58,0,0,1,2.45,3.16l.06-.06.62.57c-.17.2-.35.39-.51.59A7.94,7.94,0,0,0,1,7.69,8.28,8.28,0,0,0,1,11.16a11.41,11.41,0,0,0,.51,1.63.11.11,0,0,1,0,.13,1.85,1.85,0,0,0-.43.64l0,.08c-.12-.29-.24-.56-.35-.84a10.35,10.35,0,0,1-.65-2.56c0-.19,0-.38,0-.57,0,0,0-.08,0-.12Z"/><path class="cls-1" d="M15.63,2.93l-.75.68s-.07,0-.1,0C14.19,3.3,13.6,3,13,2.69a10.51,10.51,0,0,0-2.57-.86A7.28,7.28,0,0,0,6.93,2,15.25,15.25,0,0,0,4,3.26l-.64.34a.18.18,0,0,1-.1,0l-.74-.68A8.77,8.77,0,0,1,15.63,2.93Z"/><path class="cls-1" d="M15.77,9.63a1.74,1.74,0,0,1-.11.32c-1.24,2.26-2.49,4.51-3.74,6.77a.75.75,0,0,1-1,.3l-.44-.24a.76.76,0,0,1-.3-1.06l2.33-4.21L13.87,9a.76.76,0,0,1,1.07-.32c.15.09.3.16.44.25A.77.77,0,0,1,15.77,9.63Z"/><path class="cls-1" d="M7,17.12a.77.77,0,0,1-.73-.41L4.49,13.54,2.53,10a.75.75,0,0,1,.32-1.11l.39-.21a.74.74,0,0,1,1,.31l2.64,4.77,1.09,2a.76.76,0,0,1-.31,1.08L7.28,17A2.64,2.64,0,0,1,7,17.12Z"/><path class="cls-1" d="M16.31,10a.36.36,0,0,0,0,.11,3.31,3.31,0,0,1,.36,1.1,1.5,1.5,0,0,1-.16.88c-.84,1.49-1.66,3-2.48,4.49a1.06,1.06,0,0,1-.3.33,2.46,2.46,0,0,1-1.13.44l-.32,0a.11.11,0,0,0-.08,0,.23.23,0,0,1-.3,0c-.06-.06-.06-.12,0-.22l2.57-4.66L16,9.84c0-.08.09-.13.18-.1S16.33,9.84,16.31,10Z"/><path class="cls-1" d="M2.11,9.73a.36.36,0,0,1,.1.11c.25.43.49.87.73,1.31q1.64,3,3.28,5.94c.09.16,0,.26-.13.31s-.08,0-.1,0a.49.49,0,0,0-.33-.08,2.67,2.67,0,0,1-1.22-.43,1,1,0,0,1-.35-.39L1.58,12a1.21,1.21,0,0,1-.13-.67A2.78,2.78,0,0,1,1.8,10.1a1.16,1.16,0,0,0,0-.18C1.84,9.83,2,9.73,2.11,9.73Z"/><path class="cls-1" d="M15,3.67l.63-.57,0,0a10,10,0,0,1,2.11,3.67,8.57,8.57,0,0,1,.08,4.71,11,11,0,0,1-.73,2.06l0,.07,0-.07a1.91,1.91,0,0,0-.43-.63.11.11,0,0,1,0-.15,10.18,10.18,0,0,0,.63-2.3A7.63,7.63,0,0,0,16,4.84c-.27-.39-.6-.75-.9-1.12Z"/><path class="cls-1" d="M3.6,16a1.83,1.83,0,0,1-1.76-3.17ZM2.05,14.42a.32.32,0,1,0,.32.32A.32.32,0,0,0,2.05,14.42Z"/><path class="cls-1" d="M16.32,12.85A1.83,1.83,0,0,1,14.57,16Zm.12,1.89a.32.32,0,0,0-.32-.32.33.33,0,0,0-.33.32.33.33,0,0,0,.65,0Z"/></g></g></svg>