<?xml version="1.0" encoding="UTF-8"?><svg id="Layer_2" xmlns="http://www.w3.org/2000/svg" viewBox="0 0 104.22 81.13"><defs><style>.cls-1{fill:#fff;}</style></defs><g id="Layer_1-2"><path class="cls-1" d="m52.17,40.72c0,11.94-.01,23.89.01,35.83,0,1.92-.68,3.34-2.43,4.15-1.78.82-3.6.43-5.1-.98-7.14-6.79-14.29-13.56-21.41-20.37-.93-.89-1.88-1.31-3.2-1.29-5.17.08-10.35.04-15.53.03-2.83,0-4.49-1.57-4.5-4.4-.03-8.68-.03-17.36,0-26.04,0-2.88,1.66-4.44,4.56-4.45,5.34,0,10.69-.02,16.03.02.91,0,1.57-.25,2.23-.88,7.22-6.9,14.46-13.77,21.7-20.65,1.22-1.16,2.55-2,4.33-1.56,2.09.52,3.3,2.12,3.3,4.36,0,12.08,0,24.16,0,36.24Z"/><path class="cls-1" d="m104.21,40.64c-.21,11.77-4.17,22.08-12,30.89-.71.8-1.42,1.62-2.23,2.33-2.38,2.1-5.84,1.89-8.08-.43-2.16-2.24-2.2-5.75.03-8.02,2.71-2.76,5.03-5.79,6.77-9.24,6.41-12.77,4.43-27.82-5.05-38.6-.55-.63-1.13-1.25-1.7-1.86-2.16-2.29-2.22-5.67-.14-7.95,2.14-2.34,5.57-2.72,7.97-.64,2.81,2.43,5.05,5.39,7.06,8.51,3.95,6.13,6.3,12.83,7.1,20.07.18,1.63.34,3.28.27,4.94Z"/><path class="cls-1" d="m81.83,40.05c-.03,7.07-1.65,13.65-5.97,19.39-.58.78-1.28,1.47-1.89,2.22-1.65,2-3.83,2.3-6.21,1.99-2-.26-3.35-1.33-3.95-3.26-.64-2.07-.2-3.93,1.31-5.49,2.51-2.6,4.22-5.67,5.06-9.16,1.73-7.17.46-13.59-4.95-18.93-1.91-1.88-2.23-4.57-.95-6.65,1.44-2.34,3.93-3.35,6.4-2.6.75.23,1.44.59,2,1.14,4.24,4.14,7.52,8.86,8.63,14.83.4,2.15.6,4.33.53,6.53Z"/></g></svg>