<?xml version="1.0" encoding="utf-8"?>
<!-- Generator: Adobe Illustrator 24.0.1, SVG Export Plug-In . SVG Version: 6.00 Build 0)  -->
<svg version="1.1" id="Layer_2_1_" xmlns="http://www.w3.org/2000/svg" xmlns:xlink="http://www.w3.org/1999/xlink" x="0px" y="0px"
	 viewBox="0 0 91.3 91.3" style="enable-background:new 0 0 91.3 91.3;" xml:space="preserve">
<path d="M43,0.1c1.8,0,3.6,0,5.3,0c0.6,0.1,1.2,0.1,1.8,0.2c3.7,0.4,7.4,1.2,10.9,2.4C70.4,6.1,78,12,83.6,20.3
	c3.3,4.9,5.6,10.2,6.8,16c0.5,2.4,0.9,4.8,0.9,7.3c0,0.2,0,0.3,0.1,0.5c0,1.2,0,2.3,0,3.5c0,0.2-0.1,0.3-0.1,0.5
	c0,1.4-0.2,2.8-0.4,4.3c-0.6,4.5-1.9,8.9-3.9,13c-2.6,5.5-6.2,10.3-10.8,14.4c-3.9,3.6-8.4,6.3-13.3,8.3c-4.1,1.7-8.4,2.7-12.8,3.2
	c-0.4,0-0.8,0-1.2,0.1c-2.1,0-4.3,0-6.4,0c-0.1,0-0.3-0.1-0.4-0.1c-1.2-0.1-2.3-0.2-3.4-0.4c-5.3-0.8-10.2-2.5-14.9-5.1
	c-4.6-2.5-8.6-5.7-12.1-9.6C8.5,72.7,6,68.9,4.1,64.7c-2.2-4.9-3.6-10.1-4-15.5c0-0.3,0-0.5-0.1-0.8c0-1.8,0-3.6,0-5.3
	c0.1-0.2,0.1-0.5,0.1-0.7c0.1-1.8,0.4-3.6,0.7-5.3C3,26.3,8.3,17.4,16.7,10.5c7.3-6,15.6-9.4,25-10.2C42.1,0.2,42.6,0.2,43,0.1z
	 M47.5,17.8c-8.1,0-16.2,0-24.2,0c-0.6,0-0.6,0-0.9,0.6c0,0.1,0,0.1-0.1,0.2c-1,2.7-2,5.4-3.1,8.1c-0.2,0.6-0.3,1.1-0.3,1.7
	c0,12.4,0,24.9,0,37.3c0,0.7,0,0.7,0.7,0.7c3.9,0,7.8,0,11.7,0c0.2,0,0.3,0,0.5,0c0.4,0,0.4,0.1,0.5,0.5c0,0.1,0,0.3,0,0.4
	c0,1.9,0,3.7,0,5.6c0,0.1,0,0.3,0,0.4c0,0.4,0.1,0.5,0.5,0.5c0.1,0,0.1,0,0.2,0c2,0,4,0,6,0c0.4,0,0.7-0.1,1-0.4
	c1.8-1.9,3.7-3.7,5.5-5.6c0.3-0.3,0.7-0.7,1-1c0.2-0.2,0.4-0.3,0.7-0.3c0.2,0,0.3,0,0.5,0c3.1,0,6.3,0,9.4,0c0.4,0,0.7-0.1,1-0.4
	c0.4-0.4,0.8-0.8,1.2-1.2c4.2-4.2,8.3-8.3,12.5-12.5c0.3-0.3,0.5-0.6,0.5-1.1c0-10.9,0-21.8,0-32.7c0-0.8,0-0.8-0.8-0.8
	C63.6,17.8,55.5,17.8,47.5,17.8z"/>
<path d="M47.5,22.5c6.4,0,12.8,0,19.2,0c0.9,0,0.9,0,0.9,0.9c0,8.4,0,16.8,0,25.2c0,0.6-0.2,1-0.6,1.4c-2.5,2.5-5,5-7.5,7.5
	c-0.3,0.4-0.7,0.5-1.2,0.5c-4,0-8,0-11.9,0c-0.5,0-0.9,0.1-1.3,0.5c-2.1,2.1-4.2,4.2-6.3,6.3c-0.1,0.1-0.3,0.4-0.5,0.3
	c-0.2-0.1-0.1-0.4-0.1-0.6c0-1.9,0-3.9,0-5.8c0-0.7,0-0.7-0.7-0.7c-3.1,0-6.3,0-9.4,0c-0.1,0-0.2,0-0.3,0c-0.5,0-0.5-0.1-0.6-0.5
	c0-0.2,0-0.3,0-0.5c0-11.1,0-22.2,0-33.4c0-0.1,0-0.3,0-0.4c0-0.5,0.1-0.6,0.6-0.6c0.2,0,0.4,0,0.5,0C34.8,22.5,41.2,22.5,47.5,22.5
	z M40.8,39.7c0,2.1,0,4.3,0,6.4c0,0.1,0,0.3,0,0.4c0,0.4,0.1,0.4,0.5,0.5c0.1,0,0.2,0,0.3,0c1.1-0.1,2.1-0.1,3.2,0
	c0.8,0,0.8,0,0.8-0.8c0-3,0-6.1,0-9.1c0-1.4,0-2.7,0-4.1c0-0.5-0.1-0.6-0.6-0.6c-1.2,0-2.4,0-3.7,0c-0.5,0-0.5,0.1-0.5,0.5
	c0,0.1,0,0.3,0,0.4C40.8,35.4,40.8,37.5,40.8,39.7z M59,39.7c0-0.3,0-0.7,0-1c0-1.9,0-3.8,0-5.7c0-0.5-0.1-0.6-0.6-0.6
	c-1.2,0-2.4,0-3.6,0c-0.5,0-0.6,0.1-0.6,0.6c0,0,0,0.1,0,0.1c0,4.4,0,8.8,0,13.2c0,0.1,0,0.2,0,0.4c0,0.2,0.1,0.3,0.3,0.3
	c0.1,0,0.2,0,0.3,0c1.1-0.1,2.3,0,3.4,0c0.7,0,0.7,0,0.7-0.7C59,44,59,41.8,59,39.7z"/>
</svg>
