<?xml version="1.0" encoding="utf-8"?>
<!-- Generator: Adobe Illustrator 24.0.1, SVG Export Plug-In . SVG Version: 6.00 Build 0)  -->
<svg version="1.1" id="Layer_2_1_" xmlns="http://www.w3.org/2000/svg" xmlns:xlink="http://www.w3.org/1999/xlink" x="0px" y="0px"
	 viewBox="0 0 91.3 91.3" style="enable-background:new 0 0 91.3 91.3;" xml:space="preserve">
<g>
	<path d="M48.4,43c-1.1-1.6-2.3-3.2-3.5-4.8c-1.7-2.3-3.3-4.7-4.9-7c-1.5-2.1-3-4.2-4.5-6.3c-0.3-0.4-0.7-0.6-1.2-0.6
		c-1,0-1.9,0-2.9,0c0,0,0,0,0,0c-1,0-2.1,0-3.1,0c-0.5,0-0.6,0.2-0.3,0.6c0.7,1,1.4,2,2.1,2.9c0.9,1.3,1.9,2.6,2.8,3.9
		c1.1,1.5,2.2,3,3.3,4.5c1.2,1.7,2.4,3.4,3.6,5c1.3,1.9,2.7,3.7,4.1,5.6c1.2,1.6,2.3,3.3,3.5,4.8c1.5,2,3,4.1,4.5,6.2
		c1.6,2.2,3.2,4.4,4.8,6.6c0.3,0.4,0.7,0.6,1.2,0.6c2.1,0,4.1-0.1,6.2,0c0.1,0,0.2,0,0.3-0.1c0.1-0.1,0-0.2-0.1-0.3
		c-0.4-0.6-0.8-1.1-1.2-1.7c-1.5-2.1-3-4.2-4.6-6.3c-1.2-1.7-2.4-3.3-3.6-5c-1.1-1.5-2.2-3-3.3-4.5C50.4,45.8,49.4,44.4,48.4,43z"/>
	<path d="M45.7,0C20.5,0,0,20.4,0,45.6s20.4,45.6,45.6,45.6c25.2,0,45.6-20.4,45.6-45.6S70.9,0,45.7,0z M53,40.7
		c0.9,1.2,1.8,2.5,2.6,3.7c1,1.5,2.1,2.9,3.1,4.4c1.3,1.8,2.6,3.6,3.9,5.5c1.2,1.7,2.4,3.4,3.6,5.1c1.7,2.5,3.5,4.9,5.2,7.3
		c0.7,1,1.5,1.9,2.1,3c0.1,0.1,0.3,0.3,0.2,0.5c-0.1,0.2-0.3,0.1-0.5,0.1c-1.8,0-3.6,0-5.4,0c-1.3,0-2.6,0-3.9,0c-3,0-6.1,0-9.1,0
		c-0.5,0-0.9-0.2-1.2-0.6c-1.6-2.2-3.1-4.4-4.7-6.6c-1.2-1.7-2.4-3.3-3.6-5c-1.2-1.7-2.4-3.4-3.7-5.1c-0.2-0.3-0.4-0.4-0.7,0
		c-2.3,2.4-4.5,4.9-6.8,7.3c-1,1-2,2-2.9,3.1c-1.9,2.1-3.8,4.1-5.8,6.2c-0.6,0.6-1.1,0.9-1.9,0.8c-1.8,0-3.5,0-5.3,0
		c-0.1,0-0.3,0.1-0.4-0.1c-0.1-0.2,0.1-0.2,0.2-0.3c2.1-2.2,4.1-4.5,6.2-6.7c1-1,2-2,2.9-3.1c2.2-2.5,4.5-4.8,6.8-7.2
		c1.3-1.4,2.6-2.9,3.9-4.3c0.3-0.3,0.3-0.5,0-0.9c-1.7-2.4-3.4-4.7-5.1-7.1c-1.7-2.3-3.3-4.7-4.9-7c-1.4-2-2.9-4-4.3-6
		c-1.2-1.7-2.4-3.4-3.6-5c-0.7-0.9-1.4-1.8-2-2.8c-0.1-0.1-0.2-0.2-0.2-0.4c0.1-0.2,0.3-0.1,0.5-0.1c0.9,0,1.9,0,2.8,0
		c4.2,0,8.4,0,12.6,0c1.1,0,2.3,0.1,3.4-0.1c0.3,0,0.5,0.1,0.6,0.3c1.6,2.2,3.1,4.4,4.7,6.7c1,1.3,1.9,2.7,2.9,4
		c1.2,1.7,2.5,3.5,3.7,5.2c0.3,0.5,0.4,0.5,0.8,0.1c1.3-1.4,2.7-2.8,4-4.3c2-2.1,3.8-4.2,5.8-6.3c0.9-1,1.9-1.9,2.7-2.9
		c0.7-0.8,1.4-1.6,2.2-2.4c0.3-0.3,0.6-0.4,1-0.4c1.9,0,3.9,0,5.8,0c0.2,0,0.4-0.1,0.4,0.1c0.1,0.2-0.1,0.3-0.2,0.4
		c-1.1,1.3-2.3,2.4-3.4,3.7c-2,2.2-4,4.3-6,6.4c-1.7,1.8-3.3,3.6-5,5.4c-1.1,1.2-2.2,2.3-3.3,3.5c-0.4,0.4-0.7,1-1.2,1.4
		C52.8,40.3,52.8,40.5,53,40.7z"/>
</g>
</svg>
