<?xml version="1.0" encoding="UTF-8"?><svg id="Layer_2" xmlns="http://www.w3.org/2000/svg" viewBox="0 0 119.67 119.67"><defs><style>.cls-1{fill:#fff;}</style></defs><g id="Layer_1-2"><path class="cls-1" d="m59.84,0C26.79,0,0,26.79,0,59.84s26.79,59.84,59.84,59.84,59.84-26.79,59.84-59.84S92.88,0,59.84,0Zm-2.69,111.36c-28.46-1.48-50.32-25.75-48.84-54.21S34.07,6.83,62.52,8.31c28.46,1.48,50.32,25.75,48.84,54.21-1.48,28.45-25.75,50.32-54.21,48.84Z"/><path class="cls-1" d="m32.5,83.4c1.67,0,3.36.17,5-.04,2.49-.32,3.74-1.17,3.71-3.7-.11-8.93-.04-17.85-.05-26.78,0-.51-.02-1.02-.09-1.53-.2-1.48-1.01-2.05-2.45-2.2-3.16-.33-5.46,1.32-7.64,3.17-4.88,4.15-8.38,9.4-11.6,14.85-.25.43-.6.81-.9,1.21-.12-.04-.24-.09-.36-.13.11-1.57.01-3.18.36-4.69.69-3.03,1.45-6.07,2.49-9,1.6-4.48,4.08-8.52,7.03-12.25,4.74-6,10.49-10.81,17.24-14.41,4-2.13,8.23-3.66,12.64-4.67.4-.09.84-.01.95-.01-2.06,2-4.36,4.04-6.42,6.3-1.45,1.58-2.33,3.5-1.69,5.82.28,1.03.22,2.15.53,3.16.56,1.78,1.47,3.18,4.04,3.19,0,2.5,0,5.01,0,7.52-.02,7.27-.05,14.55-.07,21.82,0,1.5,0,3,0,4.49,0,2.3,2.98,3.55,4.83,3.09,2.92-.73,5.64-1.95,8.22-3.5.7-.42.95-.91.95-1.77-.04-8.22-.09-16.44,0-24.66.05-4.52-1.35-8.38-4.47-11.63,2.22-.07,3.49-.14,6.02,2.17,5.68-6.21,12.98-9.4,20.86-11.49.09.11.17.23.26.34-1.11,1.55-2.3,3.05-3.33,4.66-1.7,2.65-3.33,5.35-4.93,8.07-.28.47-.35,1.13-.35,1.7-.04,11.05-.06,22.1-.07,33.15,0,2.06,2.63,3.56,4.9,2.84,4.69-1.5,8.76-4,12.12-7.62.33-.36.68-.69,1.02-1.03.13.08.26.17.39.25-.53,1.03-1,2.1-1.6,3.09-2.58,4.2-5.78,7.92-9.41,11.24-3.52,3.22-7.41,5.94-11.74,7.98-.3.14-.81.07-1.13-.09-2.48-1.21-4.96-2.45-7.4-3.74-.87-.46-1.44-.44-2.17.33-2.47,2.59-5.13,5-7.52,7.66-1.11,1.24-2.25.65-3.3.48-2.52-.41-5.04-.91-7.47-1.69-4.1-1.32-8.06-3.02-11.58-5.6-2.29-1.68-4.36-3.58-5.97-5.94.04-.13.08-.27.12-.4Z"/></g></svg>