<svg width="36" height="36" viewBox="0 0 36 36" fill="none" xmlns="http://www.w3.org/2000/svg">
<path fill-rule="evenodd" clip-rule="evenodd" d="M18.3174 0C28.0799 0 35.9996 7.91962 35.9996 17.6865C35.9996 27.4532 28.0799 35.3687 18.3174 35.3687C8.55057 35.3687 0.630859 27.4532 0.630859 17.6865C0.630859 7.91962 8.55057 0 18.3174 0M18.5 23.6478C22.84 23.6478 26.5874 26.2482 28.3197 30C31.7844 27.1073 34 22.7099 34 17.7878C34 9.06732 27.0569 2 18.5 2C9.93853 2 3 9.06732 3 17.7878C3 22.7099 5.21103 27.1073 8.67574 30C10.4081 26.2482 14.1554 23.6478 18.5 23.6478ZM18.3172 9.75391C21.6557 9.75391 24.3684 12.4623 24.3684 15.8008C24.3684 19.1435 21.6557 21.852 18.3172 21.852C14.9745 21.852 12.2617 19.1435 12.2617 15.8008C12.2617 12.4623 14.9745 9.75391 18.3172 9.75391Z" fill="white"/>
</svg>
